Playwrite-Rg00LongFast.ufo
<glyph name="dollar" format="2">
  <advance width="1066"/>
  <unicode hex="0024"/>
  <outline>
    <contour>
      <point x="535" y="-19" type="curve" smooth="yes"/>
      <point x="788" y="-19"/>
      <point x="950" y="155"/>
      <point x="950" y="385" type="curve" smooth="yes"/>
      <point x="950" y="645"/>
      <point x="748" y="740"/>
      <point x="558" y="824" type="curve" smooth="yes"/>
      <point x="394" y="896"/>
      <point x="266" y="960"/>
      <point x="264" y="1154" type="curve" smooth="yes"/>
      <point x="261" y="1319"/>
      <point x="373" y="1430"/>
      <point x="551" y="1430" type="curve" smooth="yes"/>
      <point x="696" y="1430"/>
      <point x="776" y="1365"/>
      <point x="853" y="1280" type="curve" smooth="yes"/>
      <point x="869" y="1263"/>
      <point x="886" y="1265"/>
      <point x="905" y="1283" type="curve" smooth="yes"/>
      <point x="923" y="1300"/>
      <point x="926" y="1315"/>
      <point x="910" y="1335" type="curve" smooth="yes"/>
      <point x="815" y="1451"/>
      <point x="701" y="1515"/>
      <point x="551" y="1515" type="curve" smooth="yes"/>
      <point x="340" y="1515"/>
      <point x="171" y="1383"/>
      <point x="171" y="1156" type="curve" smooth="yes"/>
      <point x="171" y="899"/>
      <point x="354" y="815"/>
      <point x="533" y="734" type="curve" smooth="yes"/>
      <point x="713" y="651"/>
      <point x="858" y="584"/>
      <point x="858" y="383" type="curve" smooth="yes"/>
      <point x="858" y="199"/>
      <point x="735" y="66"/>
      <point x="535" y="66" type="curve" smooth="yes"/>
      <point x="380" y="66"/>
      <point x="265" y="143"/>
      <point x="190" y="228" type="curve" smooth="yes"/>
      <point x="168" y="253"/>
      <point x="156" y="258"/>
      <point x="133" y="236" type="curve" smooth="yes"/>
      <point x="110" y="216"/>
      <point x="111" y="200"/>
      <point x="128" y="179" type="curve" smooth="yes"/>
      <point x="218" y="60"/>
      <point x="361" y="-19"/>
    </contour>
    <contour>
      <point x="544" y="-150" type="curve" smooth="yes"/>
      <point x="570" y="-150"/>
      <point x="584" y="-141"/>
      <point x="584" y="-122" type="curve" smooth="yes"/>
      <point x="584" y="1634" type="line" smooth="yes"/>
      <point x="584" y="1653"/>
      <point x="570" y="1661"/>
      <point x="544" y="1661" type="curve" smooth="yes"/>
      <point x="518" y="1661"/>
      <point x="504" y="1653"/>
      <point x="504" y="1634" type="curve" smooth="yes"/>
      <point x="504" y="-122" type="line" smooth="yes"/>
      <point x="504" y="-141"/>
      <point x="518" y="-150"/>
    </contour>
  </outline>
</glyph>
<glyph name="percent" format="2">
  <advance width="1275"/>
  <unicode hex="0025"/>
  <outline>
    <contour>
      <point x="340" y="870" type="curve" smooth="yes"/>
      <point x="490" y="870"/>
      <point x="588" y="1005"/>
      <point x="588" y="1193" type="curve" smooth="yes"/>
      <point x="588" y="1380"/>
      <point x="490" y="1515"/>
      <point x="340" y="1515" type="curve" smooth="yes"/>
      <point x="189" y="1515"/>
      <point x="90" y="1380"/>
      <point x="90" y="1193" type="curve" smooth="yes"/>
      <point x="90" y="1005"/>
      <point x="189" y="870"/>
    </contour>
    <contour>
      <point x="340" y="946" type="curve" smooth="yes"/>
      <point x="244" y="946"/>
      <point x="174" y="1031"/>
      <point x="174" y="1193" type="curve" smooth="yes"/>
      <point x="174" y="1354"/>
      <point x="244" y="1439"/>
      <point x="340" y="1439" type="curve" smooth="yes"/>
      <point x="435" y="1439"/>
      <point x="504" y="1354"/>
      <point x="504" y="1193" type="curve" smooth="yes"/>
      <point x="504" y="1031"/>
      <point x="435" y="946"/>
    </contour>
    <contour>
      <point x="268" y="-9" type="curve" smooth="yes"/>
      <point x="1076" y="1465" type="line" smooth="yes"/>
      <point x="1086" y="1483"/>
      <point x="1081" y="1489"/>
      <point x="1056" y="1505" type="curve" smooth="yes"/>
      <point x="1031" y="1521"/>
      <point x="1019" y="1520"/>
      <point x="1010" y="1505" type="curve" smooth="yes"/>
      <point x="201" y="31" type="line" smooth="yes"/>
      <point x="193" y="15"/>
      <point x="196" y="6"/>
      <point x="221" y="-9" type="curve" smooth="yes"/>
      <point x="245" y="-24"/>
      <point x="259" y="-25"/>
    </contour>
    <contour>
      <point x="939" y="-19" type="curve" smooth="yes"/>
      <point x="1089" y="-19"/>
      <point x="1186" y="116"/>
      <point x="1186" y="304" type="curve" smooth="yes"/>
      <point x="1186" y="491"/>
      <point x="1089" y="626"/>
      <point x="939" y="626" type="curve" smooth="yes"/>
      <point x="788" y="626"/>
      <point x="689" y="491"/>
      <point x="689" y="304" type="curve" smooth="yes"/>
      <point x="689" y="116"/>
      <point x="788" y="-19"/>
    </contour>
    <contour>
      <point x="939" y="58" type="curve" smooth="yes"/>
      <point x="843" y="58"/>
      <point x="773" y="143"/>
      <point x="773" y="304" type="curve" smooth="yes"/>
      <point x="773" y="465"/>
      <point x="843" y="550"/>
      <point x="939" y="550" type="curve" smooth="yes"/>
      <point x="1034" y="550"/>
      <point x="1103" y="465"/>
      <point x="1103" y="304" type="curve" smooth="yes"/>
      <point x="1103" y="143"/>
      <point x="1034" y="58"/>
    </contour>
  </outline>
</glyph>
<glyph name="quotesingle" format="2">
  <advance width="169"/>
  <unicode hex="0027"/>
  <outline>
    <contour>
      <point x="89" y="1223" type="curve" smooth="yes"/>
      <point x="114" y="1223"/>
      <point x="119" y="1238"/>
      <point x="120" y="1254" type="curve" smooth="yes"/>
      <point x="135" y="1505" type="line" smooth="yes"/>
      <point x="136" y="1526"/>
      <point x="124" y="1545"/>
      <point x="89" y="1545" type="curve" smooth="yes"/>
      <point x="54" y="1545"/>
      <point x="41" y="1526"/>
      <point x="43" y="1505" type="curve" smooth="yes"/>
      <point x="58" y="1254" type="line" smooth="yes"/>
      <point x="59" y="1238"/>
      <point x="63" y="1223"/>
    </contour>
  </outline>
</glyph>
<glyph name="comma" format="2">
  <advance width="313"/>
  <unicode hex="002C"/>
  <outline>
    <contour>
      <point x="103" y="-204" type="curve" smooth="yes"/>
      <point x="116" y="-204"/>
      <point x="125" y="-195"/>
      <point x="131" y="-187" type="curve" smooth="yes"/>
      <point x="184" y="-119"/>
      <point x="204" y="-26"/>
      <point x="204" y="44" type="curve" smooth="yes"/>
      <point x="204" y="69"/>
      <point x="185" y="84"/>
      <point x="155" y="84" type="curve" smooth="yes"/>
      <point x="126" y="84"/>
      <point x="108" y="71"/>
      <point x="108" y="46" type="curve" smooth="yes"/>
      <point x="108" y="-46"/>
      <point x="103" y="-84"/>
      <point x="74" y="-147" type="curve" smooth="yes"/>
      <point x="68" y="-159"/>
      <point x="64" y="-167"/>
      <point x="64" y="-172" type="curve" smooth="yes"/>
      <point x="64" y="-190"/>
      <point x="84" y="-204"/>
    </contour>
  </outline>
</glyph>
<glyph name="slash" format="2">
  <advance width="525"/>
  <unicode hex="002F"/>
  <outline>
    <contour>
      <point x="48" y="-75" type="curve" smooth="yes"/>
      <point x="76" y="-82"/>
      <point x="93" y="-77"/>
      <point x="98" y="-59" type="curve" smooth="yes"/>
      <point x="513" y="1536" type="line" smooth="yes"/>
      <point x="518" y="1555"/>
      <point x="505" y="1568"/>
      <point x="478" y="1575" type="curve" smooth="yes"/>
      <point x="449" y="1583"/>
      <point x="433" y="1578"/>
      <point x="428" y="1559" type="curve" smooth="yes"/>
      <point x="13" y="-36" type="line" smooth="yes"/>
      <point x="8" y="-55"/>
      <point x="20" y="-67"/>
    </contour>
  </outline>
</glyph>
<glyph name="three" format="2">
  <advance width="1126"/>
  <unicode hex="0033"/>
  <outline>
    <contour>
      <point x="544" y="-19" type="curve" smooth="yes"/>
      <point x="849" y="-19"/>
      <point x="996" y="135"/>
      <point x="996" y="409" type="curve" smooth="yes"/>
      <point x="996" y="605"/>
      <point x="899" y="758"/>
      <point x="674" y="803" type="curve"/>
      <point x="860" y="855"/>
      <point x="934" y="996"/>
      <point x="934" y="1154" type="curve" smooth="yes"/>
      <point x="934" y="1405"/>
      <point x="754" y="1515"/>
      <point x="526" y="1515" type="curve" smooth="yes"/>
      <point x="371" y="1515"/>
      <point x="204" y="1435"/>
      <point x="129" y="1338" type="curve" smooth="yes"/>
      <point x="118" y="1323"/>
      <point x="106" y="1305"/>
      <point x="131" y="1285" type="curve" smooth="yes"/>
      <point x="151" y="1269"/>
      <point x="170" y="1264"/>
      <point x="188" y="1285" type="curve" smooth="yes"/>
      <point x="264" y="1373"/>
      <point x="389" y="1430"/>
      <point x="526" y="1430" type="curve" smooth="yes"/>
      <point x="688" y="1430"/>
      <point x="843" y="1351"/>
      <point x="843" y="1154" type="curve" smooth="yes"/>
      <point x="843" y="985"/>
      <point x="741" y="840"/>
      <point x="516" y="840" type="curve" smooth="yes"/>
      <point x="405" y="840" type="line" smooth="yes"/>
      <point x="386" y="840"/>
      <point x="378" y="831"/>
      <point x="378" y="803" type="curve" smooth="yes"/>
      <point x="378" y="775"/>
      <point x="383" y="760"/>
      <point x="405" y="760" type="curve" smooth="yes"/>
      <point x="511" y="760" type="line" smooth="yes"/>
      <point x="748" y="760"/>
      <point x="904" y="626"/>
      <point x="904" y="409" type="curve" smooth="yes"/>
      <point x="904" y="183"/>
      <point x="779" y="66"/>
      <point x="544" y="66" type="curve" smooth="yes"/>
      <point x="375" y="66"/>
      <point x="228" y="160"/>
      <point x="139" y="316" type="curve" smooth="yes"/>
      <point x="128" y="336"/>
      <point x="114" y="336"/>
      <point x="90" y="324" type="curve" smooth="yes"/>
      <point x="61" y="309"/>
      <point x="63" y="291"/>
      <point x="78" y="264" type="curve" smooth="yes"/>
      <point x="179" y="81"/>
      <point x="365" y="-19"/>
    </contour>
  </outline>
</glyph>
<glyph name="six" format="2">
  <advance width="1210"/>
  <unicode hex="0036"/>
  <outline>
    <contour>
      <point x="645" y="-19" type="curve" smooth="yes"/>
      <point x="924" y="-19"/>
      <point x="1094" y="159"/>
      <point x="1094" y="478" type="curve" smooth="yes"/>
      <point x="1094" y="738"/>
      <point x="940" y="906"/>
      <point x="688" y="906" type="curve" smooth="yes"/>
      <point x="488" y="906"/>
      <point x="274" y="781"/>
      <point x="210" y="429" type="curve"/>
      <point x="260" y="333" type="line"/>
      <point x="311" y="721"/>
      <point x="525" y="826"/>
      <point x="688" y="826" type="curve" smooth="yes"/>
      <point x="881" y="826"/>
      <point x="1003" y="689"/>
      <point x="1003" y="478" type="curve" smooth="yes"/>
      <point x="1003" y="219"/>
      <point x="873" y="61"/>
      <point x="645" y="61" type="curve" smooth="yes"/>
      <point x="429" y="61"/>
      <point x="250" y="231"/>
      <point x="250" y="606" type="curve" smooth="yes"/>
      <point x="250" y="1065"/>
      <point x="436" y="1338"/>
      <point x="906" y="1438" type="curve" smooth="yes"/>
      <point x="938" y="1444"/>
      <point x="938" y="1454"/>
      <point x="935" y="1481" type="curve" smooth="yes"/>
      <point x="931" y="1519"/>
      <point x="916" y="1520"/>
      <point x="874" y="1511" type="curve" smooth="yes"/>
      <point x="378" y="1411"/>
      <point x="159" y="1104"/>
      <point x="159" y="606" type="curve" smooth="yes"/>
      <point x="159" y="224"/>
      <point x="333" y="-19"/>
    </contour>
  </outline>
</glyph>
<glyph name="seven" format="2">
  <advance width="914"/>
  <unicode hex="0037"/>
  <outline>
    <contour>
      <point x="200" y="-12" type="curve" smooth="yes"/>
      <point x="238" y="-26"/>
      <point x="246" y="-12"/>
      <point x="261" y="23" type="curve" smooth="yes"/>
      <point x="888" y="1436" type="line" smooth="yes"/>
      <point x="898" y="1459"/>
      <point x="883" y="1488"/>
      <point x="856" y="1488" type="curve" smooth="yes"/>
      <point x="60" y="1488" type="line" smooth="yes"/>
      <point x="38" y="1488"/>
      <point x="33" y="1473"/>
      <point x="33" y="1445" type="curve" smooth="yes"/>
      <point x="33" y="1416"/>
      <point x="41" y="1408"/>
      <point x="60" y="1408" type="curve" smooth="yes"/>
      <point x="784" y="1408" type="line"/>
      <point x="175" y="36" type="line" smooth="yes"/>
      <point x="164" y="10"/>
      <point x="169" y="-1"/>
    </contour>
  </outline>
</glyph>
<glyph name="eight" format="2">
  <advance width="1126"/>
  <unicode hex="0038"/>
  <outline>
    <contour>
      <point x="561" y="-19" type="curve" smooth="yes"/>
      <point x="835" y="-19"/>
      <point x="1034" y="154"/>
      <point x="1034" y="393" type="curve" smooth="yes"/>
      <point x="1034" y="568"/>
      <point x="899" y="726"/>
      <point x="676" y="811" type="curve"/>
      <point x="860" y="895"/>
      <point x="971" y="1036"/>
      <point x="971" y="1185" type="curve" smooth="yes"/>
      <point x="971" y="1390"/>
      <point x="819" y="1515"/>
      <point x="568" y="1515" type="curve" smooth="yes"/>
      <point x="313" y="1515"/>
      <point x="156" y="1386"/>
      <point x="156" y="1176" type="curve" smooth="yes"/>
      <point x="156" y="1018"/>
      <point x="269" y="885"/>
      <point x="454" y="801" type="curve"/>
      <point x="229" y="715"/>
      <point x="93" y="555"/>
      <point x="93" y="379" type="curve" smooth="yes"/>
      <point x="93" y="149"/>
      <point x="290" y="-19"/>
    </contour>
    <contour>
      <point x="565" y="66" type="curve" smooth="yes"/>
      <point x="345" y="66"/>
      <point x="186" y="198"/>
      <point x="186" y="379" type="curve" smooth="yes"/>
      <point x="186" y="539"/>
      <point x="326" y="684"/>
      <point x="555" y="764" type="curve"/>
      <point x="794" y="686"/>
      <point x="940" y="559"/>
      <point x="940" y="393" type="curve" smooth="yes"/>
      <point x="940" y="204"/>
      <point x="783" y="66"/>
    </contour>
    <contour>
      <point x="574" y="848" type="curve"/>
      <point x="373" y="914"/>
      <point x="250" y="1039"/>
      <point x="250" y="1178" type="curve" smooth="yes"/>
      <point x="250" y="1335"/>
      <point x="370" y="1430"/>
      <point x="568" y="1430" type="curve" smooth="yes"/>
      <point x="760" y="1430"/>
      <point x="878" y="1336"/>
      <point x="878" y="1183" type="curve" smooth="yes"/>
      <point x="878" y="1040"/>
      <point x="763" y="914"/>
    </contour>
  </outline>
</glyph>
<glyph name="less" format="2">
  <advance width="763"/>
  <unicode hex="003C"/>
  <outline>
    <contour>
      <point x="619" y="200" type="line" smooth="yes"/>
      <point x="648" y="188"/>
      <point x="659" y="193"/>
      <point x="670" y="221" type="curve" smooth="yes"/>
      <point x="681" y="250"/>
      <point x="675" y="264"/>
      <point x="655" y="273" type="curve" smooth="yes"/>
      <point x="231" y="449" type="line"/>
      <point x="655" y="625" type="line" smooth="yes"/>
      <point x="676" y="634"/>
      <point x="683" y="648"/>
      <point x="670" y="676" type="curve" smooth="yes"/>
      <point x="659" y="704"/>
      <point x="649" y="710"/>
      <point x="619" y="698" type="curve" smooth="yes"/>
      <point x="131" y="493" type="line" smooth="yes"/>
      <point x="109" y="483"/>
      <point x="100" y="471"/>
      <point x="100" y="449" type="curve" smooth="yes"/>
      <point x="100" y="426"/>
      <point x="109" y="415"/>
      <point x="131" y="405" type="curve" smooth="yes"/>
    </contour>
  </outline>
</glyph>
<glyph name="at" format="2">
  <advance width="958"/>
  <unicode hex="0040"/>
  <outline>
    <contour>
      <point x="304" y="239" type="curve" smooth="yes"/>
      <point x="304" y="123"/>
      <point x="354" y="54"/>
      <point x="433" y="54" type="curve" smooth="yes"/>
      <point x="486" y="54"/>
      <point x="542" y="100"/>
      <point x="571" y="176" type="curve"/>
      <point x="571" y="169"/>
      <point x="571" y="162"/>
      <point x="571" y="155" type="curve" smooth="yes"/>
      <point x="571" y="94"/>
      <point x="610" y="54"/>
      <point x="677" y="54" type="curve" smooth="yes"/>
      <point x="814" y="54"/>
      <point x="913" y="162"/>
      <point x="913" y="311" type="curve"/>
      <point x="913" y="551"/>
      <point x="754" y="698"/>
      <point x="494" y="698" type="curve" smooth="yes"/>
      <point x="242" y="698"/>
      <point x="60" y="512"/>
      <point x="60" y="255" type="curve" smooth="yes"/>
      <point x="60" y="-20"/>
      <point x="221" y="-187"/>
      <point x="484" y="-187" type="curve" smooth="yes"/>
      <point x="565" y="-187"/>
      <point x="646" y="-169"/>
      <point x="710" y="-136" type="curve" smooth="yes"/>
      <point x="723" y="-130"/>
      <point x="726" y="-117"/>
      <point x="716" y="-97" type="curve" smooth="yes"/>
      <point x="708" y="-79"/>
      <point x="695" y="-71"/>
      <point x="683" y="-77" type="curve" smooth="yes"/>
      <point x="624" y="-106"/>
      <point x="555" y="-125"/>
      <point x="484" y="-125" type="curve" smooth="yes"/>
      <point x="262" y="-125"/>
      <point x="126" y="19"/>
      <point x="126" y="255" type="curve" smooth="yes"/>
      <point x="126" y="475"/>
      <point x="281" y="635"/>
      <point x="494" y="635" type="curve" smooth="yes"/>
      <point x="713" y="635"/>
      <point x="846" y="510"/>
      <point x="846" y="306" type="curve" smooth="yes"/>
      <point x="846" y="197"/>
      <point x="782" y="118"/>
      <point x="693" y="118" type="curve" smooth="yes"/>
      <point x="659" y="118"/>
      <point x="646" y="130"/>
      <point x="646" y="194" type="curve" smooth="yes"/>
      <point x="646" y="441" type="line" smooth="yes"/>
      <point x="646" y="456"/>
      <point x="631" y="464"/>
      <point x="606" y="464" type="curve" smooth="yes"/>
      <point x="583" y="464"/>
      <point x="568" y="456"/>
      <point x="568" y="444" type="curve"/>
      <point x="568" y="446" type="line"/>
      <point x="539" y="461"/>
      <point x="510" y="468"/>
      <point x="476" y="468" type="curve" smooth="yes"/>
      <point x="368" y="468"/>
      <point x="304" y="374"/>
    </contour>
    <contour>
      <point x="384" y="240" type="curve" smooth="yes"/>
      <point x="384" y="340"/>
      <point x="421" y="396"/>
      <point x="491" y="396" type="curve" smooth="yes"/>
      <point x="510" y="396"/>
      <point x="539" y="391"/>
      <point x="568" y="378" type="curve"/>
      <point x="568" y="343" type="line"/>
      <point x="546" y="223"/>
      <point x="498" y="128"/>
      <point x="446" y="128" type="curve" smooth="yes"/>
      <point x="399" y="128"/>
      <point x="384" y="174"/>
    </contour>
  </outline>
</glyph>
<glyph name="A" format="2">
  <advance width="1162"/>
  <unicode hex="0041"/>
  <anchor x="581" y="0" name="bottom"/>
  <anchor x="1095" y="0" name="ogonek"/>
  <anchor x="581" y="1424" name="top"/>
  <outline>
    <contour>
      <point x="85" y="-14" type="curve" smooth="yes"/>
      <point x="114" y="-14"/>
      <point x="124" y="-4"/>
      <point x="133" y="23" type="curve" smooth="yes"/>
      <point x="273" y="448" type="line"/>
      <point x="889" y="448" type="line"/>
      <point x="1026" y="23" type="line" smooth="yes"/>
      <point x="1035" y="-4"/>
      <point x="1045" y="-14"/>
      <point x="1075" y="-14" type="curve" smooth="yes"/>
      <point x="1110" y="-14"/>
      <point x="1124" y="4"/>
      <point x="1115" y="31" type="curve" smooth="yes"/>
      <point x="636" y="1475" type="line" smooth="yes"/>
      <point x="626" y="1506"/>
      <point x="611" y="1515"/>
      <point x="581" y="1515" type="curve" smooth="yes"/>
      <point x="550" y="1515"/>
      <point x="535" y="1506"/>
      <point x="525" y="1475" type="curve" smooth="yes"/>
      <point x="46" y="31" type="line" smooth="yes"/>
      <point x="38" y="4"/>
      <point x="50" y="-14"/>
    </contour>
    <contour>
      <point x="299" y="528" type="line"/>
      <point x="581" y="1381" type="line"/>
      <point x="861" y="528" type="line"/>
    </contour>
  </outline>
</glyph>
<glyph name="C" format="2">
  <advance width="1201"/>
  <unicode hex="0043"/>
  <anchor x="683" y="0" name="bottom"/>
  <anchor x="708" y="1424" name="top"/>
  <outline>
    <contour>
      <point x="663" y="-19" type="curve" smooth="yes"/>
      <point x="856" y="-19"/>
      <point x="996" y="129"/>
      <point x="1125" y="338" type="curve" smooth="yes"/>
      <point x="1135" y="354"/>
      <point x="1133" y="365"/>
      <point x="1111" y="379" type="curve" smooth="yes"/>
      <point x="1090" y="393"/>
      <point x="1076" y="396"/>
      <point x="1064" y="379" type="curve" smooth="yes"/>
      <point x="963" y="238"/>
      <point x="838" y="66"/>
      <point x="663" y="66" type="curve" smooth="yes"/>
      <point x="421" y="66"/>
      <point x="231" y="305"/>
      <point x="231" y="728" type="curve" smooth="yes"/>
      <point x="231" y="1150"/>
      <point x="436" y="1430"/>
      <point x="719" y="1430" type="curve" smooth="yes"/>
      <point x="853" y="1430"/>
      <point x="931" y="1386"/>
      <point x="1030" y="1279" type="curve" smooth="yes"/>
      <point x="1043" y="1266"/>
      <point x="1058" y="1271"/>
      <point x="1076" y="1288" type="curve" smooth="yes"/>
      <point x="1090" y="1300"/>
      <point x="1099" y="1310"/>
      <point x="1088" y="1326" type="curve" smooth="yes"/>
      <point x="991" y="1460"/>
      <point x="869" y="1515"/>
      <point x="721" y="1515" type="curve" smooth="yes"/>
      <point x="375" y="1515"/>
      <point x="138" y="1190"/>
      <point x="138" y="728" type="curve" smooth="yes"/>
      <point x="138" y="265"/>
      <point x="358" y="-19"/>
    </contour>
  </outline>
</glyph>
<glyph name="M" format="2">
  <advance width="1625"/>
  <unicode hex="004D"/>
  <anchor x="814" y="0" name="bottom"/>
  <anchor x="814" y="1424" name="top"/>
  <outline>
    <contour>
      <point x="260" y="-14" type="curve" smooth="yes"/>
      <point x="289" y="-14"/>
      <point x="304" y="-5"/>
      <point x="304" y="14" type="curve" smooth="yes"/>
      <point x="304" y="1310" type="line"/>
      <point x="766" y="443" type="line" smooth="yes"/>
      <point x="776" y="423"/>
      <point x="789" y="420"/>
      <point x="815" y="420" type="curve" smooth="yes"/>
      <point x="840" y="420"/>
      <point x="851" y="425"/>
      <point x="860" y="443" type="curve" smooth="yes"/>
      <point x="1321" y="1309" type="line"/>
      <point x="1321" y="14" type="line" smooth="yes"/>
      <point x="1321" y="-5"/>
      <point x="1336" y="-14"/>
      <point x="1365" y="-14" type="curve" smooth="yes"/>
      <point x="1394" y="-14"/>
      <point x="1409" y="-5"/>
      <point x="1409" y="14" type="curve" smooth="yes"/>
      <point x="1409" y="1488" type="line" smooth="yes"/>
      <point x="1409" y="1506"/>
      <point x="1394" y="1515"/>
      <point x="1365" y="1515" type="curve" smooth="yes"/>
      <point x="1339" y="1515"/>
      <point x="1330" y="1504"/>
      <point x="1321" y="1488" type="curve" smooth="yes"/>
      <point x="814" y="531" type="line"/>
      <point x="304" y="1488" type="line" smooth="yes"/>
      <point x="295" y="1504"/>
      <point x="286" y="1515"/>
      <point x="260" y="1515" type="curve" smooth="yes"/>
      <point x="231" y="1515"/>
      <point x="216" y="1506"/>
      <point x="216" y="1488" type="curve" smooth="yes"/>
      <point x="216" y="14" type="line" smooth="yes"/>
      <point x="216" y="-5"/>
      <point x="231" y="-14"/>
    </contour>
  </outline>
</glyph>
<glyph name="S" format="2">
  <advance width="1066"/>
  <unicode hex="0053"/>
  <anchor x="534" y="0" name="bottom"/>
  <anchor x="560" y="1424" name="top"/>
  <outline>
    <contour>
      <point x="535" y="-19" type="curve" smooth="yes"/>
      <point x="788" y="-19"/>
      <point x="950" y="155"/>
      <point x="950" y="385" type="curve" smooth="yes"/>
      <point x="950" y="645"/>
      <point x="748" y="740"/>
      <point x="558" y="824" type="curve" smooth="yes"/>
      <point x="394" y="896"/>
      <point x="266" y="960"/>
      <point x="264" y="1154" type="curve" smooth="yes"/>
      <point x="261" y="1319"/>
      <point x="373" y="1430"/>
      <point x="551" y="1430" type="curve" smooth="yes"/>
      <point x="696" y="1430"/>
      <point x="776" y="1365"/>
      <point x="853" y="1280" type="curve" smooth="yes"/>
      <point x="869" y="1263"/>
      <point x="886" y="1265"/>
      <point x="905" y="1283" type="curve" smooth="yes"/>
      <point x="923" y="1300"/>
      <point x="926" y="1315"/>
      <point x="910" y="1335" type="curve" smooth="yes"/>
      <point x="815" y="1451"/>
      <point x="701" y="1515"/>
      <point x="551" y="1515" type="curve" smooth="yes"/>
      <point x="340" y="1515"/>
      <point x="171" y="1383"/>
      <point x="171" y="1156" type="curve" smooth="yes"/>
      <point x="171" y="899"/>
      <point x="354" y="815"/>
      <point x="533" y="734" type="curve" smooth="yes"/>
      <point x="713" y="651"/>
      <point x="858" y="584"/>
      <point x="858" y="383" type="curve" smooth="yes"/>
      <point x="858" y="199"/>
      <point x="735" y="66"/>
      <point x="535" y="66" type="curve" smooth="yes"/>
      <point x="380" y="66"/>
      <point x="265" y="143"/>
      <point x="190" y="228" type="curve" smooth="yes"/>
      <point x="168" y="253"/>
      <point x="156" y="258"/>
      <point x="133" y="236" type="curve" smooth="yes"/>
      <point x="110" y="216"/>
      <point x="111" y="200"/>
      <point x="128" y="179" type="curve" smooth="yes"/>
      <point x="218" y="60"/>
      <point x="361" y="-19"/>
    </contour>
  </outline>
</glyph>
<glyph name="T" format="2">
  <advance width="1070"/>
  <unicode hex="0054"/>
  <anchor x="525" y="0" name="bottom"/>
  <anchor x="535" y="744" name="center"/>
  <anchor x="535" y="1424" name="top"/>
  <outline>
    <contour>
      <point x="535" y="-15" type="curve" smooth="yes"/>
      <point x="564" y="-15"/>
      <point x="579" y="-6"/>
      <point x="579" y="13" type="curve" smooth="yes"/>
      <point x="579" y="1408" type="line"/>
      <point x="1008" y="1408" type="line" smooth="yes"/>
      <point x="1028" y="1408"/>
      <point x="1035" y="1418"/>
      <point x="1035" y="1448" type="curve" smooth="yes"/>
      <point x="1035" y="1478"/>
      <point x="1028" y="1488"/>
      <point x="1008" y="1488" type="curve" smooth="yes"/>
      <point x="63" y="1488" type="line" smooth="yes"/>
      <point x="43" y="1488"/>
      <point x="35" y="1478"/>
      <point x="35" y="1448" type="curve" smooth="yes"/>
      <point x="35" y="1418"/>
      <point x="43" y="1408"/>
      <point x="63" y="1408" type="curve" smooth="yes"/>
      <point x="491" y="1408" type="line"/>
      <point x="491" y="13" type="line" smooth="yes"/>
      <point x="491" y="-6"/>
      <point x="506" y="-15"/>
    </contour>
  </outline>
</glyph>
<glyph name="underscore" format="2">
  <advance width="550"/>
  <unicode hex="005F"/>
  <outline>
    <contour>
      <point x="63" y="-136" type="curve" smooth="yes"/>
      <point x="488" y="-136" type="line" smooth="yes"/>
      <point x="508" y="-136"/>
      <point x="515" y="-126"/>
      <point x="515" y="-96" type="curve" smooth="yes"/>
      <point x="515" y="-66"/>
      <point x="508" y="-56"/>
      <point x="488" y="-56" type="curve" smooth="yes"/>
      <point x="63" y="-56" type="line" smooth="yes"/>
      <point x="43" y="-56"/>
      <point x="35" y="-66"/>
      <point x="35" y="-96" type="curve" smooth="yes"/>
      <point x="35" y="-126"/>
      <point x="43" y="-136"/>
    </contour>
  </outline>
</glyph>
<glyph name="l" format="2">
  <advance width="310"/>
  <unicode hex="006C"/>
  <anchor x="177" y="746" name="CAT"/>
  <anchor x="199" y="0" name="bottom"/>
  <anchor x="140" y="713" name="center"/>
  <anchor x="149" y="1424" name="top"/>
  <anchor x="159" y="1500" name="topright"/>
  <outline>
    <contour>
      <point x="189" y="-17" type="curve" smooth="yes"/>
      <point x="240" y="-17"/>
      <point x="277" y="23"/>
      <point x="301" y="89" type="curve" smooth="yes"/>
      <point x="306" y="101"/>
      <point x="299" y="114"/>
      <point x="280" y="120" type="curve" smooth="yes"/>
      <point x="261" y="126"/>
      <point x="250" y="123"/>
      <point x="245" y="111" type="curve" smooth="yes"/>
      <point x="227" y="75"/>
      <point x="217" y="61"/>
      <point x="204" y="61" type="curve" smooth="yes"/>
      <point x="186" y="61"/>
      <point x="181" y="71"/>
      <point x="181" y="106" type="curve" smooth="yes"/>
      <point x="181" y="1489" type="line" smooth="yes"/>
      <point x="181" y="1506"/>
      <point x="166" y="1515"/>
      <point x="137" y="1515" type="curve" smooth="yes"/>
      <point x="109" y="1515"/>
      <point x="95" y="1506"/>
      <point x="95" y="1489" type="curve" smooth="yes"/>
      <point x="95" y="93" type="line" smooth="yes"/>
      <point x="95" y="20"/>
      <point x="127" y="-17"/>
    </contour>
  </outline>
</glyph>
<glyph name="r" format="2">
  <advance width="454"/>
  <unicode hex="0072"/>
  <anchor x="130" y="0" name="bottom"/>
  <anchor x="261" y="500" name="top"/>
  <outline>
    <contour>
      <point x="136" y="-15" type="curve" smooth="yes"/>
      <point x="165" y="-15"/>
      <point x="180" y="-6"/>
      <point x="180" y="11" type="curve" smooth="yes"/>
      <point x="180" y="90" type="line"/>
      <point x="201" y="291"/>
      <point x="281" y="440"/>
      <point x="348" y="440" type="curve" smooth="yes"/>
      <point x="366" y="440"/>
      <point x="380" y="433"/>
      <point x="396" y="424" type="curve" smooth="yes"/>
      <point x="410" y="416"/>
      <point x="425" y="419"/>
      <point x="439" y="438" type="curve" smooth="yes"/>
      <point x="450" y="453"/>
      <point x="451" y="469"/>
      <point x="445" y="478" type="curve" smooth="yes"/>
      <point x="429" y="501"/>
      <point x="390" y="519"/>
      <point x="356" y="519" type="curve" smooth="yes"/>
      <point x="301" y="519"/>
      <point x="228" y="465"/>
      <point x="180" y="319" type="curve"/>
      <point x="180" y="489" type="line" smooth="yes"/>
      <point x="180" y="506"/>
      <point x="165" y="515"/>
      <point x="136" y="515" type="curve" smooth="yes"/>
      <point x="108" y="515"/>
      <point x="94" y="506"/>
      <point x="94" y="489" type="curve" smooth="yes"/>
      <point x="94" y="11" type="line" smooth="yes"/>
      <point x="94" y="-6"/>
      <point x="108" y="-15"/>
    </contour>
  </outline>
</glyph>
<glyph name="y" format="2">
  <advance width="612"/>
  <unicode hex="0079"/>
  <anchor x="617" y="0" name="bottom"/>
  <anchor x="308" y="500" name="top"/>
  <outline>
    <contour>
      <point x="231" y="-17" type="curve" smooth="yes"/>
      <point x="296" y="-17"/>
      <point x="380" y="36"/>
      <point x="431" y="188" type="curve"/>
      <point x="431" y="-772" type="line" smooth="yes"/>
      <point x="431" y="-896"/>
      <point x="408" y="-941"/>
      <point x="324" y="-941" type="curve" smooth="yes"/>
      <point x="271" y="-941"/>
      <point x="231" y="-924"/>
      <point x="178" y="-885" type="curve" smooth="yes"/>
      <point x="155" y="-869"/>
      <point x="146" y="-871"/>
      <point x="126" y="-889" type="curve" smooth="yes"/>
      <point x="103" y="-910"/>
      <point x="108" y="-926"/>
      <point x="124" y="-942" type="curve" smooth="yes"/>
      <point x="164" y="-982"/>
      <point x="246" y="-1019"/>
      <point x="324" y="-1019" type="curve" smooth="yes"/>
      <point x="456" y="-1019"/>
      <point x="518" y="-940"/>
      <point x="518" y="-775" type="curve" smooth="yes"/>
      <point x="518" y="489" type="line" smooth="yes"/>
      <point x="518" y="506"/>
      <point x="503" y="515"/>
      <point x="474" y="515" type="curve" smooth="yes"/>
      <point x="445" y="515"/>
      <point x="431" y="506"/>
      <point x="431" y="489" type="curve" smooth="yes"/>
      <point x="431" y="413" type="line"/>
      <point x="403" y="209"/>
      <point x="338" y="61"/>
      <point x="244" y="61" type="curve" smooth="yes"/>
      <point x="196" y="61"/>
      <point x="180" y="91"/>
      <point x="180" y="155" type="curve" smooth="yes"/>
      <point x="180" y="489" type="line" smooth="yes"/>
      <point x="180" y="506"/>
      <point x="165" y="515"/>
      <point x="136" y="515" type="curve" smooth="yes"/>
      <point x="108" y="515"/>
      <point x="94" y="506"/>
      <point x="94" y="489" type="curve" smooth="yes"/>
      <point x="94" y="145" type="line" smooth="yes"/>
      <point x="94" y="20"/>
      <point x="158" y="-17"/>
    </contour>
  </outline>
</glyph>
<glyph name="asciitilde" format="2">
  <advance width="763"/>
  <unicode hex="007E"/>
  <outline>
    <contour>
      <point x="516" y="316" type="curve" smooth="yes"/>
      <point x="608" y="316"/>
      <point x="688" y="380"/>
      <point x="688" y="506" type="curve" smooth="yes"/>
      <point x="688" y="535"/>
      <point x="675" y="545"/>
      <point x="645" y="545" type="curve" smooth="yes"/>
      <point x="615" y="545"/>
      <point x="603" y="534"/>
      <point x="603" y="508" type="curve" smooth="yes"/>
      <point x="603" y="430"/>
      <point x="560" y="400"/>
      <point x="516" y="400" type="curve" smooth="yes"/>
      <point x="485" y="400"/>
      <point x="460" y="418"/>
      <point x="420" y="463" type="curve" smooth="yes"/>
      <point x="374" y="514"/>
      <point x="329" y="556"/>
      <point x="248" y="556" type="curve" smooth="yes"/>
      <point x="156" y="556"/>
      <point x="75" y="493"/>
      <point x="75" y="366" type="curve" smooth="yes"/>
      <point x="75" y="338"/>
      <point x="88" y="328"/>
      <point x="118" y="328" type="curve" smooth="yes"/>
      <point x="148" y="328"/>
      <point x="160" y="339"/>
      <point x="160" y="365" type="curve" smooth="yes"/>
      <point x="160" y="443"/>
      <point x="204" y="473"/>
      <point x="248" y="473" type="curve" smooth="yes"/>
      <point x="280" y="473"/>
      <point x="305" y="456"/>
      <point x="344" y="413" type="curve" smooth="yes"/>
      <point x="390" y="360"/>
      <point x="434" y="316"/>
    </contour>
  </outline>
</glyph>
<glyph name="cent" format="2">
  <advance width="821"/>
  <unicode hex="00A2"/>
  <outline>
    <contour>
      <point x="414" y="-19" type="curve" smooth="yes"/>
      <point x="521" y="-19"/>
      <point x="626" y="55"/>
      <point x="730" y="201" type="curve" smooth="yes"/>
      <point x="740" y="220"/>
      <point x="738" y="235"/>
      <point x="718" y="248" type="curve" smooth="yes"/>
      <point x="699" y="261"/>
      <point x="684" y="260"/>
      <point x="670" y="243" type="curve" smooth="yes"/>
      <point x="576" y="123"/>
      <point x="503" y="61"/>
      <point x="414" y="61" type="curve" smooth="yes"/>
      <point x="266" y="61"/>
      <point x="176" y="198"/>
      <point x="176" y="423" type="curve" smooth="yes"/>
      <point x="176" y="659"/>
      <point x="276" y="803"/>
      <point x="440" y="803" type="curve" smooth="yes"/>
      <point x="526" y="803"/>
      <point x="579" y="771"/>
      <point x="645" y="704" type="curve" smooth="yes"/>
      <point x="659" y="690"/>
      <point x="671" y="691"/>
      <point x="689" y="706" type="curve" smooth="yes"/>
      <point x="708" y="724"/>
      <point x="710" y="736"/>
      <point x="699" y="750" type="curve" smooth="yes"/>
      <point x="633" y="833"/>
      <point x="533" y="883"/>
      <point x="440" y="883" type="curve" smooth="yes"/>
      <point x="221" y="883"/>
      <point x="88" y="709"/>
      <point x="88" y="423" type="curve" smooth="yes"/>
      <point x="88" y="149"/>
      <point x="210" y="-19"/>
    </contour>
    <contour>
      <point x="428" y="-150" type="curve" smooth="yes"/>
      <point x="454" y="-150"/>
      <point x="468" y="-141"/>
      <point x="468" y="-122" type="curve" smooth="yes"/>
      <point x="468" y="990" type="line" smooth="yes"/>
      <point x="468" y="1009"/>
      <point x="454" y="1018"/>
      <point x="428" y="1018" type="curve" smooth="yes"/>
      <point x="401" y="1018"/>
      <point x="388" y="1009"/>
      <point x="388" y="990" type="curve" smooth="yes"/>
      <point x="388" y="-122" type="line" smooth="yes"/>
      <point x="388" y="-141"/>
      <point x="401" y="-150"/>
    </contour>
  </outline>
</glyph>
<glyph name="section" format="2">
  <advance width="1033"/>
  <unicode hex="00A7"/>
  <outline>
    <contour>
      <point x="503" y="-670" type="curve" smooth="yes"/>
      <point x="705" y="-670"/>
      <point x="895" y="-524"/>
      <point x="895" y="-267" type="curve" smooth="yes"/>
      <point x="895" y="-124"/>
      <point x="833" y="-31"/>
      <point x="746" y="39" type="curve"/>
      <point x="863" y="123"/>
      <point x="946" y="243"/>
      <point x="946" y="401" type="curve" smooth="yes"/>
      <point x="946" y="866"/>
      <point x="266" y="784"/>
      <point x="266" y="1156" type="curve" smooth="yes"/>
      <point x="266" y="1329"/>
      <point x="354" y="1430"/>
      <point x="525" y="1430" type="curve" smooth="yes"/>
      <point x="631" y="1430"/>
      <point x="739" y="1376"/>
      <point x="844" y="1269" type="curve"/>
      <point x="854" y="1256"/>
      <point x="869" y="1260"/>
      <point x="889" y="1279" type="curve" smooth="yes"/>
      <point x="906" y="1295"/>
      <point x="909" y="1310"/>
      <point x="898" y="1321" type="curve" smooth="yes"/>
      <point x="778" y="1450"/>
      <point x="651" y="1515"/>
      <point x="524" y="1515" type="curve" smooth="yes"/>
      <point x="321" y="1515"/>
      <point x="174" y="1379"/>
      <point x="174" y="1156" type="curve" smooth="yes"/>
      <point x="174" y="1027"/>
      <point x="231" y="942"/>
      <point x="312" y="877" type="curve"/>
      <point x="191" y="791"/>
      <point x="109" y="670"/>
      <point x="109" y="514" type="curve" smooth="yes"/>
      <point x="109" y="50"/>
      <point x="803" y="138"/>
      <point x="803" y="-267" type="curve" smooth="yes"/>
      <point x="803" y="-471"/>
      <point x="661" y="-585"/>
      <point x="504" y="-585" type="curve" smooth="yes"/>
      <point x="369" y="-585"/>
      <point x="251" y="-520"/>
      <point x="166" y="-424" type="curve" smooth="yes"/>
      <point x="148" y="-402"/>
      <point x="134" y="-402"/>
      <point x="113" y="-424" type="curve" smooth="yes"/>
      <point x="95" y="-440"/>
      <point x="91" y="-454"/>
      <point x="103" y="-467" type="curve"/>
      <point x="195" y="-589"/>
      <point x="333" y="-670"/>
    </contour>
    <contour>
      <point x="686" y="82" type="curve"/>
      <point x="482" y="213"/>
      <point x="201" y="268"/>
      <point x="201" y="514" type="curve" smooth="yes"/>
      <point x="201" y="646"/>
      <point x="266" y="758"/>
      <point x="372" y="834" type="curve"/>
      <point x="572" y="706"/>
      <point x="854" y="650"/>
      <point x="854" y="401" type="curve" smooth="yes"/>
      <point x="854" y="265"/>
      <point x="785" y="156"/>
    </contour>
  </outline>
</glyph>
<glyph name="copyright" format="2">
  <advance width="1406"/>
  <unicode hex="00A9"/>
  <outline>
    <contour>
      <point x="703" y="119" type="curve" smooth="yes"/>
      <point x="1028" y="119"/>
      <point x="1264" y="378"/>
      <point x="1264" y="734" type="curve" smooth="yes"/>
      <point x="1264" y="1090"/>
      <point x="1028" y="1348"/>
      <point x="703" y="1348" type="curve" smooth="yes"/>
      <point x="378" y="1348"/>
      <point x="143" y="1090"/>
      <point x="143" y="734" type="curve" smooth="yes"/>
      <point x="143" y="378"/>
      <point x="378" y="119"/>
    </contour>
    <contour>
      <point x="703" y="169" type="curve" smooth="yes"/>
      <point x="410" y="169"/>
      <point x="198" y="406"/>
      <point x="198" y="734" type="curve" smooth="yes"/>
      <point x="198" y="1061"/>
      <point x="410" y="1298"/>
      <point x="703" y="1298" type="curve" smooth="yes"/>
      <point x="996" y="1298"/>
      <point x="1209" y="1061"/>
      <point x="1209" y="734" type="curve" smooth="yes"/>
      <point x="1209" y="406"/>
      <point x="996" y="169"/>
    </contour>
    <contour>
      <point x="694" y="389" type="curve" smooth="yes"/>
      <point x="773" y="389"/>
      <point x="845" y="441"/>
      <point x="910" y="545" type="curve" smooth="yes"/>
      <point x="918" y="558"/>
      <point x="915" y="569"/>
      <point x="900" y="579" type="curve" smooth="yes"/>
      <point x="884" y="590"/>
      <point x="870" y="589"/>
      <point x="860" y="574" type="curve" smooth="yes"/>
      <point x="810" y="499"/>
      <point x="755" y="460"/>
      <point x="698" y="460" type="curve" smooth="yes"/>
      <point x="596" y="460"/>
      <point x="534" y="555"/>
      <point x="534" y="713" type="curve" smooth="yes"/>
      <point x="534" y="900"/>
      <point x="605" y="1014"/>
      <point x="721" y="1014" type="curve" smooth="yes"/>
      <point x="766" y="1014"/>
      <point x="811" y="1000"/>
      <point x="853" y="968" type="curve" smooth="yes"/>
      <point x="866" y="956"/>
      <point x="878" y="951"/>
      <point x="891" y="964" type="curve" smooth="yes"/>
      <point x="908" y="978"/>
      <point x="911" y="990"/>
      <point x="900" y="1003" type="curve" smooth="yes"/>
      <point x="849" y="1059"/>
      <point x="785" y="1084"/>
      <point x="725" y="1084" type="curve" smooth="yes"/>
      <point x="558" y="1084"/>
      <point x="456" y="944"/>
      <point x="456" y="713" type="curve" smooth="yes"/>
      <point x="456" y="511"/>
      <point x="546" y="389"/>
    </contour>
  </outline>
</glyph>
<glyph name="AE" format="2">
  <advance width="1493"/>
  <unicode hex="00C6"/>
  <anchor x="1075" y="1424" name="top"/>
  <outline>
    <contour>
      <point x="1398" y="0" type="line" smooth="yes"/>
      <point x="1418" y="0"/>
      <point x="1425" y="10"/>
      <point x="1425" y="40" type="curve" smooth="yes"/>
      <point x="1425" y="70"/>
      <point x="1418" y="80"/>
      <point x="1398" y="80" type="curve" smooth="yes"/>
      <point x="850" y="80" type="line"/>
      <point x="850" y="704" type="line"/>
      <point x="1300" y="704" type="line" smooth="yes"/>
      <point x="1320" y="704"/>
      <point x="1328" y="714"/>
      <point x="1328" y="744" type="curve" smooth="yes"/>
      <point x="1328" y="774"/>
      <point x="1320" y="784"/>
      <point x="1300" y="784" type="curve" smooth="yes"/>
      <point x="850" y="784" type="line"/>
      <point x="850" y="1408" type="line"/>
      <point x="1398" y="1408" type="line" smooth="yes"/>
      <point x="1418" y="1408"/>
      <point x="1425" y="1418"/>
      <point x="1425" y="1448" type="curve" smooth="yes"/>
      <point x="1425" y="1478"/>
      <point x="1418" y="1488"/>
      <point x="1398" y="1488" type="curve" smooth="yes"/>
      <point x="755" y="1488" type="line" smooth="yes"/>
      <point x="718" y="1488"/>
      <point x="708" y="1481"/>
      <point x="695" y="1453" type="curve" smooth="yes"/>
      <point x="39" y="36" type="line" smooth="yes"/>
      <point x="30" y="18"/>
      <point x="39" y="0"/>
      <point x="60" y="-10" type="curve" smooth="yes"/>
      <point x="85" y="-21"/>
      <point x="105" y="-16"/>
      <point x="114" y="1" type="curve" smooth="yes"/>
      <point x="438" y="704" type="line"/>
      <point x="763" y="704" type="line"/>
      <point x="763" y="40" type="line" smooth="yes"/>
      <point x="763" y="13"/>
      <point x="778" y="0"/>
      <point x="806" y="0" type="curve" smooth="yes"/>
    </contour>
    <contour>
      <point x="475" y="784" type="line"/>
      <point x="763" y="1410" type="line"/>
      <point x="763" y="784" type="line"/>
    </contour>
  </outline>
</glyph>
<glyph name="thorn" format="2">
  <advance width="598"/>
  <unicode hex="00FE"/>
  <outline>
    <contour>
      <point x="143" y="-1015" type="curve" smooth="yes"/>
      <point x="171" y="-1015"/>
      <point x="186" y="-1006"/>
      <point x="186" y="-989" type="curve" smooth="yes"/>
      <point x="186" y="13" type="line"/>
      <point x="224" y="-7"/>
      <point x="261" y="-17"/>
      <point x="298" y="-17" type="curve" smooth="yes"/>
      <point x="456" y="-17"/>
      <point x="535" y="104"/>
      <point x="535" y="279" type="curve" smooth="yes"/>
      <point x="535" y="430"/>
      <point x="473" y="519"/>
      <point x="369" y="519" type="curve" smooth="yes"/>
      <point x="294" y="519"/>
      <point x="230" y="473"/>
      <point x="186" y="354" type="curve"/>
      <point x="186" y="1489" type="line" smooth="yes"/>
      <point x="186" y="1506"/>
      <point x="171" y="1515"/>
      <point x="143" y="1515" type="curve" smooth="yes"/>
      <point x="114" y="1515"/>
      <point x="100" y="1506"/>
      <point x="100" y="1489" type="curve" smooth="yes"/>
      <point x="100" y="-989" type="line" smooth="yes"/>
      <point x="100" y="-1006"/>
      <point x="114" y="-1015"/>
    </contour>
    <contour>
      <point x="186" y="90" type="curve"/>
      <point x="186" y="166" type="line"/>
      <point x="221" y="369"/>
      <point x="284" y="439"/>
      <point x="354" y="439" type="curve" smooth="yes"/>
      <point x="424" y="439"/>
      <point x="446" y="363"/>
      <point x="446" y="278" type="curve" smooth="yes"/>
      <point x="446" y="138"/>
      <point x="391" y="58"/>
      <point x="294" y="58" type="curve" smooth="yes"/>
      <point x="266" y="58"/>
      <point x="226" y="66"/>
    </contour>
  </outline>
</glyph>
<glyph name="Uhorn" format="2">
  <advance width="1336"/>
  <unicode hex="01AF"/>
  <anchor x="669" y="0" name="bottom"/>
  <anchor x="896" y="21" name="ogonek"/>
  <anchor x="669" y="1424" name="top"/>
  <anchor x="1096" y="1509" name="topright"/>
  <outline>
    <contour>
      <point x="1305" y="1676" type="curve" smooth="yes"/>
      <point x="1296" y="1721"/>
      <point x="1211" y="1714"/>
      <point x="1217" y="1669" type="curve" smooth="yes"/>
      <point x="1231" y="1575"/>
      <point x="1232" y="1519"/>
      <point x="1096" y="1509" type="curve"/>
      <point x="1096" y="1446" type="line"/>
      <point x="1291" y="1446"/>
      <point x="1326" y="1564"/>
    </contour>
    <component base="U"/>
  </outline>
</glyph>
<glyph name="jdotless" format="2">
  <advance width="268"/>
  <unicode hex="0237"/>
  <anchor x="130" y="500" name="top"/>
  <outline>
    <contour>
      <point x="54" y="-1019" type="curve" smooth="yes"/>
      <point x="116" y="-1019"/>
      <point x="175" y="-984"/>
      <point x="175" y="-872" type="curve" smooth="yes"/>
      <point x="175" y="489" type="line" smooth="yes"/>
      <point x="175" y="506"/>
      <point x="160" y="515"/>
      <point x="131" y="515" type="curve" smooth="yes"/>
      <point x="103" y="515"/>
      <point x="89" y="506"/>
      <point x="89" y="489" type="curve" smooth="yes"/>
      <point x="89" y="-876" type="line" smooth="yes"/>
      <point x="89" y="-915"/>
      <point x="85" y="-944"/>
      <point x="56" y="-944" type="curve" smooth="yes"/>
      <point x="23" y="-944"/>
      <point x="5" y="-925"/>
      <point x="-14" y="-905" type="curve" smooth="yes"/>
      <point x="-27" y="-889"/>
      <point x="-42" y="-887"/>
      <point x="-65" y="-904" type="curve" smooth="yes"/>
      <point x="-81" y="-915"/>
      <point x="-94" y="-932"/>
      <point x="-79" y="-951" type="curve" smooth="yes"/>
      <point x="-42" y="-995"/>
      <point x="-1" y="-1019"/>
    </contour>
  </outline>
</glyph>
<glyph name="hookabovecomb" format="2">
  <unicode hex="0309"/>
  <anchor x="0" y="500" name="_top"/>
  <anchor x="0" y="818" name="top"/>
  <outline>
    <contour>
      <point x="10" y="860" type="curve" smooth="yes"/>
      <point x="-32" y="860"/>
      <point x="-70" y="846"/>
      <point x="-95" y="828" type="curve" smooth="yes"/>
      <point x="-107" y="818"/>
      <point x="-109" y="803"/>
      <point x="-101" y="789" type="curve" smooth="yes"/>
      <point x="-90" y="769"/>
      <point x="-76" y="761"/>
      <point x="-59" y="773" type="curve" smooth="yes"/>
      <point x="-47" y="780"/>
      <point x="-24" y="788"/>
      <point x="-6" y="788" type="curve" smooth="yes"/>
      <point x="11" y="788"/>
      <point x="25" y="780"/>
      <point x="25" y="768" type="curve" smooth="yes"/>
      <point x="25" y="758"/>
      <point x="20" y="748"/>
      <point x="0" y="734" type="curve" smooth="yes"/>
      <point x="-25" y="716"/>
      <point x="-42" y="690"/>
      <point x="-30" y="655" type="curve" smooth="yes"/>
      <point x="-19" y="625" type="line" smooth="yes"/>
      <point x="-7" y="596"/>
      <point x="56" y="613"/>
      <point x="50" y="641" type="curve" smooth="yes"/>
      <point x="48" y="653" type="line" smooth="yes"/>
      <point x="45" y="665"/>
      <point x="50" y="675"/>
      <point x="68" y="689" type="curve" smooth="yes"/>
      <point x="103" y="715"/>
      <point x="119" y="738"/>
      <point x="119" y="774" type="curve" smooth="yes"/>
      <point x="119" y="825"/>
      <point x="76" y="860"/>
    </contour>
  </outline>
</glyph>
<glyph name="commaturnedabovecomb" format="2">
  <unicode hex="0312"/>
  <anchor x="0" y="500" name="_top"/>
  <anchor x="0" y="818" name="top"/>
  <outline>
    <contour>
      <point x="51" y="845" type="curve" smooth="yes"/>
      <point x="30" y="853"/>
      <point x="19" y="850"/>
      <point x="5" y="829" type="curve" smooth="yes"/>
      <point x="-26" y="780"/>
      <point x="-49" y="714"/>
      <point x="-49" y="663" type="curve" smooth="yes"/>
      <point x="-49" y="638"/>
      <point x="-31" y="621"/>
      <point x="-1" y="621" type="curve" smooth="yes"/>
      <point x="24" y="621"/>
      <point x="38" y="630"/>
      <point x="38" y="653" type="curve" smooth="yes"/>
      <point x="38" y="713"/>
      <point x="40" y="748"/>
      <point x="64" y="809" type="curve" smooth="yes"/>
      <point x="71" y="829"/>
      <point x="68" y="839"/>
    </contour>
  </outline>
</glyph>
<glyph name="quoteleft" format="2">
  <advance width="181"/>
  <unicode hex="2018"/>
  <outline>
    <contour>
      <point x="93" y="1223" type="curve" smooth="yes"/>
      <point x="121" y="1223"/>
      <point x="140" y="1235"/>
      <point x="140" y="1260" type="curve" smooth="yes"/>
      <point x="140" y="1379"/>
      <point x="139" y="1418"/>
      <point x="174" y="1489" type="curve" smooth="yes"/>
      <point x="180" y="1500"/>
      <point x="184" y="1509"/>
      <point x="184" y="1514" type="curve" smooth="yes"/>
      <point x="184" y="1531"/>
      <point x="164" y="1545"/>
      <point x="145" y="1545" type="curve" smooth="yes"/>
      <point x="131" y="1545"/>
      <point x="123" y="1536"/>
      <point x="116" y="1529" type="curve" smooth="yes"/>
      <point x="56" y="1456"/>
      <point x="44" y="1349"/>
      <point x="44" y="1263" type="curve" smooth="yes"/>
      <point x="44" y="1238"/>
      <point x="63" y="1223"/>
    </contour>
  </outline>
</glyph>
<glyph name="euro" format="2">
  <advance width="1201"/>
  <unicode hex="20AC"/>
  <outline>
    <contour>
      <point x="663" y="-19" type="curve" smooth="yes"/>
      <point x="856" y="-19"/>
      <point x="996" y="129"/>
      <point x="1125" y="338" type="curve" smooth="yes"/>
      <point x="1135" y="354"/>
      <point x="1133" y="365"/>
      <point x="1111" y="379" type="curve" smooth="yes"/>
      <point x="1090" y="393"/>
      <point x="1076" y="396"/>
      <point x="1064" y="379" type="curve" smooth="yes"/>
      <point x="963" y="238"/>
      <point x="838" y="66"/>
      <point x="663" y="66" type="curve" smooth="yes"/>
      <point x="421" y="66"/>
      <point x="231" y="305"/>
      <point x="231" y="728" type="curve" smooth="yes"/>
      <point x="231" y="1150"/>
      <point x="436" y="1430"/>
      <point x="719" y="1430" type="curve" smooth="yes"/>
      <point x="853" y="1430"/>
      <point x="931" y="1386"/>
      <point x="1030" y="1279" type="curve" smooth="yes"/>
      <point x="1043" y="1266"/>
      <point x="1058" y="1271"/>
      <point x="1076" y="1288" type="curve" smooth="yes"/>
      <point x="1090" y="1300"/>
      <point x="1099" y="1310"/>
      <point x="1088" y="1326" type="curve" smooth="yes"/>
      <point x="991" y="1460"/>
      <point x="869" y="1515"/>
      <point x="721" y="1515" type="curve" smooth="yes"/>
      <point x="375" y="1515"/>
      <point x="138" y="1190"/>
      <point x="138" y="728" type="curve" smooth="yes"/>
      <point x="138" y="265"/>
      <point x="358" y="-19"/>
    </contour>
    <contour>
      <point x="28" y="800" type="curve" smooth="yes"/>
      <point x="880" y="800" type="line" smooth="yes"/>
      <point x="900" y="800"/>
      <point x="908" y="809"/>
      <point x="908" y="839" type="curve" smooth="yes"/>
      <point x="908" y="869"/>
      <point x="900" y="878"/>
      <point x="880" y="878" type="curve" smooth="yes"/>
      <point x="28" y="878" type="line" smooth="yes"/>
      <point x="8" y="878"/>
      <point x="0" y="869"/>
      <point x="0" y="839" type="curve" smooth="yes"/>
      <point x="0" y="809"/>
      <point x="8" y="800"/>
    </contour>
    <contour>
      <point x="28" y="614" type="curve" smooth="yes"/>
      <point x="880" y="614" type="line" smooth="yes"/>
      <point x="900" y="614"/>
      <point x="908" y="623"/>
      <point x="908" y="653" type="curve" smooth="yes"/>
      <point x="908" y="683"/>
      <point x="900" y="691"/>
      <point x="880" y="691" type="curve" smooth="yes"/>
      <point x="28" y="691" type="line" smooth="yes"/>
      <point x="8" y="691"/>
      <point x="0" y="683"/>
      <point x="0" y="653" type="curve" smooth="yes"/>
      <point x="0" y="623"/>
      <point x="8" y="614"/>
    </contour>
  </outline>
</glyph>
<glyph name="integral" format="2">
  <advance width="647"/>
  <unicode hex="222B"/>
  <outline>
    <contour>
      <point x="38" y="-75" type="curve" smooth="yes"/>
      <point x="196" y="-75"/>
      <point x="236" y="-12"/>
      <point x="257" y="106" type="curve" smooth="yes"/>
      <point x="475" y="1313" type="line" smooth="yes"/>
      <point x="492" y="1406"/>
      <point x="519" y="1432"/>
      <point x="609" y="1432" type="curve" smooth="yes"/>
      <point x="637" y="1432"/>
      <point x="647" y="1444"/>
      <point x="647" y="1471" type="curve" smooth="yes"/>
      <point x="647" y="1500"/>
      <point x="637" y="1507"/>
      <point x="609" y="1507" type="curve" smooth="yes"/>
      <point x="469" y="1507"/>
      <point x="414" y="1461"/>
      <point x="390" y="1326" type="curve" smooth="yes"/>
      <point x="172" y="119" type="line" smooth="yes"/>
      <point x="155" y="24"/>
      <point x="137" y="0"/>
      <point x="38" y="0" type="curve" smooth="yes"/>
      <point x="10" y="0"/>
      <point x="0" y="-12"/>
      <point x="0" y="-39" type="curve" smooth="yes"/>
      <point x="0" y="-68"/>
      <point x="10" y="-75"/>
    </contour>
  </outline>
</glyph>
<glyph name="A.cur_locl" format="2">
  <advance width="1518"/>
  <anchor x="549" y="0" name="bottom"/>
  <anchor x="1366" y="21" name="ogonek"/>
  <anchor x="711" y="1424" name="top"/>
  <outline>
    <contour>
      <point x="550" y="-17" type="curve" smooth="yes"/>
      <point x="781" y="-17"/>
      <point x="988" y="225"/>
      <point x="1089" y="590" type="curve"/>
      <point x="1089" y="216" type="line" smooth="yes"/>
      <point x="1089" y="54"/>
      <point x="1143" y="-19"/>
      <point x="1244" y="-19" type="curve" smooth="yes"/>
      <point x="1338" y="-19"/>
      <point x="1428" y="73"/>
      <point x="1484" y="226" type="curve" smooth="yes"/>
      <point x="1491" y="248"/>
      <point x="1483" y="260"/>
      <point x="1463" y="268" type="curve" smooth="yes"/>
      <point x="1436" y="278"/>
      <point x="1418" y="274"/>
      <point x="1410" y="253" type="curve" smooth="yes"/>
      <point x="1365" y="130"/>
      <point x="1311" y="65"/>
      <point x="1254" y="65" type="curve" smooth="yes"/>
      <point x="1200" y="65"/>
      <point x="1176" y="114"/>
      <point x="1176" y="230" type="curve" smooth="yes"/>
      <point x="1176" y="1488" type="line" smooth="yes"/>
      <point x="1176" y="1506"/>
      <point x="1161" y="1515"/>
      <point x="1133" y="1515" type="curve" smooth="yes"/>
      <point x="1104" y="1515"/>
      <point x="1089" y="1506"/>
      <point x="1089" y="1488" type="curve" smooth="yes"/>
      <point x="1089" y="1365" type="line"/>
      <point x="990" y="1459"/>
      <point x="849" y="1515"/>
      <point x="711" y="1515" type="curve" smooth="yes"/>
      <point x="348" y="1515"/>
      <point x="110" y="1179"/>
      <point x="110" y="665" type="curve" smooth="yes"/>
      <point x="110" y="236"/>
      <point x="274" y="-17"/>
    </contour>
    <contour>
      <point x="204" y="665" type="curve" smooth="yes"/>
      <point x="204" y="1128"/>
      <point x="405" y="1430"/>
      <point x="711" y="1430" type="curve" smooth="yes"/>
      <point x="859" y="1430"/>
      <point x="985" y="1371"/>
      <point x="1089" y="1256" type="curve"/>
      <point x="1089" y="923" type="line"/>
      <point x="1024" y="428"/>
      <point x="800" y="68"/>
      <point x="555" y="68" type="curve" smooth="yes"/>
      <point x="334" y="68"/>
      <point x="204" y="290"/>
    </contour>
  </outline>
</glyph>
<glyph name="A.cur_locl.ini" format="2">
  <advance width="1440"/>
  <anchor x="549" y="0" name="bottom"/>
  <anchor x="1440" y="0" name="cnct"/>
  <anchor x="1366" y="21" name="ogonek"/>
  <anchor x="711" y="1424" name="top"/>
  <outline>
    <contour>
      <point x="550" y="-17" type="curve" smooth="yes"/>
      <point x="781" y="-17"/>
      <point x="988" y="225"/>
      <point x="1089" y="590" type="curve"/>
      <point x="1089" y="575" type="line" smooth="yes"/>
      <point x="1089" y="173"/>
      <point x="1179" y="-17"/>
      <point x="1331" y="-17" type="curve" smooth="yes"/>
      <point x="1381" y="-17"/>
      <point x="1400" y="58"/>
      <point x="1350" y="58" type="curve" smooth="yes"/>
      <point x="1240" y="58"/>
      <point x="1176" y="219"/>
      <point x="1176" y="575" type="curve" smooth="yes"/>
      <point x="1176" y="1488" type="line" smooth="yes"/>
      <point x="1176" y="1506"/>
      <point x="1161" y="1515"/>
      <point x="1133" y="1515" type="curve" smooth="yes"/>
      <point x="1104" y="1515"/>
      <point x="1089" y="1506"/>
      <point x="1089" y="1488" type="curve" smooth="yes"/>
      <point x="1089" y="1365" type="line"/>
      <point x="990" y="1459"/>
      <point x="849" y="1515"/>
      <point x="711" y="1515" type="curve" smooth="yes"/>
      <point x="348" y="1515"/>
      <point x="110" y="1179"/>
      <point x="110" y="665" type="curve" smooth="yes"/>
      <point x="110" y="236"/>
      <point x="274" y="-17"/>
    </contour>
    <contour>
      <point x="204" y="665" type="curve" smooth="yes"/>
      <point x="204" y="1128"/>
      <point x="405" y="1430"/>
      <point x="711" y="1430" type="curve" smooth="yes"/>
      <point x="859" y="1430"/>
      <point x="985" y="1371"/>
      <point x="1089" y="1256" type="curve"/>
      <point x="1089" y="923" type="line"/>
      <point x="1024" y="428"/>
      <point x="800" y="68"/>
      <point x="555" y="68" type="curve" smooth="yes"/>
      <point x="334" y="68"/>
      <point x="204" y="290"/>
    </contour>
  </outline>
</glyph>
<glyph name="A.dec_locl" format="2">
  <advance width="1604"/>
  <anchor x="796" y="0" name="bottom"/>
  <anchor x="1435" y="0" name="ogonek"/>
  <anchor x="859" y="1424" name="top"/>
  <outline>
    <contour>
      <point x="253" y="-17" type="curve" smooth="yes"/>
      <point x="400" y="-17"/>
      <point x="522" y="126"/>
      <point x="635" y="444" type="curve"/>
      <point x="1082" y="444" type="line"/>
      <point x="1096" y="398"/>
      <point x="1110" y="352"/>
      <point x="1124" y="306" type="curve" smooth="yes"/>
      <point x="1200" y="65"/>
      <point x="1250" y="-17"/>
      <point x="1359" y="-17" type="curve" smooth="yes"/>
      <point x="1481" y="-17"/>
      <point x="1570" y="121"/>
      <point x="1631" y="393" type="curve" smooth="yes"/>
      <point x="1638" y="418"/>
      <point x="1625" y="433"/>
      <point x="1601" y="436" type="curve" smooth="yes"/>
      <point x="1575" y="441"/>
      <point x="1559" y="434"/>
      <point x="1554" y="411" type="curve" smooth="yes"/>
      <point x="1499" y="180"/>
      <point x="1430" y="63"/>
      <point x="1361" y="63" type="curve" smooth="yes"/>
      <point x="1301" y="63"/>
      <point x="1264" y="130"/>
      <point x="1204" y="330" type="curve" smooth="yes"/>
      <point x="1096" y="685"/>
      <point x="1005" y="1083"/>
      <point x="934" y="1468" type="curve" smooth="yes"/>
      <point x="926" y="1508"/>
      <point x="904" y="1515"/>
      <point x="866" y="1515" type="curve" smooth="yes"/>
      <point x="830" y="1515"/>
      <point x="805" y="1506"/>
      <point x="798" y="1468" type="curve" smooth="yes"/>
      <point x="609" y="479"/>
      <point x="451" y="64"/>
      <point x="251" y="64" type="curve" smooth="yes"/>
      <point x="205" y="64"/>
      <point x="165" y="90"/>
      <point x="124" y="125" type="curve" smooth="yes"/>
      <point x="106" y="140"/>
      <point x="91" y="139"/>
      <point x="75" y="120" type="curve" smooth="yes"/>
      <point x="59" y="100"/>
      <point x="59" y="84"/>
      <point x="74" y="69" type="curve" smooth="yes"/>
      <point x="129" y="14"/>
      <point x="186" y="-17"/>
    </contour>
    <contour>
      <point x="661" y="521" type="line"/>
      <point x="730" y="735"/>
      <point x="796" y="1017"/>
      <point x="863" y="1374" type="curve"/>
      <point x="918" y="1080"/>
      <point x="984" y="791"/>
      <point x="1060" y="521" type="curve"/>
    </contour>
  </outline>
</glyph>
<glyph name="A.dec_locl.ini" format="2">
  <advance width="1454"/>
  <anchor x="796" y="0" name="bottom"/>
  <anchor x="1454" y="0" name="cnct"/>
  <anchor x="1361" y="0" name="ogonek"/>
  <anchor x="859" y="1424" name="top"/>
  <outline>
    <contour>
      <point x="253" y="-17" type="curve" smooth="yes"/>
      <point x="400" y="-17"/>
      <point x="522" y="126"/>
      <point x="635" y="444" type="curve"/>
      <point x="1082" y="444" type="line"/>
      <point x="1096" y="398"/>
      <point x="1110" y="352"/>
      <point x="1124" y="306" type="curve" smooth="yes"/>
      <point x="1199" y="65"/>
      <point x="1255" y="-17"/>
      <point x="1345" y="-17" type="curve" smooth="yes"/>
      <point x="1395" y="-17"/>
      <point x="1414" y="58"/>
      <point x="1364" y="58" type="curve" smooth="yes"/>
      <point x="1306" y="58"/>
      <point x="1265" y="126"/>
      <point x="1204" y="330" type="curve" smooth="yes"/>
      <point x="1096" y="685"/>
      <point x="1005" y="1083"/>
      <point x="934" y="1468" type="curve" smooth="yes"/>
      <point x="926" y="1508"/>
      <point x="904" y="1515"/>
      <point x="866" y="1515" type="curve" smooth="yes"/>
      <point x="830" y="1515"/>
      <point x="805" y="1506"/>
      <point x="798" y="1468" type="curve" smooth="yes"/>
      <point x="609" y="479"/>
      <point x="451" y="64"/>
      <point x="251" y="64" type="curve" smooth="yes"/>
      <point x="205" y="64"/>
      <point x="165" y="90"/>
      <point x="124" y="125" type="curve" smooth="yes"/>
      <point x="106" y="140"/>
      <point x="91" y="139"/>
      <point x="75" y="120" type="curve" smooth="yes"/>
      <point x="59" y="100"/>
      <point x="59" y="84"/>
      <point x="74" y="69" type="curve" smooth="yes"/>
      <point x="129" y="14"/>
      <point x="186" y="-17"/>
    </contour>
    <contour>
      <point x="661" y="521" type="line"/>
      <point x="730" y="735"/>
      <point x="796" y="1017"/>
      <point x="863" y="1374" type="curve"/>
      <point x="918" y="1080"/>
      <point x="984" y="791"/>
      <point x="1060" y="521" type="curve"/>
    </contour>
  </outline>
</glyph>
<glyph name="C.cur.ini" format="2">
  <advance width="1160"/>
  <anchor x="683" y="0" name="bottom"/>
  <anchor x="1160" y="0" name="cnct"/>
  <anchor x="708" y="1424" name="top"/>
  <outline>
    <contour>
      <point x="714" y="-17" type="curve" smooth="yes"/>
      <point x="754" y="-17"/>
      <point x="754" y="58"/>
      <point x="714" y="58" type="curve" smooth="yes"/>
      <point x="441" y="58"/>
      <point x="231" y="301"/>
      <point x="231" y="728" type="curve" smooth="yes"/>
      <point x="231" y="1149"/>
      <point x="434" y="1430"/>
      <point x="719" y="1430" type="curve" smooth="yes"/>
      <point x="835" y="1430"/>
      <point x="936" y="1386"/>
      <point x="1019" y="1289" type="curve" smooth="yes"/>
      <point x="1036" y="1268"/>
      <point x="1054" y="1269"/>
      <point x="1074" y="1285" type="curve" smooth="yes"/>
      <point x="1091" y="1300"/>
      <point x="1100" y="1314"/>
      <point x="1083" y="1338" type="curve" smooth="yes"/>
      <point x="991" y="1460"/>
      <point x="869" y="1515"/>
      <point x="721" y="1515" type="curve" smooth="yes"/>
      <point x="375" y="1515"/>
      <point x="138" y="1188"/>
      <point x="138" y="728" type="curve" smooth="yes"/>
      <point x="138" y="270"/>
      <point x="379" y="-17"/>
    </contour>
  </outline>
</glyph>
<glyph name="D.cur" format="2">
  <advance width="1547"/>
  <guideline y="-14"/>
  <guideline y="89"/>
  <anchor x="814" y="0" name="bottom"/>
  <anchor x="560" y="744" name="center"/>
  <anchor x="831" y="1424" name="top"/>
  <outline>
    <contour>
      <point x="853" y="-17" type="curve" smooth="yes"/>
      <point x="1185" y="-17"/>
      <point x="1415" y="304"/>
      <point x="1415" y="748" type="curve" smooth="yes"/>
      <point x="1415" y="1230"/>
      <point x="1156" y="1515"/>
      <point x="720" y="1515" type="curve" smooth="yes"/>
      <point x="454" y="1515"/>
      <point x="226" y="1433"/>
      <point x="94" y="1241" type="curve" smooth="yes"/>
      <point x="76" y="1216"/>
      <point x="80" y="1198"/>
      <point x="103" y="1183" type="curve" smooth="yes"/>
      <point x="126" y="1168"/>
      <point x="141" y="1173"/>
      <point x="160" y="1196" type="curve" smooth="yes"/>
      <point x="288" y="1364"/>
      <point x="493" y="1430"/>
      <point x="720" y="1430" type="curve" smooth="yes"/>
      <point x="1096" y="1430"/>
      <point x="1319" y="1178"/>
      <point x="1319" y="749" type="curve" smooth="yes"/>
      <point x="1319" y="354"/>
      <point x="1123" y="68"/>
      <point x="853" y="68" type="curve" smooth="yes"/>
      <point x="773" y="68"/>
      <point x="698" y="98"/>
      <point x="643" y="163" type="curve" smooth="yes"/>
      <point x="621" y="189"/>
      <point x="604" y="190"/>
      <point x="583" y="171" type="curve" smooth="yes"/>
      <point x="564" y="154"/>
      <point x="565" y="136"/>
      <point x="584" y="108" type="curve" smooth="yes"/>
      <point x="636" y="29"/>
      <point x="738" y="-17"/>
    </contour>
    <contour>
      <point x="321" y="-19" type="curve" smooth="yes"/>
      <point x="445" y="-19"/>
      <point x="504" y="70"/>
      <point x="504" y="258" type="curve" smooth="yes"/>
      <point x="504" y="1240" type="line" smooth="yes"/>
      <point x="504" y="1259"/>
      <point x="489" y="1268"/>
      <point x="460" y="1268" type="curve" smooth="yes"/>
      <point x="431" y="1268"/>
      <point x="416" y="1259"/>
      <point x="416" y="1240" type="curve" smooth="yes"/>
      <point x="416" y="258" type="line" smooth="yes"/>
      <point x="416" y="119"/>
      <point x="389" y="66"/>
      <point x="316" y="66" type="curve" smooth="yes"/>
      <point x="248" y="66"/>
      <point x="176" y="135"/>
      <point x="126" y="251" type="curve" smooth="yes"/>
      <point x="116" y="274"/>
      <point x="100" y="280"/>
      <point x="75" y="268" type="curve" smooth="yes"/>
      <point x="53" y="258"/>
      <point x="46" y="241"/>
      <point x="55" y="216" type="curve" smooth="yes"/>
      <point x="110" y="69"/>
      <point x="210" y="-19"/>
    </contour>
  </outline>
</glyph>
<glyph name="D.dec" format="2">
  <advance width="1574"/>
  <anchor x="840" y="-21" name="bottom"/>
  <anchor x="586" y="723" name="center"/>
  <anchor x="858" y="1403" name="top"/>
  <outline>
    <contour>
      <point x="318" y="-21" type="curve" smooth="yes"/>
      <point x="440" y="-21"/>
      <point x="531" y="70"/>
      <point x="531" y="280" type="curve" smooth="yes"/>
      <point x="531" y="1221" type="line" smooth="yes"/>
      <point x="531" y="1240"/>
      <point x="516" y="1249"/>
      <point x="488" y="1249" type="curve" smooth="yes"/>
      <point x="459" y="1249"/>
      <point x="444" y="1240"/>
      <point x="444" y="1221" type="curve" smooth="yes"/>
      <point x="444" y="280" type="line" smooth="yes"/>
      <point x="444" y="130"/>
      <point x="399" y="60"/>
      <point x="320" y="60" type="curve" smooth="yes"/>
      <point x="264" y="60"/>
      <point x="223" y="96"/>
      <point x="223" y="146" type="curve" smooth="yes"/>
      <point x="223" y="180"/>
      <point x="246" y="204"/>
      <point x="280" y="204" type="curve" smooth="yes"/>
      <point x="426" y="204"/>
      <point x="653" y="-11"/>
      <point x="901" y="-11" type="curve" smooth="yes"/>
      <point x="1190" y="-11"/>
      <point x="1444" y="311"/>
      <point x="1444" y="750" type="curve" smooth="yes"/>
      <point x="1444" y="1228"/>
      <point x="1166" y="1515"/>
      <point x="736" y="1515" type="curve" smooth="yes"/>
      <point x="435" y="1515"/>
      <point x="154" y="1369"/>
      <point x="109" y="1086" type="curve" smooth="yes"/>
      <point x="105" y="1060"/>
      <point x="118" y="1049"/>
      <point x="145" y="1046" type="curve" smooth="yes"/>
      <point x="170" y="1044"/>
      <point x="189" y="1053"/>
      <point x="194" y="1079" type="curve" smooth="yes"/>
      <point x="240" y="1314"/>
      <point x="483" y="1430"/>
      <point x="733" y="1430" type="curve" smooth="yes"/>
      <point x="1103" y="1430"/>
      <point x="1350" y="1184"/>
      <point x="1350" y="750" type="curve" smooth="yes"/>
      <point x="1350" y="363"/>
      <point x="1135" y="74"/>
      <point x="901" y="74" type="curve" smooth="yes"/>
      <point x="670" y="74"/>
      <point x="474" y="285"/>
      <point x="278" y="285" type="curve" smooth="yes"/>
      <point x="193" y="285"/>
      <point x="128" y="225"/>
      <point x="128" y="143" type="curve" smooth="yes"/>
      <point x="128" y="48"/>
      <point x="208" y="-21"/>
    </contour>
  </outline>
</glyph>
<glyph name="F.cur" format="2">
  <advance width="1150"/>
  <outline>
    <contour>
      <point x="321" y="-19" type="curve" smooth="yes"/>
      <point x="445" y="-19"/>
      <point x="504" y="70"/>
      <point x="504" y="258" type="curve" smooth="yes"/>
      <point x="504" y="704" type="line"/>
      <point x="994" y="704" type="line" smooth="yes"/>
      <point x="1014" y="704"/>
      <point x="1021" y="714"/>
      <point x="1021" y="744" type="curve" smooth="yes"/>
      <point x="1021" y="774"/>
      <point x="1014" y="784"/>
      <point x="994" y="784" type="curve" smooth="yes"/>
      <point x="504" y="784" type="line"/>
      <point x="504" y="1408" type="line"/>
      <point x="1090" y="1408" type="line" smooth="yes"/>
      <point x="1110" y="1408"/>
      <point x="1118" y="1418"/>
      <point x="1118" y="1448" type="curve" smooth="yes"/>
      <point x="1118" y="1478"/>
      <point x="1110" y="1488"/>
      <point x="1090" y="1488" type="curve" smooth="yes"/>
      <point x="388" y="1488" type="line" smooth="yes"/>
      <point x="190" y="1488"/>
      <point x="66" y="1388"/>
      <point x="21" y="1191" type="curve" smooth="yes"/>
      <point x="15" y="1163"/>
      <point x="21" y="1150"/>
      <point x="49" y="1143" type="curve" smooth="yes"/>
      <point x="74" y="1136"/>
      <point x="88" y="1145"/>
      <point x="95" y="1169" type="curve" smooth="yes"/>
      <point x="145" y="1338"/>
      <point x="230" y="1408"/>
      <point x="381" y="1408" type="curve" smooth="yes"/>
      <point x="416" y="1408" type="line"/>
      <point x="416" y="258" type="line" smooth="yes"/>
      <point x="416" y="119"/>
      <point x="389" y="66"/>
      <point x="316" y="66" type="curve" smooth="yes"/>
      <point x="248" y="66"/>
      <point x="176" y="135"/>
      <point x="126" y="251" type="curve" smooth="yes"/>
      <point x="116" y="274"/>
      <point x="100" y="280"/>
      <point x="75" y="268" type="curve" smooth="yes"/>
      <point x="53" y="256"/>
      <point x="46" y="241"/>
      <point x="55" y="216" type="curve" smooth="yes"/>
      <point x="110" y="69"/>
      <point x="210" y="-19"/>
    </contour>
  </outline>
</glyph>
<glyph name="G.cur" format="2">
  <advance width="1333"/>
  <anchor x="938" y="-1000" name="bottom"/>
  <anchor x="698" y="1424" name="top"/>
  <outline>
    <contour>
      <point x="921" y="-1020" type="curve" smooth="yes"/>
      <point x="1096" y="-1020"/>
      <point x="1185" y="-870"/>
      <point x="1185" y="-575" type="curve" smooth="yes"/>
      <point x="1185" y="736" type="line"/>
      <point x="1185" y="755"/>
      <point x="1170" y="764"/>
      <point x="1141" y="764" type="curve" smooth="yes"/>
      <point x="1113" y="764"/>
      <point x="1098" y="755"/>
      <point x="1098" y="736" type="curve"/>
      <point x="1029" y="370"/>
      <point x="824" y="105"/>
      <point x="609" y="105" type="curve" smooth="yes"/>
      <point x="371" y="105"/>
      <point x="216" y="351"/>
      <point x="216" y="729" type="curve" smooth="yes"/>
      <point x="216" y="1153"/>
      <point x="414" y="1430"/>
      <point x="716" y="1430" type="curve" smooth="yes"/>
      <point x="846" y="1430"/>
      <point x="954" y="1381"/>
      <point x="1078" y="1269" type="curve" smooth="yes"/>
      <point x="1091" y="1256"/>
      <point x="1111" y="1256"/>
      <point x="1130" y="1279" type="curve" smooth="yes"/>
      <point x="1148" y="1299"/>
      <point x="1141" y="1315"/>
      <point x="1130" y="1328" type="curve" smooth="yes"/>
      <point x="1019" y="1451"/>
      <point x="874" y="1515"/>
      <point x="716" y="1515" type="curve" smooth="yes"/>
      <point x="358" y="1515"/>
      <point x="123" y="1204"/>
      <point x="123" y="729" type="curve" smooth="yes"/>
      <point x="123" y="300"/>
      <point x="315" y="20"/>
      <point x="608" y="20" type="curve" smooth="yes"/>
      <point x="809" y="20"/>
      <point x="996" y="206"/>
      <point x="1098" y="489" type="curve"/>
      <point x="1098" y="-575" type="line" smooth="yes"/>
      <point x="1098" y="-814"/>
      <point x="1040" y="-935"/>
      <point x="929" y="-935" type="curve" smooth="yes"/>
      <point x="866" y="-935"/>
      <point x="820" y="-876"/>
      <point x="820" y="-796" type="curve" smooth="yes"/>
      <point x="820" y="-585"/>
      <point x="963" y="-390"/>
      <point x="1135" y="-226" type="curve" smooth="yes"/>
      <point x="1243" y="-124"/>
      <point x="1361" y="-32"/>
      <point x="1464" y="44" type="curve" smooth="yes"/>
      <point x="1484" y="59"/>
      <point x="1486" y="76"/>
      <point x="1473" y="96" type="curve" smooth="yes"/>
      <point x="1458" y="120"/>
      <point x="1441" y="126"/>
      <point x="1421" y="111" type="curve" smooth="yes"/>
      <point x="1334" y="48"/>
      <point x="1233" y="-30"/>
      <point x="1135" y="-117" type="curve" smooth="yes"/>
      <point x="923" y="-309"/>
      <point x="726" y="-547"/>
      <point x="726" y="-796" type="curve" smooth="yes"/>
      <point x="726" y="-926"/>
      <point x="809" y="-1020"/>
    </contour>
  </outline>
</glyph>
<glyph name="G.cur_ro" format="2">
  <advance width="1115"/>
  <outline>
    <contour>
      <point x="541" y="-20" type="curve" smooth="yes"/>
      <point x="799" y="-20"/>
      <point x="960" y="321"/>
      <point x="960" y="895" type="curve" smooth="yes"/>
      <point x="960" y="917"/>
      <point x="946" y="926"/>
      <point x="924" y="926" type="curve" smooth="yes"/>
      <point x="896" y="926"/>
      <point x="891" y="923"/>
      <point x="867" y="898" type="curve" smooth="yes"/>
      <point x="738" y="762"/>
      <point x="580" y="685"/>
      <point x="465" y="685" type="curve" smooth="yes"/>
      <point x="327" y="685"/>
      <point x="257" y="767"/>
      <point x="257" y="927" type="curve" smooth="yes"/>
      <point x="257" y="1146"/>
      <point x="433" y="1435"/>
      <point x="625" y="1435" type="curve" smooth="yes"/>
      <point x="689" y="1435"/>
      <point x="716" y="1394"/>
      <point x="716" y="1316" type="curve" smooth="yes"/>
      <point x="716" y="1142"/>
      <point x="523" y="937"/>
      <point x="352" y="937" type="curve" smooth="yes"/>
      <point x="214" y="937"/>
      <point x="103" y="1065"/>
      <point x="103" y="1454" type="curve" smooth="yes"/>
      <point x="103" y="1472"/>
      <point x="88" y="1481"/>
      <point x="60" y="1481" type="curve" smooth="yes"/>
      <point x="32" y="1481"/>
      <point x="17" y="1472"/>
      <point x="17" y="1454" type="curve" smooth="yes"/>
      <point x="17" y="1005"/>
      <point x="167" y="851"/>
      <point x="346" y="851" type="curve" smooth="yes"/>
      <point x="570" y="851"/>
      <point x="808" y="1096"/>
      <point x="808" y="1326" type="curve" smooth="yes"/>
      <point x="808" y="1449"/>
      <point x="744" y="1519"/>
      <point x="625" y="1519" type="curve" smooth="yes"/>
      <point x="383" y="1519"/>
      <point x="165" y="1182"/>
      <point x="165" y="927" type="curve" smooth="yes"/>
      <point x="165" y="723"/>
      <point x="276" y="598"/>
      <point x="459" y="598" type="curve" smooth="yes"/>
      <point x="577" y="598"/>
      <point x="734" y="664"/>
      <point x="871" y="792" type="curve"/>
      <point x="857" y="336"/>
      <point x="727" y="67"/>
      <point x="548" y="67" type="curve" smooth="yes"/>
      <point x="434" y="67"/>
      <point x="353" y="143"/>
      <point x="275" y="323" type="curve" smooth="yes"/>
      <point x="266" y="344"/>
      <point x="245" y="349"/>
      <point x="220" y="334" type="curve" smooth="yes"/>
      <point x="200" y="323"/>
      <point x="193" y="306"/>
      <point x="201" y="287" type="curve" smooth="yes"/>
      <point x="283" y="84"/>
      <point x="391" y="-20"/>
    </contour>
  </outline>
</glyph>
<glyph name="I.cur" format="2">
  <advance width="1481"/>
  <anchor x="1034" y="0" name="bottom"/>
  <anchor x="1195" y="-9" name="ogonek"/>
  <anchor x="1034" y="1424" name="top"/>
  <outline>
    <contour>
      <point x="1339" y="1044" type="curve" smooth="yes"/>
      <point x="1339" y="1324"/>
      <point x="1236" y="1515"/>
      <point x="1033" y="1515" type="curve" smooth="yes"/>
      <point x="848" y="1515"/>
      <point x="758" y="1336"/>
      <point x="758" y="1065" type="curve" smooth="yes"/>
      <point x="758" y="826"/>
      <point x="831" y="539"/>
      <point x="984" y="241" type="curve"/>
      <point x="888" y="131"/>
      <point x="773" y="68"/>
      <point x="653" y="68" type="curve" smooth="yes"/>
      <point x="473" y="68"/>
      <point x="321" y="198"/>
      <point x="235" y="414" type="curve"/>
      <point x="350" y="391"/>
      <point x="464" y="381"/>
      <point x="609" y="381" type="curve" smooth="yes"/>
      <point x="630" y="381"/>
      <point x="640" y="399"/>
      <point x="640" y="420" type="curve" smooth="yes"/>
      <point x="640" y="448"/>
      <point x="630" y="456"/>
      <point x="609" y="456" type="curve" smooth="yes"/>
      <point x="441" y="456"/>
      <point x="319" y="470"/>
      <point x="204" y="499" type="curve" smooth="yes"/>
      <point x="185" y="504"/>
      <point x="165" y="508"/>
      <point x="145" y="486" type="curve" smooth="yes"/>
      <point x="123" y="463"/>
      <point x="129" y="436"/>
      <point x="134" y="423" type="curve" smooth="yes"/>
      <point x="231" y="149"/>
      <point x="421" y="-17"/>
      <point x="649" y="-17" type="curve" smooth="yes"/>
      <point x="784" y="-17"/>
      <point x="915" y="49"/>
      <point x="1025" y="164" type="curve"/>
      <point x="1058" y="106"/>
      <point x="1093" y="48"/>
      <point x="1131" y="-10" type="curve" smooth="yes"/>
      <point x="1145" y="-31"/>
      <point x="1169" y="-37"/>
      <point x="1196" y="-17" type="curve" smooth="yes"/>
      <point x="1216" y="-2"/>
      <point x="1229" y="16"/>
      <point x="1209" y="45" type="curve" smooth="yes"/>
      <point x="1165" y="108"/>
      <point x="1126" y="173"/>
      <point x="1090" y="239" type="curve"/>
      <point x="1239" y="433"/>
      <point x="1339" y="720"/>
    </contour>
    <contour>
      <point x="851" y="1065" type="curve" smooth="yes"/>
      <point x="851" y="1288"/>
      <point x="908" y="1430"/>
      <point x="1033" y="1430" type="curve" smooth="yes"/>
      <point x="1178" y="1430"/>
      <point x="1245" y="1256"/>
      <point x="1245" y="1044" type="curve" smooth="yes"/>
      <point x="1245" y="758"/>
      <point x="1166" y="501"/>
      <point x="1046" y="323" type="curve"/>
      <point x="920" y="579"/>
      <point x="851" y="844"/>
    </contour>
  </outline>
</glyph>
<glyph name="I.cur.ini" format="2">
  <advance width="1450"/>
  <anchor x="1034" y="0" name="bottom"/>
  <anchor x="1450" y="0" name="cnct"/>
  <anchor x="1195" y="-9" name="ogonek"/>
  <anchor x="1034" y="1424" name="top"/>
  <outline>
    <contour>
      <point x="649" y="-17" type="curve" smooth="yes"/>
      <point x="1088" y="-17"/>
      <point x="1339" y="597"/>
      <point x="1339" y="1044" type="curve" smooth="yes"/>
      <point x="1339" y="1324"/>
      <point x="1236" y="1515"/>
      <point x="1033" y="1515" type="curve" smooth="yes"/>
      <point x="848" y="1515"/>
      <point x="758" y="1336"/>
      <point x="758" y="1015" type="curve" smooth="yes"/>
      <point x="758" y="577"/>
      <point x="1023" y="-17"/>
      <point x="1341" y="-17" type="curve" smooth="yes"/>
      <point x="1381" y="-17"/>
      <point x="1400" y="58"/>
      <point x="1360" y="58" type="curve" smooth="yes"/>
      <point x="1085" y="58"/>
      <point x="851" y="621"/>
      <point x="851" y="1015" type="curve" smooth="yes"/>
      <point x="851" y="1288"/>
      <point x="908" y="1430"/>
      <point x="1033" y="1430" type="curve" smooth="yes"/>
      <point x="1178" y="1430"/>
      <point x="1245" y="1256"/>
      <point x="1245" y="1044" type="curve" smooth="yes"/>
      <point x="1245" y="658"/>
      <point x="1039" y="68"/>
      <point x="653" y="68" type="curve" smooth="yes"/>
      <point x="473" y="68"/>
      <point x="321" y="198"/>
      <point x="235" y="414" type="curve"/>
      <point x="350" y="391"/>
      <point x="464" y="381"/>
      <point x="609" y="381" type="curve" smooth="yes"/>
      <point x="630" y="381"/>
      <point x="640" y="399"/>
      <point x="640" y="420" type="curve" smooth="yes"/>
      <point x="640" y="448"/>
      <point x="630" y="456"/>
      <point x="609" y="456" type="curve" smooth="yes"/>
      <point x="441" y="456"/>
      <point x="319" y="470"/>
      <point x="204" y="499" type="curve" smooth="yes"/>
      <point x="185" y="504"/>
      <point x="165" y="508"/>
      <point x="145" y="486" type="curve" smooth="yes"/>
      <point x="123" y="463"/>
      <point x="129" y="436"/>
      <point x="134" y="423" type="curve" smooth="yes"/>
      <point x="231" y="149"/>
      <point x="421" y="-17"/>
    </contour>
  </outline>
</glyph>
<glyph name="I.dec" format="2">
  <advance width="833"/>
  <anchor x="399" y="0" name="bottom"/>
  <anchor x="487" y="-5" name="ogonek"/>
  <anchor x="399" y="1424" name="top"/>
  <outline>
    <contour>
      <point x="388" y="-19" type="curve" smooth="yes"/>
      <point x="550" y="-19"/>
      <point x="633" y="96"/>
      <point x="633" y="323" type="curve" smooth="yes"/>
      <point x="633" y="1488" type="line" smooth="yes"/>
      <point x="633" y="1506"/>
      <point x="618" y="1515"/>
      <point x="589" y="1515" type="curve" smooth="yes"/>
      <point x="563" y="1515"/>
      <point x="555" y="1510"/>
      <point x="539" y="1493" type="curve" smooth="yes"/>
      <point x="518" y="1470"/>
      <point x="491" y="1446"/>
      <point x="461" y="1446" type="curve" smooth="yes"/>
      <point x="398" y="1446"/>
      <point x="361" y="1501"/>
      <point x="289" y="1501" type="curve" smooth="yes"/>
      <point x="210" y="1501"/>
      <point x="144" y="1450"/>
      <point x="63" y="1326" type="curve" smooth="yes"/>
      <point x="51" y="1308"/>
      <point x="58" y="1291"/>
      <point x="79" y="1278" type="curve" smooth="yes"/>
      <point x="103" y="1263"/>
      <point x="120" y="1264"/>
      <point x="130" y="1279" type="curve" smooth="yes"/>
      <point x="193" y="1375"/>
      <point x="239" y="1416"/>
      <point x="280" y="1416" type="curve" smooth="yes"/>
      <point x="334" y="1416"/>
      <point x="381" y="1361"/>
      <point x="453" y="1361" type="curve" smooth="yes"/>
      <point x="486" y="1361"/>
      <point x="516" y="1376"/>
      <point x="545" y="1401" type="curve"/>
      <point x="545" y="323" type="line" smooth="yes"/>
      <point x="545" y="153"/>
      <point x="493" y="66"/>
      <point x="388" y="66" type="curve" smooth="yes"/>
      <point x="293" y="66"/>
      <point x="199" y="139"/>
      <point x="140" y="259" type="curve" smooth="yes"/>
      <point x="131" y="275"/>
      <point x="116" y="279"/>
      <point x="95" y="269" type="curve" smooth="yes"/>
      <point x="71" y="258"/>
      <point x="61" y="243"/>
      <point x="69" y="224" type="curve" smooth="yes"/>
      <point x="128" y="73"/>
      <point x="249" y="-19"/>
    </contour>
  </outline>
</glyph>
<glyph name="IJ.cur" format="2">
  <advance width="1200"/>
  <anchor x="430" y="0" name="bottom"/>
  <anchor x="594" y="1424" name="top"/>
  <outline>
    <contour>
      <point x="720" y="-1020" type="curve" smooth="yes"/>
      <point x="895" y="-1020"/>
      <point x="984" y="-870"/>
      <point x="984" y="-575" type="curve" smooth="yes"/>
      <point x="984" y="1488" type="line" smooth="yes"/>
      <point x="984" y="1506"/>
      <point x="969" y="1515"/>
      <point x="940" y="1515" type="curve" smooth="yes"/>
      <point x="911" y="1515"/>
      <point x="896" y="1506"/>
      <point x="896" y="1488" type="curve" smooth="yes"/>
      <point x="896" y="893" type="line"/>
      <point x="844" y="454"/>
      <point x="673" y="173"/>
      <point x="473" y="173" type="curve" smooth="yes"/>
      <point x="344" y="173"/>
      <point x="293" y="260"/>
      <point x="293" y="464" type="curve" smooth="yes"/>
      <point x="293" y="1488" type="line" smooth="yes"/>
      <point x="293" y="1506"/>
      <point x="278" y="1515"/>
      <point x="249" y="1515" type="curve" smooth="yes"/>
      <point x="220" y="1515"/>
      <point x="205" y="1506"/>
      <point x="205" y="1488" type="curve" smooth="yes"/>
      <point x="205" y="451" type="line" smooth="yes"/>
      <point x="205" y="204"/>
      <point x="286" y="88"/>
      <point x="470" y="88" type="curve" smooth="yes"/>
      <point x="656" y="88"/>
      <point x="823" y="284"/>
      <point x="896" y="578" type="curve"/>
      <point x="896" y="-575" type="line" smooth="yes"/>
      <point x="896" y="-814"/>
      <point x="839" y="-935"/>
      <point x="728" y="-935" type="curve" smooth="yes"/>
      <point x="665" y="-935"/>
      <point x="619" y="-876"/>
      <point x="619" y="-796" type="curve" smooth="yes"/>
      <point x="619" y="-585"/>
      <point x="761" y="-390"/>
      <point x="934" y="-226" type="curve" smooth="yes"/>
      <point x="1041" y="-124"/>
      <point x="1160" y="-32"/>
      <point x="1263" y="44" type="curve" smooth="yes"/>
      <point x="1283" y="59"/>
      <point x="1285" y="76"/>
      <point x="1271" y="96" type="curve" smooth="yes"/>
      <point x="1256" y="120"/>
      <point x="1240" y="126"/>
      <point x="1220" y="111" type="curve" smooth="yes"/>
      <point x="1133" y="48"/>
      <point x="1031" y="-30"/>
      <point x="934" y="-117" type="curve" smooth="yes"/>
      <point x="721" y="-309"/>
      <point x="525" y="-547"/>
      <point x="525" y="-796" type="curve" smooth="yes"/>
      <point x="525" y="-926"/>
      <point x="608" y="-1020"/>
    </contour>
  </outline>
</glyph>
<glyph name="J.dec.ini" format="2">
  <advance width="696"/>
  <anchor x="288" y="-1000" name="bottom"/>
  <anchor x="696" y="0" name="cnct"/>
  <anchor x="365" y="1424" name="top"/>
  <outline>
    <contour>
      <point x="285" y="-1020" type="curve" smooth="yes"/>
      <point x="460" y="-1020"/>
      <point x="549" y="-870"/>
      <point x="549" y="-575" type="curve" smooth="yes"/>
      <point x="549" y="1488" type="line" smooth="yes"/>
      <point x="549" y="1506"/>
      <point x="534" y="1515"/>
      <point x="505" y="1515" type="curve" smooth="yes"/>
      <point x="479" y="1515"/>
      <point x="471" y="1510"/>
      <point x="455" y="1493" type="curve" smooth="yes"/>
      <point x="434" y="1470"/>
      <point x="408" y="1446"/>
      <point x="378" y="1446" type="curve" smooth="yes"/>
      <point x="314" y="1446"/>
      <point x="278" y="1501"/>
      <point x="205" y="1501" type="curve" smooth="yes"/>
      <point x="126" y="1501"/>
      <point x="60" y="1450"/>
      <point x="-21" y="1326" type="curve" smooth="yes"/>
      <point x="-32" y="1308"/>
      <point x="-26" y="1291"/>
      <point x="-5" y="1278" type="curve" smooth="yes"/>
      <point x="19" y="1263"/>
      <point x="36" y="1264"/>
      <point x="46" y="1279" type="curve" smooth="yes"/>
      <point x="109" y="1375"/>
      <point x="155" y="1416"/>
      <point x="196" y="1416" type="curve" smooth="yes"/>
      <point x="250" y="1416"/>
      <point x="298" y="1361"/>
      <point x="369" y="1361" type="curve" smooth="yes"/>
      <point x="403" y="1361"/>
      <point x="433" y="1376"/>
      <point x="461" y="1401" type="curve"/>
      <point x="461" y="-575" type="line" smooth="yes"/>
      <point x="461" y="-814"/>
      <point x="404" y="-935"/>
      <point x="293" y="-935" type="curve" smooth="yes"/>
      <point x="230" y="-935"/>
      <point x="184" y="-876"/>
      <point x="184" y="-796" type="curve" smooth="yes"/>
      <point x="184" y="-746"/>
      <point x="90" y="-746"/>
      <point x="90" y="-796" type="curve" smooth="yes"/>
      <point x="90" y="-926"/>
      <point x="173" y="-1020"/>
    </contour>
  </outline>
</glyph>
<glyph name="L.cur.ini" format="2">
  <advance width="1135"/>
  <anchor x="875" y="764" name="CAT"/>
  <anchor x="720" y="0" name="bottom"/>
  <anchor x="389" y="765" name="center"/>
  <anchor x="1135" y="0" name="cnct"/>
  <anchor x="643" y="1424" name="top"/>
  <anchor x="975" y="1488" name="topright"/>
  <outline>
    <contour>
      <point x="186" y="-21" type="curve" smooth="yes"/>
      <point x="331" y="-21"/>
      <point x="431" y="121"/>
      <point x="431" y="363" type="curve" smooth="yes"/>
      <point x="431" y="1078" type="line" smooth="yes"/>
      <point x="431" y="1320"/>
      <point x="500" y="1435"/>
      <point x="644" y="1435" type="curve" smooth="yes"/>
      <point x="750" y="1435"/>
      <point x="849" y="1360"/>
      <point x="908" y="1233" type="curve" smooth="yes"/>
      <point x="919" y="1209"/>
      <point x="931" y="1195"/>
      <point x="961" y="1208" type="curve" smooth="yes"/>
      <point x="993" y="1220"/>
      <point x="993" y="1239"/>
      <point x="981" y="1264" type="curve" smooth="yes"/>
      <point x="909" y="1421"/>
      <point x="785" y="1515"/>
      <point x="649" y="1515" type="curve" smooth="yes"/>
      <point x="443" y="1515"/>
      <point x="344" y="1374"/>
      <point x="344" y="1078" type="curve" smooth="yes"/>
      <point x="344" y="363" type="line" smooth="yes"/>
      <point x="344" y="174"/>
      <point x="278" y="63"/>
      <point x="191" y="63" type="curve" smooth="yes"/>
      <point x="154" y="63"/>
      <point x="128" y="88"/>
      <point x="128" y="121" type="curve" smooth="yes"/>
      <point x="128" y="169"/>
      <point x="184" y="203"/>
      <point x="260" y="203" type="curve" smooth="yes"/>
      <point x="633" y="203"/>
      <point x="859" y="-17"/>
      <point x="1026" y="-17" type="curve" smooth="yes"/>
      <point x="1076" y="-17"/>
      <point x="1095" y="58"/>
      <point x="1045" y="58" type="curve" smooth="yes"/>
      <point x="915" y="58"/>
      <point x="620" y="286"/>
      <point x="266" y="286" type="curve" smooth="yes"/>
      <point x="133" y="286"/>
      <point x="35" y="216"/>
      <point x="35" y="119" type="curve" smooth="yes"/>
      <point x="35" y="38"/>
      <point x="99" y="-21"/>
    </contour>
  </outline>
</glyph>
<glyph name="M.cur" format="2">
  <advance width="2018"/>
  <guideline y="656"/>
  <anchor x="1009" y="0" name="bottom"/>
  <anchor x="1086" y="1424" name="top"/>
  <outline>
    <contour>
      <point x="1744" y="-19" type="curve" smooth="yes"/>
      <point x="1840" y="-19"/>
      <point x="1928" y="71"/>
      <point x="1984" y="224" type="curve" smooth="yes"/>
      <point x="1993" y="249"/>
      <point x="1979" y="261"/>
      <point x="1961" y="268" type="curve" smooth="yes"/>
      <point x="1938" y="276"/>
      <point x="1921" y="274"/>
      <point x="1913" y="253" type="curve" smooth="yes"/>
      <point x="1865" y="129"/>
      <point x="1810" y="64"/>
      <point x="1751" y="64" type="curve" smooth="yes"/>
      <point x="1701" y="64"/>
      <point x="1679" y="99"/>
      <point x="1679" y="250" type="curve" smooth="yes"/>
      <point x="1679" y="1170" type="line" smooth="yes"/>
      <point x="1679" y="1404"/>
      <point x="1611" y="1515"/>
      <point x="1470" y="1515" type="curve" smooth="yes"/>
      <point x="1288" y="1515"/>
      <point x="1135" y="1336"/>
      <point x="1060" y="1048" type="curve"/>
      <point x="1060" y="1089"/>
      <point x="1060" y="1129"/>
      <point x="1060" y="1170" type="curve" smooth="yes"/>
      <point x="1060" y="1404"/>
      <point x="991" y="1515"/>
      <point x="851" y="1515" type="curve" smooth="yes"/>
      <point x="670" y="1515"/>
      <point x="517" y="1336"/>
      <point x="441" y="1048" type="curve"/>
      <point x="441" y="1134"/>
      <point x="441" y="1220"/>
      <point x="441" y="1306" type="curve" smooth="yes"/>
      <point x="441" y="1446"/>
      <point x="396" y="1513"/>
      <point x="306" y="1513" type="curve" smooth="yes"/>
      <point x="199" y="1513"/>
      <point x="105" y="1410"/>
      <point x="34" y="1216" type="curve" smooth="yes"/>
      <point x="25" y="1191"/>
      <point x="30" y="1175"/>
      <point x="51" y="1166" type="curve" smooth="yes"/>
      <point x="78" y="1155"/>
      <point x="98" y="1160"/>
      <point x="106" y="1183" type="curve" smooth="yes"/>
      <point x="170" y="1350"/>
      <point x="230" y="1430"/>
      <point x="290" y="1430" type="curve" smooth="yes"/>
      <point x="335" y="1430"/>
      <point x="354" y="1393"/>
      <point x="354" y="1306" type="curve" smooth="yes"/>
      <point x="354" y="14" type="line" smooth="yes"/>
      <point x="354" y="-5"/>
      <point x="369" y="-14"/>
      <point x="398" y="-14" type="curve" smooth="yes"/>
      <point x="426" y="-14"/>
      <point x="441" y="-5"/>
      <point x="441" y="14" type="curve" smooth="yes"/>
      <point x="441" y="713" type="line"/>
      <point x="490" y="1147"/>
      <point x="648" y="1430"/>
      <point x="840" y="1430" type="curve" smooth="yes"/>
      <point x="934" y="1430"/>
      <point x="973" y="1343"/>
      <point x="973" y="1158" type="curve" smooth="yes"/>
      <point x="973" y="14" type="line" smooth="yes"/>
      <point x="973" y="-5"/>
      <point x="988" y="-14"/>
      <point x="1016" y="-14" type="curve" smooth="yes"/>
      <point x="1045" y="-14"/>
      <point x="1060" y="-5"/>
      <point x="1060" y="14" type="curve" smooth="yes"/>
      <point x="1060" y="722" type="line"/>
      <point x="1110" y="1151"/>
      <point x="1268" y="1430"/>
      <point x="1459" y="1430" type="curve" smooth="yes"/>
      <point x="1553" y="1430"/>
      <point x="1591" y="1343"/>
      <point x="1591" y="1158" type="curve" smooth="yes"/>
      <point x="1591" y="238" type="line" smooth="yes"/>
      <point x="1591" y="54"/>
      <point x="1640" y="-19"/>
    </contour>
  </outline>
</glyph>
<glyph name="M.cur.ini" format="2">
  <advance width="1949"/>
  <anchor x="1009" y="0" name="bottom"/>
  <anchor x="1949" y="0" name="cnct"/>
  <anchor x="1086" y="1424" name="top"/>
  <outline>
    <contour>
      <point x="1841" y="-17" type="curve" smooth="yes"/>
      <point x="1891" y="-17"/>
      <point x="1910" y="58"/>
      <point x="1860" y="58" type="curve" smooth="yes"/>
      <point x="1745" y="58"/>
      <point x="1679" y="219"/>
      <point x="1679" y="575" type="curve" smooth="yes"/>
      <point x="1679" y="1170" type="line" smooth="yes"/>
      <point x="1679" y="1404"/>
      <point x="1611" y="1515"/>
      <point x="1470" y="1515" type="curve" smooth="yes"/>
      <point x="1251" y="1515"/>
      <point x="1075" y="1256"/>
      <point x="1024" y="860" type="curve"/>
      <point x="1056" y="685" type="line"/>
      <point x="1101" y="1135"/>
      <point x="1263" y="1430"/>
      <point x="1459" y="1430" type="curve" smooth="yes"/>
      <point x="1553" y="1430"/>
      <point x="1591" y="1343"/>
      <point x="1591" y="1158" type="curve" smooth="yes"/>
      <point x="1591" y="575" type="line" smooth="yes"/>
      <point x="1591" y="173"/>
      <point x="1684" y="-17"/>
    </contour>
    <contour>
      <point x="398" y="-14" type="curve" smooth="yes"/>
      <point x="426" y="-14"/>
      <point x="441" y="-5"/>
      <point x="441" y="14" type="curve" smooth="yes"/>
      <point x="441" y="1306" type="line" smooth="yes"/>
      <point x="441" y="1446"/>
      <point x="396" y="1513"/>
      <point x="306" y="1513" type="curve" smooth="yes"/>
      <point x="199" y="1513"/>
      <point x="105" y="1410"/>
      <point x="34" y="1216" type="curve" smooth="yes"/>
      <point x="25" y="1191"/>
      <point x="30" y="1175"/>
      <point x="51" y="1166" type="curve" smooth="yes"/>
      <point x="78" y="1155"/>
      <point x="98" y="1160"/>
      <point x="106" y="1183" type="curve" smooth="yes"/>
      <point x="170" y="1350"/>
      <point x="230" y="1430"/>
      <point x="290" y="1430" type="curve" smooth="yes"/>
      <point x="335" y="1430"/>
      <point x="354" y="1393"/>
      <point x="354" y="1306" type="curve" smooth="yes"/>
      <point x="354" y="14" type="line" smooth="yes"/>
      <point x="354" y="-5"/>
      <point x="369" y="-14"/>
    </contour>
    <contour>
      <point x="1016" y="-14" type="curve" smooth="yes"/>
      <point x="1045" y="-14"/>
      <point x="1060" y="-5"/>
      <point x="1060" y="14" type="curve" smooth="yes"/>
      <point x="1060" y="1170" type="line" smooth="yes"/>
      <point x="1060" y="1404"/>
      <point x="991" y="1515"/>
      <point x="851" y="1515" type="curve" smooth="yes"/>
      <point x="633" y="1515"/>
      <point x="456" y="1256"/>
      <point x="405" y="860" type="curve"/>
      <point x="438" y="685" type="line"/>
      <point x="483" y="1135"/>
      <point x="644" y="1430"/>
      <point x="840" y="1430" type="curve" smooth="yes"/>
      <point x="934" y="1430"/>
      <point x="973" y="1343"/>
      <point x="973" y="1158" type="curve" smooth="yes"/>
      <point x="973" y="14" type="line" smooth="yes"/>
      <point x="973" y="-5"/>
      <point x="988" y="-14"/>
    </contour>
  </outline>
</glyph>
<glyph name="M.dec" format="2">
  <advance width="2195"/>
  <anchor x="1094" y="0" name="bottom"/>
  <anchor x="1155" y="1424" name="top"/>
  <outline>
    <contour>
      <point x="286" y="-17" type="curve" smooth="yes"/>
      <point x="479" y="-17"/>
      <point x="566" y="216"/>
      <point x="768" y="1326" type="curve"/>
      <point x="829" y="901"/>
      <point x="911" y="479"/>
      <point x="1030" y="36" type="curve" smooth="yes"/>
      <point x="1040" y="-2"/>
      <point x="1054" y="-17"/>
      <point x="1088" y="-17" type="curve" smooth="yes"/>
      <point x="1120" y="-17"/>
      <point x="1138" y="-4"/>
      <point x="1149" y="33" type="curve" smooth="yes"/>
      <point x="1531" y="1341" type="line"/>
      <point x="1609" y="160"/>
      <point x="1649" y="-17"/>
      <point x="1834" y="-17" type="curve" smooth="yes"/>
      <point x="1959" y="-17"/>
      <point x="2056" y="121"/>
      <point x="2124" y="393" type="curve" smooth="yes"/>
      <point x="2130" y="416"/>
      <point x="2121" y="431"/>
      <point x="2096" y="438" type="curve" smooth="yes"/>
      <point x="2069" y="444"/>
      <point x="2051" y="436"/>
      <point x="2045" y="413" type="curve" smooth="yes"/>
      <point x="1989" y="180"/>
      <point x="1916" y="63"/>
      <point x="1835" y="63" type="curve" smooth="yes"/>
      <point x="1723" y="63"/>
      <point x="1693" y="244"/>
      <point x="1606" y="1458" type="curve" smooth="yes"/>
      <point x="1604" y="1493"/>
      <point x="1585" y="1509"/>
      <point x="1546" y="1509" type="curve" smooth="yes"/>
      <point x="1513" y="1509"/>
      <point x="1494" y="1498"/>
      <point x="1483" y="1459" type="curve" smooth="yes"/>
      <point x="1093" y="128" type="line"/>
      <point x="978" y="570"/>
      <point x="898" y="1003"/>
      <point x="833" y="1458" type="curve" smooth="yes"/>
      <point x="828" y="1494"/>
      <point x="813" y="1509"/>
      <point x="773" y="1509" type="curve" smooth="yes"/>
      <point x="738" y="1509"/>
      <point x="715" y="1493"/>
      <point x="709" y="1458" type="curve" smooth="yes"/>
      <point x="495" y="301"/>
      <point x="416" y="63"/>
      <point x="286" y="63" type="curve" smooth="yes"/>
      <point x="226" y="63"/>
      <point x="194" y="98"/>
      <point x="195" y="196" type="curve" smooth="yes"/>
      <point x="196" y="258"/>
      <point x="213" y="371"/>
      <point x="234" y="433" type="curve" smooth="yes"/>
      <point x="241" y="455"/>
      <point x="235" y="470"/>
      <point x="208" y="480" type="curve" smooth="yes"/>
      <point x="183" y="489"/>
      <point x="164" y="486"/>
      <point x="154" y="458" type="curve" smooth="yes"/>
      <point x="129" y="386"/>
      <point x="109" y="259"/>
      <point x="108" y="189" type="curve" smooth="yes"/>
      <point x="106" y="55"/>
      <point x="173" y="-17"/>
    </contour>
  </outline>
</glyph>
<glyph name="N.cur.ini" format="2">
  <advance width="1429"/>
  <guideline y="72"/>
  <anchor x="748" y="0" name="bottom"/>
  <anchor x="1428" y="0" name="cnct"/>
  <anchor x="748" y="1424" name="top"/>
  <outline>
    <contour>
      <point x="1320" y="-17" type="curve" smooth="yes"/>
      <point x="1370" y="-17"/>
      <point x="1389" y="58"/>
      <point x="1339" y="58" type="curve" smooth="yes"/>
      <point x="1225" y="58"/>
      <point x="1159" y="219"/>
      <point x="1159" y="575" type="curve" smooth="yes"/>
      <point x="1159" y="1170" type="line" smooth="yes"/>
      <point x="1159" y="1404"/>
      <point x="1075" y="1515"/>
      <point x="901" y="1515" type="curve" smooth="yes"/>
      <point x="695" y="1515"/>
      <point x="524" y="1329"/>
      <point x="441" y="1032" type="curve"/>
      <point x="441" y="1306" type="line" smooth="yes"/>
      <point x="441" y="1446"/>
      <point x="398" y="1513"/>
      <point x="306" y="1513" type="curve" smooth="yes"/>
      <point x="199" y="1513"/>
      <point x="105" y="1410"/>
      <point x="34" y="1216" type="curve" smooth="yes"/>
      <point x="25" y="1191"/>
      <point x="30" y="1175"/>
      <point x="51" y="1166" type="curve" smooth="yes"/>
      <point x="78" y="1155"/>
      <point x="98" y="1160"/>
      <point x="106" y="1183" type="curve" smooth="yes"/>
      <point x="170" y="1350"/>
      <point x="230" y="1430"/>
      <point x="290" y="1430" type="curve" smooth="yes"/>
      <point x="335" y="1430"/>
      <point x="354" y="1393"/>
      <point x="354" y="1306" type="curve" smooth="yes"/>
      <point x="354" y="14" type="line" smooth="yes"/>
      <point x="354" y="-5"/>
      <point x="369" y="-14"/>
      <point x="398" y="-14" type="curve" smooth="yes"/>
      <point x="426" y="-14"/>
      <point x="441" y="-5"/>
      <point x="441" y="14" type="curve" smooth="yes"/>
      <point x="441" y="711" type="line"/>
      <point x="495" y="1146"/>
      <point x="673" y="1430"/>
      <point x="890" y="1430" type="curve" smooth="yes"/>
      <point x="1019" y="1430"/>
      <point x="1071" y="1343"/>
      <point x="1071" y="1158" type="curve" smooth="yes"/>
      <point x="1071" y="575" type="line" smooth="yes"/>
      <point x="1071" y="173"/>
      <point x="1164" y="-17"/>
    </contour>
  </outline>
</glyph>
<glyph name="N.dec" format="2">
  <advance width="1694"/>
  <anchor x="811" y="0" name="bottom"/>
  <anchor x="958" y="1424" name="top"/>
  <outline>
    <contour>
      <point x="280" y="-17" type="curve" smooth="yes"/>
      <point x="494" y="-17"/>
      <point x="551" y="310"/>
      <point x="551" y="1091" type="curve" smooth="yes"/>
      <point x="551" y="1288" type="line"/>
      <point x="1179" y="14" type="line" smooth="yes"/>
      <point x="1190" y="-9"/>
      <point x="1203" y="-14"/>
      <point x="1226" y="-14" type="curve" smooth="yes"/>
      <point x="1254" y="-14"/>
      <point x="1270" y="-4"/>
      <point x="1270" y="19" type="curve" smooth="yes"/>
      <point x="1270" y="703" type="line" smooth="yes"/>
      <point x="1270" y="1259"/>
      <point x="1318" y="1433"/>
      <point x="1455" y="1433" type="curve" smooth="yes"/>
      <point x="1519" y="1433"/>
      <point x="1583" y="1410"/>
      <point x="1646" y="1368" type="curve" smooth="yes"/>
      <point x="1664" y="1356"/>
      <point x="1679" y="1360"/>
      <point x="1693" y="1380" type="curve" smooth="yes"/>
      <point x="1709" y="1404"/>
      <point x="1706" y="1423"/>
      <point x="1685" y="1438" type="curve" smooth="yes"/>
      <point x="1609" y="1489"/>
      <point x="1531" y="1515"/>
      <point x="1455" y="1515" type="curve" smooth="yes"/>
      <point x="1243" y="1515"/>
      <point x="1183" y="1309"/>
      <point x="1183" y="703" type="curve" smooth="yes"/>
      <point x="1183" y="205" type="line"/>
      <point x="558" y="1474" type="line" smooth="yes"/>
      <point x="548" y="1494"/>
      <point x="536" y="1501"/>
      <point x="510" y="1501" type="curve" smooth="yes"/>
      <point x="483" y="1501"/>
      <point x="464" y="1493"/>
      <point x="464" y="1469" type="curve" smooth="yes"/>
      <point x="464" y="1091" type="line" smooth="yes"/>
      <point x="464" y="369"/>
      <point x="410" y="65"/>
      <point x="280" y="65" type="curve" smooth="yes"/>
      <point x="211" y="65"/>
      <point x="169" y="150"/>
      <point x="169" y="285" type="curve" smooth="yes"/>
      <point x="169" y="345"/>
      <point x="174" y="396"/>
      <point x="181" y="446" type="curve" smooth="yes"/>
      <point x="184" y="465"/>
      <point x="169" y="478"/>
      <point x="143" y="481" type="curve" smooth="yes"/>
      <point x="111" y="486"/>
      <point x="100" y="473"/>
      <point x="96" y="455" type="curve" smooth="yes"/>
      <point x="84" y="391"/>
      <point x="79" y="336"/>
      <point x="79" y="285" type="curve" smooth="yes"/>
      <point x="79" y="99"/>
      <point x="155" y="-17"/>
    </contour>
  </outline>
</glyph>
<glyph name="O.dec" format="2">
  <advance width="1531"/>
  <anchor x="716" y="0" name="bottom"/>
  <anchor x="716" y="744" name="center"/>
  <anchor x="916" y="11" name="ogonek"/>
  <anchor x="716" y="1424" name="top"/>
  <anchor x="930" y="1478" name="topright"/>
  <outline>
    <contour>
      <point x="731" y="1515" type="curve" smooth="yes"/>
      <point x="525" y="1515"/>
      <point x="411" y="1359"/>
      <point x="411" y="1218" type="curve" smooth="yes"/>
      <point x="411" y="978"/>
      <point x="615" y="861"/>
      <point x="879" y="861" type="curve" smooth="yes"/>
      <point x="1069" y="861"/>
      <point x="1253" y="910"/>
      <point x="1524" y="1020" type="curve" smooth="yes"/>
      <point x="1548" y="1030"/>
      <point x="1555" y="1049"/>
      <point x="1545" y="1075" type="curve" smooth="yes"/>
      <point x="1536" y="1101"/>
      <point x="1519" y="1109"/>
      <point x="1496" y="1099" type="curve" smooth="yes"/>
      <point x="1266" y="1005"/>
      <point x="1074" y="946"/>
      <point x="879" y="946" type="curve" smooth="yes"/>
      <point x="668" y="946"/>
      <point x="505" y="1035"/>
      <point x="505" y="1218" type="curve" smooth="yes"/>
      <point x="505" y="1331"/>
      <point x="561" y="1430"/>
      <point x="731" y="1430" type="curve" smooth="yes"/>
      <point x="1023" y="1430"/>
      <point x="1216" y="1183"/>
      <point x="1216" y="761" type="curve" smooth="yes"/>
      <point x="1216" y="350"/>
      <point x="1008" y="66"/>
      <point x="704" y="66" type="curve" smooth="yes"/>
      <point x="406" y="66"/>
      <point x="224" y="335"/>
      <point x="224" y="741" type="curve" smooth="yes"/>
      <point x="224" y="1178"/>
      <point x="390" y="1346"/>
      <point x="621" y="1431" type="curve" smooth="yes"/>
      <point x="653" y="1443"/>
      <point x="664" y="1461"/>
      <point x="655" y="1486" type="curve" smooth="yes"/>
      <point x="648" y="1510"/>
      <point x="626" y="1518"/>
      <point x="594" y="1506" type="curve" smooth="yes"/>
      <point x="299" y="1409"/>
      <point x="130" y="1164"/>
      <point x="130" y="741" type="curve" smooth="yes"/>
      <point x="130" y="288"/>
      <point x="351" y="-19"/>
      <point x="704" y="-19" type="curve" smooth="yes"/>
      <point x="1064" y="-19"/>
      <point x="1310" y="300"/>
      <point x="1310" y="761" type="curve" smooth="yes"/>
      <point x="1310" y="1225"/>
      <point x="1085" y="1515"/>
    </contour>
  </outline>
</glyph>
<glyph name="OE.cur" format="2">
  <advance width="2044"/>
  <anchor x="1173" y="1424" name="top"/>
  <outline>
    <contour>
      <point x="678" y="-19" type="curve" smooth="yes"/>
      <point x="1014" y="-19"/>
      <point x="1219" y="271"/>
      <point x="1219" y="749" type="curve" smooth="yes"/>
      <point x="1219" y="1211"/>
      <point x="1065" y="1515"/>
      <point x="799" y="1515" type="curve" smooth="yes"/>
      <point x="625" y="1515"/>
      <point x="503" y="1368"/>
      <point x="411" y="1129" type="curve" smooth="yes"/>
      <point x="401" y="1101"/>
      <point x="406" y="1085"/>
      <point x="429" y="1076" type="curve" smooth="yes"/>
      <point x="456" y="1065"/>
      <point x="476" y="1070"/>
      <point x="484" y="1093" type="curve" smooth="yes"/>
      <point x="569" y="1309"/>
      <point x="655" y="1430"/>
      <point x="795" y="1430" type="curve" smooth="yes"/>
      <point x="1006" y="1430"/>
      <point x="1125" y="1160"/>
      <point x="1125" y="749" type="curve" smooth="yes"/>
      <point x="1125" y="300"/>
      <point x="955" y="66"/>
      <point x="678" y="66" type="curve" smooth="yes"/>
      <point x="404" y="66"/>
      <point x="226" y="338"/>
      <point x="226" y="749" type="curve" smooth="yes"/>
      <point x="226" y="1008"/>
      <point x="303" y="1230"/>
      <point x="426" y="1353" type="curve" smooth="yes"/>
      <point x="444" y="1370"/>
      <point x="445" y="1389"/>
      <point x="430" y="1409" type="curve" smooth="yes"/>
      <point x="411" y="1430"/>
      <point x="391" y="1430"/>
      <point x="369" y="1409" type="curve" smooth="yes"/>
      <point x="220" y="1268"/>
      <point x="133" y="1024"/>
      <point x="133" y="749" type="curve" smooth="yes"/>
      <point x="133" y="285"/>
      <point x="348" y="-19"/>
    </contour>
    <contour>
      <point x="1509" y="-19" type="curve" smooth="yes"/>
      <point x="1703" y="-19"/>
      <point x="1870" y="93"/>
      <point x="1959" y="281" type="curve" smooth="yes"/>
      <point x="1974" y="313"/>
      <point x="1974" y="330"/>
      <point x="1948" y="345" type="curve" smooth="yes"/>
      <point x="1924" y="359"/>
      <point x="1908" y="358"/>
      <point x="1894" y="330" type="curve" smooth="yes"/>
      <point x="1811" y="158"/>
      <point x="1676" y="66"/>
      <point x="1508" y="66" type="curve" smooth="yes"/>
      <point x="1311" y="66"/>
      <point x="1196" y="175"/>
      <point x="1196" y="360" type="curve" smooth="yes"/>
      <point x="1196" y="585"/>
      <point x="1354" y="746"/>
      <point x="1574" y="746" type="curve" smooth="yes"/>
      <point x="1758" y="746" type="line" smooth="yes"/>
      <point x="1778" y="746"/>
      <point x="1785" y="756"/>
      <point x="1785" y="786" type="curve" smooth="yes"/>
      <point x="1785" y="816"/>
      <point x="1778" y="826"/>
      <point x="1758" y="826" type="curve" smooth="yes"/>
      <point x="1574" y="826" type="line" smooth="yes"/>
      <point x="1419" y="826"/>
      <point x="1318" y="943"/>
      <point x="1318" y="1121" type="curve" smooth="yes"/>
      <point x="1318" y="1300"/>
      <point x="1429" y="1430"/>
      <point x="1584" y="1430" type="curve" smooth="yes"/>
      <point x="1691" y="1430"/>
      <point x="1793" y="1369"/>
      <point x="1865" y="1286" type="curve" smooth="yes"/>
      <point x="1888" y="1260"/>
      <point x="1904" y="1259"/>
      <point x="1924" y="1275" type="curve" smooth="yes"/>
      <point x="1948" y="1294"/>
      <point x="1948" y="1313"/>
      <point x="1925" y="1340" type="curve" smooth="yes"/>
      <point x="1841" y="1443"/>
      <point x="1718" y="1515"/>
      <point x="1585" y="1515" type="curve" smooth="yes"/>
      <point x="1375" y="1515"/>
      <point x="1224" y="1349"/>
      <point x="1224" y="1120" type="curve" smooth="yes"/>
      <point x="1224" y="955"/>
      <point x="1298" y="830"/>
      <point x="1438" y="789" type="curve"/>
      <point x="1239" y="744"/>
      <point x="1103" y="564"/>
      <point x="1103" y="358" type="curve" smooth="yes"/>
      <point x="1103" y="121"/>
      <point x="1254" y="-19"/>
    </contour>
  </outline>
</glyph>
<glyph name="OE.cur.ini" format="2">
  <advance width="1995"/>
  <anchor x="1995" y="0" name="cnct"/>
  <anchor x="1173" y="1424" name="top"/>
  <outline>
    <contour>
      <point x="678" y="-19" type="curve" smooth="yes"/>
      <point x="1014" y="-19"/>
      <point x="1219" y="271"/>
      <point x="1219" y="749" type="curve" smooth="yes"/>
      <point x="1219" y="1211"/>
      <point x="1065" y="1515"/>
      <point x="799" y="1515" type="curve" smooth="yes"/>
      <point x="625" y="1515"/>
      <point x="503" y="1368"/>
      <point x="411" y="1129" type="curve" smooth="yes"/>
      <point x="401" y="1101"/>
      <point x="406" y="1085"/>
      <point x="429" y="1076" type="curve" smooth="yes"/>
      <point x="456" y="1065"/>
      <point x="476" y="1070"/>
      <point x="484" y="1093" type="curve" smooth="yes"/>
      <point x="569" y="1309"/>
      <point x="655" y="1430"/>
      <point x="795" y="1430" type="curve" smooth="yes"/>
      <point x="1006" y="1430"/>
      <point x="1125" y="1160"/>
      <point x="1125" y="749" type="curve" smooth="yes"/>
      <point x="1125" y="300"/>
      <point x="955" y="66"/>
      <point x="678" y="66" type="curve" smooth="yes"/>
      <point x="404" y="66"/>
      <point x="226" y="338"/>
      <point x="226" y="749" type="curve" smooth="yes"/>
      <point x="226" y="1008"/>
      <point x="303" y="1230"/>
      <point x="426" y="1353" type="curve" smooth="yes"/>
      <point x="444" y="1370"/>
      <point x="445" y="1389"/>
      <point x="430" y="1409" type="curve" smooth="yes"/>
      <point x="411" y="1430"/>
      <point x="391" y="1430"/>
      <point x="369" y="1409" type="curve" smooth="yes"/>
      <point x="220" y="1268"/>
      <point x="133" y="1024"/>
      <point x="133" y="749" type="curve" smooth="yes"/>
      <point x="133" y="285"/>
      <point x="348" y="-19"/>
    </contour>
    <contour>
      <point x="1549" y="-17" type="curve" smooth="yes"/>
      <point x="1589" y="-17"/>
      <point x="1589" y="58"/>
      <point x="1549" y="58" type="curve" smooth="yes"/>
      <point x="1326" y="58"/>
      <point x="1196" y="170"/>
      <point x="1196" y="360" type="curve" smooth="yes"/>
      <point x="1196" y="585"/>
      <point x="1354" y="746"/>
      <point x="1574" y="746" type="curve" smooth="yes"/>
      <point x="1758" y="746" type="line" smooth="yes"/>
      <point x="1778" y="746"/>
      <point x="1785" y="756"/>
      <point x="1785" y="786" type="curve" smooth="yes"/>
      <point x="1785" y="816"/>
      <point x="1778" y="826"/>
      <point x="1758" y="826" type="curve" smooth="yes"/>
      <point x="1574" y="826" type="line" smooth="yes"/>
      <point x="1419" y="826"/>
      <point x="1318" y="943"/>
      <point x="1318" y="1121" type="curve" smooth="yes"/>
      <point x="1318" y="1300"/>
      <point x="1429" y="1430"/>
      <point x="1584" y="1430" type="curve" smooth="yes"/>
      <point x="1691" y="1430"/>
      <point x="1793" y="1369"/>
      <point x="1865" y="1286" type="curve" smooth="yes"/>
      <point x="1888" y="1260"/>
      <point x="1904" y="1259"/>
      <point x="1924" y="1275" type="curve" smooth="yes"/>
      <point x="1948" y="1294"/>
      <point x="1948" y="1313"/>
      <point x="1925" y="1340" type="curve" smooth="yes"/>
      <point x="1841" y="1443"/>
      <point x="1718" y="1515"/>
      <point x="1585" y="1515" type="curve" smooth="yes"/>
      <point x="1375" y="1515"/>
      <point x="1224" y="1349"/>
      <point x="1224" y="1120" type="curve" smooth="yes"/>
      <point x="1224" y="955"/>
      <point x="1298" y="830"/>
      <point x="1438" y="789" type="curve"/>
      <point x="1239" y="744"/>
      <point x="1103" y="564"/>
      <point x="1103" y="358" type="curve" smooth="yes"/>
      <point x="1103" y="122"/>
      <point x="1269" y="-17"/>
    </contour>
  </outline>
</glyph>
<glyph name="P.cur" format="2">
  <advance width="1288"/>
  <outline>
    <contour>
      <point x="631" y="585" type="curve" smooth="yes"/>
      <point x="976" y="610"/>
      <point x="1226" y="834"/>
      <point x="1226" y="1118" type="curve" smooth="yes"/>
      <point x="1226" y="1358"/>
      <point x="1036" y="1515"/>
      <point x="720" y="1515" type="curve" smooth="yes"/>
      <point x="454" y="1515"/>
      <point x="226" y="1433"/>
      <point x="94" y="1241" type="curve" smooth="yes"/>
      <point x="76" y="1216"/>
      <point x="80" y="1198"/>
      <point x="103" y="1183" type="curve" smooth="yes"/>
      <point x="126" y="1168"/>
      <point x="141" y="1173"/>
      <point x="160" y="1196" type="curve" smooth="yes"/>
      <point x="288" y="1364"/>
      <point x="493" y="1430"/>
      <point x="720" y="1430" type="curve" smooth="yes"/>
      <point x="979" y="1430"/>
      <point x="1133" y="1306"/>
      <point x="1133" y="1116" type="curve" smooth="yes"/>
      <point x="1133" y="880"/>
      <point x="920" y="689"/>
      <point x="626" y="665" type="curve" smooth="yes"/>
      <point x="609" y="664"/>
      <point x="594" y="658"/>
      <point x="594" y="625" type="curve" smooth="yes"/>
      <point x="594" y="596"/>
      <point x="608" y="584"/>
    </contour>
    <contour>
      <point x="321" y="-19" type="curve" smooth="yes"/>
      <point x="445" y="-19"/>
      <point x="504" y="70"/>
      <point x="504" y="258" type="curve" smooth="yes"/>
      <point x="504" y="1240" type="line" smooth="yes"/>
      <point x="504" y="1259"/>
      <point x="489" y="1268"/>
      <point x="460" y="1268" type="curve" smooth="yes"/>
      <point x="431" y="1268"/>
      <point x="416" y="1259"/>
      <point x="416" y="1240" type="curve" smooth="yes"/>
      <point x="416" y="258" type="line" smooth="yes"/>
      <point x="416" y="119"/>
      <point x="389" y="66"/>
      <point x="316" y="66" type="curve" smooth="yes"/>
      <point x="248" y="66"/>
      <point x="176" y="135"/>
      <point x="126" y="251" type="curve" smooth="yes"/>
      <point x="116" y="274"/>
      <point x="100" y="280"/>
      <point x="75" y="268" type="curve" smooth="yes"/>
      <point x="53" y="258"/>
      <point x="46" y="241"/>
      <point x="55" y="216" type="curve" smooth="yes"/>
      <point x="110" y="69"/>
      <point x="210" y="-19"/>
    </contour>
  </outline>
</glyph>
<glyph name="P.dec" format="2">
  <advance width="1220"/>
  <outline>
    <contour>
      <point x="569" y="584" type="curve" smooth="yes"/>
      <point x="911" y="601"/>
      <point x="1159" y="843"/>
      <point x="1159" y="1169" type="curve" smooth="yes"/>
      <point x="1159" y="1386"/>
      <point x="1041" y="1515"/>
      <point x="870" y="1515" type="curve" smooth="yes"/>
      <point x="680" y="1515"/>
      <point x="525" y="1363"/>
      <point x="441" y="1119" type="curve"/>
      <point x="441" y="1488" type="line" smooth="yes"/>
      <point x="441" y="1506"/>
      <point x="426" y="1515"/>
      <point x="398" y="1515" type="curve" smooth="yes"/>
      <point x="368" y="1515"/>
      <point x="356" y="1506"/>
      <point x="351" y="1488" type="curve" smooth="yes"/>
      <point x="298" y="1301"/>
      <point x="198" y="1156"/>
      <point x="59" y="1024" type="curve" smooth="yes"/>
      <point x="43" y="1009"/>
      <point x="39" y="990"/>
      <point x="58" y="969" type="curve" smooth="yes"/>
      <point x="75" y="949"/>
      <point x="94" y="941"/>
      <point x="113" y="959" type="curve" smooth="yes"/>
      <point x="221" y="1063"/>
      <point x="298" y="1161"/>
      <point x="354" y="1280" type="curve"/>
      <point x="354" y="14" type="line" smooth="yes"/>
      <point x="354" y="-5"/>
      <point x="369" y="-14"/>
      <point x="398" y="-14" type="curve" smooth="yes"/>
      <point x="426" y="-14"/>
      <point x="441" y="-5"/>
      <point x="441" y="14" type="curve" smooth="yes"/>
      <point x="441" y="670" type="line" smooth="yes"/>
      <point x="441" y="1086"/>
      <point x="630" y="1430"/>
      <point x="861" y="1430" type="curve" smooth="yes"/>
      <point x="986" y="1430"/>
      <point x="1065" y="1340"/>
      <point x="1065" y="1166" type="curve" smooth="yes"/>
      <point x="1065" y="885"/>
      <point x="861" y="681"/>
      <point x="560" y="668" type="curve" smooth="yes"/>
      <point x="536" y="666"/>
      <point x="521" y="658"/>
      <point x="521" y="625" type="curve" smooth="yes"/>
      <point x="521" y="591"/>
      <point x="535" y="583"/>
    </contour>
  </outline>
</glyph>
<glyph name="Q.cur.ini" format="2">
  <advance width="1460"/>
  <anchor x="1460" y="0" name="cnct"/>
  <outline>
    <contour>
      <point x="1351" y="-17" type="curve" smooth="yes"/>
      <point x="1401" y="-17"/>
      <point x="1420" y="58"/>
      <point x="1370" y="58" type="curve" smooth="yes"/>
      <point x="1223" y="58"/>
      <point x="950" y="454"/>
      <point x="618" y="454" type="curve" smooth="yes"/>
      <point x="489" y="454"/>
      <point x="396" y="366"/>
      <point x="396" y="246" type="curve" smooth="yes"/>
      <point x="396" y="89"/>
      <point x="550" y="-19"/>
      <point x="719" y="-19" type="curve" smooth="yes"/>
      <point x="1068" y="-19"/>
      <point x="1296" y="285"/>
      <point x="1296" y="749" type="curve" smooth="yes"/>
      <point x="1296" y="1213"/>
      <point x="1068" y="1515"/>
      <point x="719" y="1515" type="curve" smooth="yes"/>
      <point x="368" y="1515"/>
      <point x="138" y="1211"/>
      <point x="138" y="750" type="curve" smooth="yes"/>
      <point x="138" y="598"/>
      <point x="171" y="434"/>
      <point x="218" y="353" type="curve" smooth="yes"/>
      <point x="244" y="308"/>
      <point x="313" y="333"/>
      <point x="290" y="386" type="curve" smooth="yes"/>
      <point x="251" y="480"/>
      <point x="231" y="631"/>
      <point x="231" y="750" type="curve" smooth="yes"/>
      <point x="231" y="1160"/>
      <point x="424" y="1430"/>
      <point x="719" y="1430" type="curve" smooth="yes"/>
      <point x="1011" y="1430"/>
      <point x="1203" y="1160"/>
      <point x="1203" y="749" type="curve" smooth="yes"/>
      <point x="1203" y="336"/>
      <point x="1011" y="66"/>
      <point x="719" y="66" type="curve" smooth="yes"/>
      <point x="588" y="66"/>
      <point x="489" y="146"/>
      <point x="489" y="249" type="curve" smooth="yes"/>
      <point x="489" y="319"/>
      <point x="543" y="369"/>
      <point x="619" y="369" type="curve" smooth="yes"/>
      <point x="915" y="369"/>
      <point x="1178" y="-17"/>
    </contour>
  </outline>
</glyph>
<glyph name="Q.cur_locl" format="2">
  <advance width="1479"/>
  <anchor x="718" y="0" name="bottom"/>
  <anchor x="718" y="744" name="center"/>
  <anchor x="916" y="11" name="ogonek"/>
  <anchor x="718" y="1424" name="top"/>
  <anchor x="1011" y="1423" name="topright"/>
  <outline>
    <contour>
      <point x="1188" y="-175" type="curve" smooth="yes"/>
      <point x="1293" y="-175"/>
      <point x="1378" y="-101"/>
      <point x="1451" y="65" type="curve" smooth="yes"/>
      <point x="1465" y="96"/>
      <point x="1460" y="118"/>
      <point x="1438" y="129" type="curve" smooth="yes"/>
      <point x="1413" y="141"/>
      <point x="1393" y="135"/>
      <point x="1380" y="104" type="curve" smooth="yes"/>
      <point x="1325" y="-32"/>
      <point x="1266" y="-90"/>
      <point x="1190" y="-90" type="curve" smooth="yes"/>
      <point x="1010" y="-90"/>
      <point x="885" y="454"/>
      <point x="636" y="454" type="curve" smooth="yes"/>
      <point x="584" y="454"/>
      <point x="585" y="369"/>
      <point x="638" y="369" type="curve" smooth="yes"/>
      <point x="820" y="369"/>
      <point x="945" y="-175"/>
    </contour>
    <component base="O"/>
  </outline>
</glyph>
<glyph name="Q.dec_pt" format="2">
  <advance width="1346"/>
  <outline>
    <contour>
      <point x="970" y="789" type="curve" smooth="yes"/>
      <point x="970" y="1313" type="line" smooth="yes"/>
      <point x="970" y="1330"/>
      <point x="955" y="1340"/>
      <point x="926" y="1340" type="curve" smooth="yes"/>
      <point x="898" y="1340"/>
      <point x="883" y="1331"/>
      <point x="883" y="1313" type="curve"/>
      <point x="809" y="988"/>
      <point x="625" y="751"/>
      <point x="445" y="751" type="curve" smooth="yes"/>
      <point x="344" y="751"/>
      <point x="283" y="838"/>
      <point x="283" y="979" type="curve" smooth="yes"/>
      <point x="283" y="1204"/>
      <point x="424" y="1431"/>
      <point x="559" y="1431" type="curve" smooth="yes"/>
      <point x="604" y="1431"/>
      <point x="631" y="1398"/>
      <point x="631" y="1343" type="curve" smooth="yes"/>
      <point x="631" y="1225"/>
      <point x="506" y="1118"/>
      <point x="351" y="1118" type="curve" smooth="yes"/>
      <point x="270" y="1118"/>
      <point x="174" y="1140"/>
      <point x="110" y="1171" type="curve" smooth="yes"/>
      <point x="90" y="1181"/>
      <point x="66" y="1176"/>
      <point x="56" y="1153" type="curve" smooth="yes"/>
      <point x="45" y="1126"/>
      <point x="55" y="1114"/>
      <point x="78" y="1103" type="curve" smooth="yes"/>
      <point x="140" y="1070"/>
      <point x="233" y="1038"/>
      <point x="348" y="1038" type="curve" smooth="yes"/>
      <point x="558" y="1038"/>
      <point x="723" y="1179"/>
      <point x="723" y="1345" type="curve" smooth="yes"/>
      <point x="723" y="1451"/>
      <point x="663" y="1515"/>
      <point x="564" y="1515" type="curve" smooth="yes"/>
      <point x="373" y="1515"/>
      <point x="191" y="1253"/>
      <point x="191" y="979" type="curve" smooth="yes"/>
      <point x="191" y="783"/>
      <point x="284" y="664"/>
      <point x="435" y="664" type="curve" smooth="yes"/>
      <point x="613" y="664"/>
      <point x="785" y="833"/>
      <point x="883" y="1090" type="curve"/>
      <point x="883" y="789" type="line" smooth="yes"/>
      <point x="883" y="363"/>
      <point x="733" y="54"/>
      <point x="526" y="54" type="curve" smooth="yes"/>
      <point x="471" y="54"/>
      <point x="431" y="89"/>
      <point x="431" y="138" type="curve" smooth="yes"/>
      <point x="431" y="180"/>
      <point x="461" y="211"/>
      <point x="503" y="211" type="curve" smooth="yes"/>
      <point x="606" y="211"/>
      <point x="803" y="-11"/>
      <point x="986" y="-11" type="curve" smooth="yes"/>
      <point x="1105" y="-11"/>
      <point x="1203" y="80"/>
      <point x="1278" y="260" type="curve" smooth="yes"/>
      <point x="1288" y="284"/>
      <point x="1289" y="299"/>
      <point x="1264" y="313" type="curve" smooth="yes"/>
      <point x="1240" y="325"/>
      <point x="1221" y="321"/>
      <point x="1211" y="299" type="curve" smooth="yes"/>
      <point x="1143" y="149"/>
      <point x="1080" y="73"/>
      <point x="990" y="73" type="curve" smooth="yes"/>
      <point x="839" y="73"/>
      <point x="656" y="289"/>
      <point x="506" y="289" type="curve" smooth="yes"/>
      <point x="416" y="289"/>
      <point x="350" y="226"/>
      <point x="350" y="140" type="curve" smooth="yes"/>
      <point x="350" y="46"/>
      <point x="421" y="-21"/>
      <point x="520" y="-21" type="curve" smooth="yes"/>
      <point x="795" y="-21"/>
      <point x="970" y="319"/>
    </contour>
  </outline>
</glyph>
<glyph name="R.cur.ini" format="2">
  <advance width="1378"/>
  <anchor x="781" y="0" name="bottom"/>
  <anchor x="1378" y="0" name="cnct"/>
  <anchor x="743" y="1424" name="top"/>
  <outline>
    <contour>
      <point x="1269" y="-17" type="curve" smooth="yes"/>
      <point x="1319" y="-17"/>
      <point x="1338" y="58"/>
      <point x="1288" y="58" type="curve" smooth="yes"/>
      <point x="1183" y="58"/>
      <point x="1090" y="138"/>
      <point x="945" y="389" type="curve" smooth="yes"/>
      <point x="893" y="480"/>
      <point x="850" y="555"/>
      <point x="793" y="673" type="curve"/>
      <point x="1025" y="735"/>
      <point x="1194" y="943"/>
      <point x="1194" y="1159" type="curve" smooth="yes"/>
      <point x="1194" y="1378"/>
      <point x="1016" y="1515"/>
      <point x="745" y="1515" type="curve" smooth="yes"/>
      <point x="454" y="1515"/>
      <point x="221" y="1420"/>
      <point x="94" y="1216" type="curve" smooth="yes"/>
      <point x="78" y="1190"/>
      <point x="80" y="1173"/>
      <point x="103" y="1158" type="curve" smooth="yes"/>
      <point x="126" y="1143"/>
      <point x="143" y="1146"/>
      <point x="160" y="1171" type="curve" smooth="yes"/>
      <point x="283" y="1350"/>
      <point x="493" y="1430"/>
      <point x="745" y="1430" type="curve" smooth="yes"/>
      <point x="960" y="1430"/>
      <point x="1100" y="1324"/>
      <point x="1100" y="1153" type="curve" smooth="yes"/>
      <point x="1100" y="963"/>
      <point x="954" y="786"/>
      <point x="753" y="743" type="curve"/>
      <point x="728" y="770"/>
      <point x="689" y="791"/>
      <point x="654" y="791" type="curve" smooth="yes"/>
      <point x="606" y="791"/>
      <point x="584" y="763"/>
      <point x="584" y="728" type="curve" smooth="yes"/>
      <point x="584" y="683"/>
      <point x="634" y="646"/>
      <point x="706" y="650" type="curve"/>
      <point x="776" y="506"/>
      <point x="808" y="453"/>
      <point x="880" y="328" type="curve" smooth="yes"/>
      <point x="1026" y="75"/>
      <point x="1140" y="-17"/>
    </contour>
    <contour>
      <point x="321" y="-19" type="curve" smooth="yes"/>
      <point x="445" y="-19"/>
      <point x="504" y="70"/>
      <point x="504" y="258" type="curve" smooth="yes"/>
      <point x="504" y="1240" type="line" smooth="yes"/>
      <point x="504" y="1259"/>
      <point x="489" y="1268"/>
      <point x="460" y="1268" type="curve" smooth="yes"/>
      <point x="431" y="1268"/>
      <point x="416" y="1259"/>
      <point x="416" y="1240" type="curve" smooth="yes"/>
      <point x="416" y="258" type="line" smooth="yes"/>
      <point x="416" y="119"/>
      <point x="389" y="66"/>
      <point x="316" y="66" type="curve" smooth="yes"/>
      <point x="248" y="66"/>
      <point x="176" y="135"/>
      <point x="126" y="251" type="curve" smooth="yes"/>
      <point x="116" y="274"/>
      <point x="100" y="280"/>
      <point x="75" y="268" type="curve" smooth="yes"/>
      <point x="53" y="258"/>
      <point x="46" y="241"/>
      <point x="55" y="216" type="curve" smooth="yes"/>
      <point x="110" y="69"/>
      <point x="210" y="-19"/>
    </contour>
  </outline>
</glyph>
<glyph name="R.dec" format="2">
  <advance width="1469"/>
  <anchor x="781" y="0" name="bottom"/>
  <anchor x="743" y="1424" name="top"/>
  <outline>
    <contour>
      <point x="1249" y="-19" type="curve" smooth="yes"/>
      <point x="1326" y="-19"/>
      <point x="1399" y="39"/>
      <point x="1463" y="179" type="curve" smooth="yes"/>
      <point x="1470" y="196"/>
      <point x="1464" y="211"/>
      <point x="1445" y="221" type="curve" smooth="yes"/>
      <point x="1421" y="235"/>
      <point x="1405" y="233"/>
      <point x="1395" y="215" type="curve" smooth="yes"/>
      <point x="1340" y="104"/>
      <point x="1306" y="64"/>
      <point x="1255" y="64" type="curve" smooth="yes"/>
      <point x="1181" y="64"/>
      <point x="1094" y="160"/>
      <point x="955" y="390" type="curve" smooth="yes"/>
      <point x="858" y="553"/>
      <point x="834" y="594"/>
      <point x="794" y="670" type="curve"/>
      <point x="1046" y="770"/>
      <point x="1208" y="955"/>
      <point x="1208" y="1199" type="curve" smooth="yes"/>
      <point x="1208" y="1384"/>
      <point x="1093" y="1515"/>
      <point x="910" y="1515" type="curve" smooth="yes"/>
      <point x="690" y="1515"/>
      <point x="528" y="1346"/>
      <point x="441" y="1098" type="curve"/>
      <point x="441" y="1488" type="line" smooth="yes"/>
      <point x="441" y="1506"/>
      <point x="426" y="1515"/>
      <point x="398" y="1515" type="curve" smooth="yes"/>
      <point x="368" y="1515"/>
      <point x="356" y="1506"/>
      <point x="351" y="1488" type="curve" smooth="yes"/>
      <point x="298" y="1301"/>
      <point x="198" y="1156"/>
      <point x="59" y="1024" type="curve" smooth="yes"/>
      <point x="43" y="1009"/>
      <point x="39" y="990"/>
      <point x="58" y="969" type="curve" smooth="yes"/>
      <point x="75" y="949"/>
      <point x="94" y="941"/>
      <point x="113" y="959" type="curve" smooth="yes"/>
      <point x="221" y="1063"/>
      <point x="298" y="1161"/>
      <point x="354" y="1280" type="curve"/>
      <point x="354" y="14" type="line" smooth="yes"/>
      <point x="354" y="-5"/>
      <point x="369" y="-14"/>
      <point x="398" y="-14" type="curve" smooth="yes"/>
      <point x="426" y="-14"/>
      <point x="441" y="-5"/>
      <point x="441" y="14" type="curve" smooth="yes"/>
      <point x="441" y="646" type="line" smooth="yes"/>
      <point x="441" y="1054"/>
      <point x="623" y="1430"/>
      <point x="904" y="1430" type="curve" smooth="yes"/>
      <point x="1038" y="1430"/>
      <point x="1114" y="1333"/>
      <point x="1114" y="1190" type="curve" smooth="yes"/>
      <point x="1114" y="979"/>
      <point x="971" y="818"/>
      <point x="758" y="734" type="curve"/>
      <point x="736" y="759"/>
      <point x="696" y="784"/>
      <point x="653" y="784" type="curve" smooth="yes"/>
      <point x="613" y="784"/>
      <point x="588" y="759"/>
      <point x="588" y="725" type="curve" smooth="yes"/>
      <point x="588" y="678"/>
      <point x="640" y="643"/>
      <point x="709" y="646" type="curve"/>
      <point x="761" y="545"/>
      <point x="808" y="466"/>
      <point x="881" y="346" type="curve" smooth="yes"/>
      <point x="1038" y="95"/>
      <point x="1138" y="-19"/>
    </contour>
  </outline>
</glyph>
<glyph name="S.cur" format="2">
  <advance width="1383"/>
  <anchor x="930" y="0" name="bottom"/>
  <anchor x="700" y="1488" name="top"/>
  <outline>
    <contour>
      <point x="911" y="-19" type="curve" smooth="yes"/>
      <point x="1148" y="-19"/>
      <point x="1301" y="151"/>
      <point x="1301" y="410" type="curve" smooth="yes"/>
      <point x="1301" y="717"/>
      <point x="1043" y="904"/>
      <point x="805" y="1138" type="curve"/>
      <point x="855" y="1300"/>
      <point x="864" y="1368"/>
      <point x="864" y="1434" type="curve" smooth="yes"/>
      <point x="864" y="1540"/>
      <point x="800" y="1609"/>
      <point x="706" y="1609" type="curve" smooth="yes"/>
      <point x="609" y="1609"/>
      <point x="545" y="1535"/>
      <point x="545" y="1423" type="curve" smooth="yes"/>
      <point x="545" y="1323"/>
      <point x="602" y="1224"/>
      <point x="706" y="1107" type="curve"/>
      <point x="462" y="332"/>
      <point x="296" y="73"/>
      <point x="85" y="73" type="curve" smooth="yes"/>
      <point x="54" y="73"/>
      <point x="40" y="60"/>
      <point x="40" y="30" type="curve" smooth="yes"/>
      <point x="40" y="4"/>
      <point x="53" y="-7"/>
      <point x="85" y="-7" type="curve" smooth="yes"/>
      <point x="346" y="-7"/>
      <point x="526" y="255"/>
      <point x="773" y="1036" type="curve"/>
      <point x="994" y="811"/>
      <point x="1208" y="670"/>
      <point x="1208" y="408" type="curve" smooth="yes"/>
      <point x="1208" y="201"/>
      <point x="1091" y="66"/>
      <point x="915" y="66" type="curve" smooth="yes"/>
      <point x="798" y="66"/>
      <point x="701" y="134"/>
      <point x="638" y="211" type="curve" smooth="yes"/>
      <point x="618" y="235"/>
      <point x="599" y="236"/>
      <point x="579" y="216" type="curve" smooth="yes"/>
      <point x="555" y="193"/>
      <point x="566" y="176"/>
      <point x="590" y="146" type="curve" smooth="yes"/>
      <point x="654" y="65"/>
      <point x="784" y="-19"/>
    </contour>
    <contour>
      <point x="737" y="1210" type="curve"/>
      <point x="659" y="1301"/>
      <point x="636" y="1370"/>
      <point x="636" y="1433" type="curve" smooth="yes"/>
      <point x="636" y="1495"/>
      <point x="664" y="1529"/>
      <point x="706" y="1529" type="curve" smooth="yes"/>
      <point x="746" y="1529"/>
      <point x="773" y="1490"/>
      <point x="773" y="1430" type="curve" smooth="yes"/>
      <point x="773" y="1385"/>
      <point x="770" y="1325"/>
    </contour>
  </outline>
</glyph>
<glyph name="T.cur" format="2">
  <advance width="1118"/>
  <anchor x="661" y="0" name="bottom"/>
  <anchor x="420" y="744" name="center"/>
  <anchor x="599" y="1424" name="top"/>
  <outline>
    <contour>
      <point x="673" y="-19" type="curve" smooth="yes"/>
      <point x="814" y="-19"/>
      <point x="938" y="76"/>
      <point x="1031" y="256" type="curve" smooth="yes"/>
      <point x="1041" y="276"/>
      <point x="1043" y="299"/>
      <point x="1018" y="313" type="curve" smooth="yes"/>
      <point x="993" y="326"/>
      <point x="975" y="321"/>
      <point x="964" y="299" type="curve" smooth="yes"/>
      <point x="884" y="141"/>
      <point x="791" y="66"/>
      <point x="678" y="66" type="curve" smooth="yes"/>
      <point x="516" y="66"/>
      <point x="421" y="213"/>
      <point x="421" y="461" type="curve" smooth="yes"/>
      <point x="421" y="719"/>
      <point x="524" y="1093"/>
      <point x="681" y="1408" type="curve"/>
      <point x="998" y="1408" type="line" smooth="yes"/>
      <point x="1018" y="1408"/>
      <point x="1025" y="1418"/>
      <point x="1025" y="1448" type="curve" smooth="yes"/>
      <point x="1025" y="1478"/>
      <point x="1018" y="1488"/>
      <point x="998" y="1488" type="curve" smooth="yes"/>
      <point x="379" y="1488" type="line" smooth="yes"/>
      <point x="193" y="1488"/>
      <point x="53" y="1379"/>
      <point x="15" y="1191" type="curve" smooth="yes"/>
      <point x="9" y="1163"/>
      <point x="15" y="1149"/>
      <point x="43" y="1143" type="curve" smooth="yes"/>
      <point x="68" y="1136"/>
      <point x="83" y="1145"/>
      <point x="89" y="1169" type="curve" smooth="yes"/>
      <point x="133" y="1331"/>
      <point x="231" y="1408"/>
      <point x="373" y="1408" type="curve" smooth="yes"/>
      <point x="584" y="1408" type="line"/>
      <point x="429" y="1101"/>
      <point x="328" y="726"/>
      <point x="328" y="459" type="curve" smooth="yes"/>
      <point x="328" y="159"/>
      <point x="456" y="-19"/>
    </contour>
  </outline>
</glyph>
<glyph name="T.cur.ini" format="2">
  <advance width="938"/>
  <anchor x="661" y="0" name="bottom"/>
  <anchor x="420" y="744" name="center"/>
  <anchor x="938" y="0" name="cnct"/>
  <anchor x="599" y="1424" name="top"/>
  <outline>
    <contour>
      <point x="708" y="-17" type="curve" smooth="yes"/>
      <point x="758" y="-17"/>
      <point x="763" y="58"/>
      <point x="713" y="58" type="curve" smooth="yes"/>
      <point x="547" y="58"/>
      <point x="391" y="178"/>
      <point x="391" y="469" type="curve" smooth="yes"/>
      <point x="391" y="719"/>
      <point x="506" y="1093"/>
      <point x="681" y="1408" type="curve"/>
      <point x="978" y="1408" type="line" smooth="yes"/>
      <point x="998" y="1408"/>
      <point x="1005" y="1418"/>
      <point x="1005" y="1448" type="curve" smooth="yes"/>
      <point x="1005" y="1478"/>
      <point x="998" y="1488"/>
      <point x="978" y="1488" type="curve" smooth="yes"/>
      <point x="379" y="1488" type="line" smooth="yes"/>
      <point x="193" y="1488"/>
      <point x="53" y="1379"/>
      <point x="15" y="1191" type="curve" smooth="yes"/>
      <point x="9" y="1163"/>
      <point x="15" y="1149"/>
      <point x="43" y="1143" type="curve" smooth="yes"/>
      <point x="68" y="1136"/>
      <point x="83" y="1145"/>
      <point x="89" y="1169" type="curve" smooth="yes"/>
      <point x="133" y="1331"/>
      <point x="231" y="1408"/>
      <point x="373" y="1408" type="curve" smooth="yes"/>
      <point x="584" y="1408" type="line"/>
      <point x="411" y="1101"/>
      <point x="298" y="727"/>
      <point x="298" y="466" type="curve" smooth="yes"/>
      <point x="298" y="130"/>
      <point x="487" y="-17"/>
    </contour>
  </outline>
</glyph>
<glyph name="T.dec" format="2">
  <advance width="1118"/>
  <anchor x="474" y="0" name="bottom"/>
  <anchor x="618" y="744" name="center"/>
  <anchor x="614" y="1424" name="top"/>
  <outline>
    <contour>
      <point x="479" y="-19" type="curve" smooth="yes"/>
      <point x="603" y="-19"/>
      <point x="661" y="70"/>
      <point x="661" y="258" type="curve" smooth="yes"/>
      <point x="661" y="1408" type="line"/>
      <point x="1079" y="1408" type="line" smooth="yes"/>
      <point x="1099" y="1408"/>
      <point x="1106" y="1418"/>
      <point x="1106" y="1448" type="curve" smooth="yes"/>
      <point x="1106" y="1478"/>
      <point x="1099" y="1488"/>
      <point x="1079" y="1488" type="curve" smooth="yes"/>
      <point x="379" y="1488" type="line" smooth="yes"/>
      <point x="193" y="1488"/>
      <point x="53" y="1379"/>
      <point x="15" y="1191" type="curve" smooth="yes"/>
      <point x="9" y="1163"/>
      <point x="15" y="1149"/>
      <point x="43" y="1143" type="curve" smooth="yes"/>
      <point x="68" y="1136"/>
      <point x="83" y="1145"/>
      <point x="89" y="1169" type="curve" smooth="yes"/>
      <point x="133" y="1331"/>
      <point x="231" y="1408"/>
      <point x="373" y="1408" type="curve" smooth="yes"/>
      <point x="574" y="1408" type="line"/>
      <point x="574" y="258" type="line" smooth="yes"/>
      <point x="574" y="119"/>
      <point x="546" y="66"/>
      <point x="474" y="66" type="curve" smooth="yes"/>
      <point x="405" y="66"/>
      <point x="334" y="135"/>
      <point x="284" y="251" type="curve" smooth="yes"/>
      <point x="274" y="274"/>
      <point x="258" y="280"/>
      <point x="233" y="268" type="curve" smooth="yes"/>
      <point x="210" y="256"/>
      <point x="204" y="241"/>
      <point x="213" y="216" type="curve" smooth="yes"/>
      <point x="268" y="69"/>
      <point x="368" y="-19"/>
    </contour>
  </outline>
</glyph>
<glyph name="U.cur" format="2">
  <advance width="1476"/>
  <anchor x="719" y="0" name="bottom"/>
  <anchor x="1329" y="21" name="ogonek"/>
  <anchor x="738" y="1424" name="top"/>
  <anchor x="1095" y="1509" name="topright"/>
  <outline>
    <contour>
      <point x="619" y="-19" type="curve" smooth="yes"/>
      <point x="810" y="-19"/>
      <point x="979" y="179"/>
      <point x="1053" y="474" type="curve"/>
      <point x="1053" y="395"/>
      <point x="1053" y="317"/>
      <point x="1053" y="238" type="curve" smooth="yes"/>
      <point x="1053" y="54"/>
      <point x="1101" y="-19"/>
      <point x="1205" y="-19" type="curve" smooth="yes"/>
      <point x="1301" y="-19"/>
      <point x="1389" y="71"/>
      <point x="1445" y="224" type="curve" smooth="yes"/>
      <point x="1454" y="249"/>
      <point x="1440" y="261"/>
      <point x="1423" y="268" type="curve" smooth="yes"/>
      <point x="1399" y="276"/>
      <point x="1383" y="274"/>
      <point x="1374" y="253" type="curve" smooth="yes"/>
      <point x="1326" y="129"/>
      <point x="1271" y="64"/>
      <point x="1213" y="64" type="curve" smooth="yes"/>
      <point x="1163" y="64"/>
      <point x="1140" y="99"/>
      <point x="1140" y="250" type="curve" smooth="yes"/>
      <point x="1140" y="1488" type="line" smooth="yes"/>
      <point x="1140" y="1506"/>
      <point x="1125" y="1515"/>
      <point x="1096" y="1515" type="curve" smooth="yes"/>
      <point x="1068" y="1515"/>
      <point x="1053" y="1506"/>
      <point x="1053" y="1488" type="curve" smooth="yes"/>
      <point x="1053" y="791" type="line"/>
      <point x="1000" y="349"/>
      <point x="827" y="66"/>
      <point x="621" y="66" type="curve" smooth="yes"/>
      <point x="495" y="66"/>
      <point x="441" y="154"/>
      <point x="441" y="358" type="curve" smooth="yes"/>
      <point x="441" y="1306" type="line" smooth="yes"/>
      <point x="441" y="1446"/>
      <point x="398" y="1513"/>
      <point x="306" y="1513" type="curve" smooth="yes"/>
      <point x="199" y="1513"/>
      <point x="105" y="1410"/>
      <point x="34" y="1216" type="curve" smooth="yes"/>
      <point x="25" y="1191"/>
      <point x="30" y="1175"/>
      <point x="51" y="1166" type="curve" smooth="yes"/>
      <point x="78" y="1155"/>
      <point x="98" y="1160"/>
      <point x="106" y="1183" type="curve" smooth="yes"/>
      <point x="170" y="1350"/>
      <point x="230" y="1430"/>
      <point x="290" y="1430" type="curve" smooth="yes"/>
      <point x="338" y="1430"/>
      <point x="354" y="1393"/>
      <point x="354" y="1306" type="curve" smooth="yes"/>
      <point x="354" y="345" type="line" smooth="yes"/>
      <point x="354" y="98"/>
      <point x="438" y="-19"/>
    </contour>
  </outline>
</glyph>
<glyph name="V.dec" format="2">
  <advance width="1560"/>
  <outline>
    <contour>
      <point x="824" y="-17" type="curve" smooth="yes"/>
      <point x="854" y="-17"/>
      <point x="871" y="-10"/>
      <point x="876" y="18" type="curve" smooth="yes"/>
      <point x="1094" y="1190"/>
      <point x="1189" y="1433"/>
      <point x="1420" y="1433" type="curve" smooth="yes"/>
      <point x="1450" y="1433"/>
      <point x="1489" y="1426"/>
      <point x="1524" y="1418" type="curve" smooth="yes"/>
      <point x="1539" y="1414"/>
      <point x="1550" y="1425"/>
      <point x="1556" y="1448" type="curve" smooth="yes"/>
      <point x="1564" y="1474"/>
      <point x="1559" y="1488"/>
      <point x="1540" y="1495" type="curve" smooth="yes"/>
      <point x="1511" y="1506"/>
      <point x="1466" y="1515"/>
      <point x="1420" y="1515" type="curve" smooth="yes"/>
      <point x="1126" y="1515"/>
      <point x="1008" y="1276"/>
      <point x="823" y="164" type="curve"/>
      <point x="590" y="1283"/>
      <point x="495" y="1515"/>
      <point x="269" y="1515" type="curve" smooth="yes"/>
      <point x="141" y="1515"/>
      <point x="68" y="1421"/>
      <point x="68" y="1266" type="curve" smooth="yes"/>
      <point x="68" y="1213"/>
      <point x="75" y="1153"/>
      <point x="89" y="1106" type="curve" smooth="yes"/>
      <point x="98" y="1076"/>
      <point x="110" y="1071"/>
      <point x="135" y="1076" type="curve" smooth="yes"/>
      <point x="165" y="1083"/>
      <point x="176" y="1096"/>
      <point x="170" y="1124" type="curve" smooth="yes"/>
      <point x="161" y="1163"/>
      <point x="155" y="1216"/>
      <point x="155" y="1266" type="curve" smooth="yes"/>
      <point x="155" y="1370"/>
      <point x="196" y="1433"/>
      <point x="264" y="1433" type="curve" smooth="yes"/>
      <point x="424" y="1433"/>
      <point x="510" y="1190"/>
      <point x="770" y="18" type="curve" smooth="yes"/>
      <point x="776" y="-9"/>
      <point x="795" y="-17"/>
    </contour>
  </outline>
</glyph>
<glyph name="W.cur" format="2">
  <advance width="1979"/>
  <guideline x="1004"/>
  <anchor x="893" y="0" name="bottom"/>
  <anchor x="990" y="1424" name="top"/>
  <outline>
    <contour>
      <point x="533" y="-19" type="curve" smooth="yes"/>
      <point x="751" y="-19"/>
      <point x="916" y="304"/>
      <point x="979" y="850" type="curve"/>
      <point x="983" y="850" type="line"/>
      <point x="968" y="569"/>
      <point x="966" y="364"/>
      <point x="991" y="223" type="curve" smooth="yes"/>
      <point x="1021" y="53"/>
      <point x="1085" y="-19"/>
      <point x="1191" y="-19" type="curve" smooth="yes"/>
      <point x="1409" y="-19"/>
      <point x="1578" y="295"/>
      <point x="1673" y="886" type="curve" smooth="yes"/>
      <point x="1698" y="1043"/>
      <point x="1711" y="1231"/>
      <point x="1701" y="1375" type="curve"/>
      <point x="1733" y="1354"/>
      <point x="1834" y="1320"/>
      <point x="1909" y="1313" type="curve" smooth="yes"/>
      <point x="1935" y="1310"/>
      <point x="1945" y="1330"/>
      <point x="1945" y="1354" type="curve" smooth="yes"/>
      <point x="1945" y="1371"/>
      <point x="1938" y="1383"/>
      <point x="1923" y="1385" type="curve" smooth="yes"/>
      <point x="1830" y="1400"/>
      <point x="1724" y="1438"/>
      <point x="1691" y="1471" type="curve"/>
      <point x="1671" y="1515"/>
      <point x="1628" y="1545"/>
      <point x="1589" y="1545" type="curve" smooth="yes"/>
      <point x="1553" y="1545"/>
      <point x="1528" y="1519"/>
      <point x="1528" y="1485" type="curve" smooth="yes"/>
      <point x="1528" y="1446"/>
      <point x="1560" y="1408"/>
      <point x="1615" y="1394" type="curve"/>
      <point x="1628" y="1264"/>
      <point x="1616" y="1065"/>
      <point x="1585" y="880" type="curve" smooth="yes"/>
      <point x="1498" y="369"/>
      <point x="1356" y="66"/>
      <point x="1203" y="66" type="curve" smooth="yes"/>
      <point x="1139" y="66"/>
      <point x="1096" y="118"/>
      <point x="1070" y="244" type="curve" smooth="yes"/>
      <point x="1041" y="391"/>
      <point x="1035" y="641"/>
      <point x="1048" y="1030" type="curve"/>
      <point x="1054" y="1058"/>
      <point x="1063" y="1088"/>
      <point x="1063" y="1114" type="curve" smooth="yes"/>
      <point x="1063" y="1160"/>
      <point x="1034" y="1195"/>
      <point x="998" y="1195" type="curve" smooth="yes"/>
      <point x="958" y="1195"/>
      <point x="928" y="1160"/>
      <point x="928" y="1101" type="curve" smooth="yes"/>
      <point x="928" y="1069"/>
      <point x="935" y="1041"/>
      <point x="938" y="1016" type="curve"/>
      <point x="873" y="419"/>
      <point x="724" y="66"/>
      <point x="539" y="66" type="curve" smooth="yes"/>
      <point x="438" y="66"/>
      <point x="399" y="141"/>
      <point x="399" y="340" type="curve" smooth="yes"/>
      <point x="399" y="663"/>
      <point x="399" y="984"/>
      <point x="399" y="1306" type="curve" smooth="yes"/>
      <point x="399" y="1448"/>
      <point x="361" y="1513"/>
      <point x="280" y="1513" type="curve" smooth="yes"/>
      <point x="184" y="1513"/>
      <point x="110" y="1424"/>
      <point x="34" y="1216" type="curve" smooth="yes"/>
      <point x="25" y="1191"/>
      <point x="30" y="1175"/>
      <point x="51" y="1166" type="curve" smooth="yes"/>
      <point x="78" y="1155"/>
      <point x="98" y="1160"/>
      <point x="106" y="1183" type="curve" smooth="yes"/>
      <point x="173" y="1356"/>
      <point x="220" y="1430"/>
      <point x="265" y="1430" type="curve" smooth="yes"/>
      <point x="300" y="1430"/>
      <point x="311" y="1399"/>
      <point x="311" y="1306" type="curve" smooth="yes"/>
      <point x="311" y="984"/>
      <point x="311" y="663"/>
      <point x="311" y="340" type="curve" smooth="yes"/>
      <point x="311" y="98"/>
      <point x="383" y="-19"/>
    </contour>
  </outline>
</glyph>
<glyph name="X.dec_locl" format="2">
  <advance width="1564"/>
  <outline>
    <contour>
      <point x="1070" y="-17" type="curve" smooth="yes"/>
      <point x="1190" y="-17"/>
      <point x="1309" y="78"/>
      <point x="1384" y="234" type="curve" smooth="yes"/>
      <point x="1395" y="256"/>
      <point x="1386" y="275"/>
      <point x="1360" y="286" type="curve" smooth="yes"/>
      <point x="1338" y="296"/>
      <point x="1320" y="291"/>
      <point x="1310" y="271" type="curve" smooth="yes"/>
      <point x="1246" y="145"/>
      <point x="1159" y="68"/>
      <point x="1078" y="68" type="curve" smooth="yes"/>
      <point x="923" y="68"/>
      <point x="829" y="323"/>
      <point x="829" y="741" type="curve" smooth="yes"/>
      <point x="829" y="1138"/>
      <point x="970" y="1425"/>
      <point x="1166" y="1425" type="curve" smooth="yes"/>
      <point x="1264" y="1425"/>
      <point x="1334" y="1346"/>
      <point x="1334" y="1239" type="curve" smooth="yes"/>
      <point x="1334" y="728"/>
      <point x="139" y="896"/>
      <point x="139" y="284" type="curve" smooth="yes"/>
      <point x="139" y="109"/>
      <point x="251" y="-17"/>
      <point x="406" y="-17" type="curve" smooth="yes"/>
      <point x="645" y="-17"/>
      <point x="819" y="301"/>
      <point x="819" y="741" type="curve" smooth="yes"/>
      <point x="819" y="1223"/>
      <point x="686" y="1515"/>
      <point x="468" y="1515" type="curve" smooth="yes"/>
      <point x="368" y="1515"/>
      <point x="268" y="1441"/>
      <point x="205" y="1319" type="curve" smooth="yes"/>
      <point x="194" y="1298"/>
      <point x="200" y="1280"/>
      <point x="224" y="1266" type="curve" smooth="yes"/>
      <point x="248" y="1253"/>
      <point x="265" y="1256"/>
      <point x="276" y="1276" type="curve" smooth="yes"/>
      <point x="328" y="1371"/>
      <point x="399" y="1430"/>
      <point x="466" y="1430" type="curve" smooth="yes"/>
      <point x="635" y="1430"/>
      <point x="739" y="1169"/>
      <point x="739" y="741" type="curve" smooth="yes"/>
      <point x="739" y="350"/>
      <point x="598" y="68"/>
      <point x="403" y="68" type="curve" smooth="yes"/>
      <point x="304" y="68"/>
      <point x="233" y="159"/>
      <point x="233" y="284" type="curve" smooth="yes"/>
      <point x="233" y="826"/>
      <point x="1429" y="645"/>
      <point x="1429" y="1239" type="curve" smooth="yes"/>
      <point x="1429" y="1398"/>
      <point x="1319" y="1513"/>
      <point x="1166" y="1513" type="curve" smooth="yes"/>
      <point x="924" y="1513"/>
      <point x="749" y="1189"/>
      <point x="749" y="741" type="curve" smooth="yes"/>
      <point x="749" y="270"/>
      <point x="870" y="-17"/>
    </contour>
  </outline>
</glyph>
<glyph name="X.dec_ro" format="2">
  <advance width="1435"/>
  <outline>
    <contour>
      <point x="435" y="721" type="curve" smooth="yes"/>
      <point x="1015" y="721" type="line" smooth="yes"/>
      <point x="1033" y="721"/>
      <point x="1041" y="738"/>
      <point x="1041" y="765" type="curve" smooth="yes"/>
      <point x="1041" y="793"/>
      <point x="1033" y="805"/>
      <point x="1015" y="805" type="curve" smooth="yes"/>
      <point x="435" y="805" type="line" smooth="yes"/>
      <point x="418" y="805"/>
      <point x="409" y="791"/>
      <point x="409" y="765" type="curve" smooth="yes"/>
      <point x="409" y="739"/>
      <point x="418" y="721"/>
    </contour>
    <component base="X.dec"/>
  </outline>
</glyph>
<glyph name="X.dec_ro.ini" format="2">
  <advance width="1235"/>
  <anchor x="1235" y="0" name="cnct"/>
  <outline>
    <contour>
      <point x="435" y="721" type="curve" smooth="yes"/>
      <point x="1015" y="721" type="line" smooth="yes"/>
      <point x="1033" y="721"/>
      <point x="1041" y="738"/>
      <point x="1041" y="765" type="curve" smooth="yes"/>
      <point x="1041" y="793"/>
      <point x="1033" y="805"/>
      <point x="1015" y="805" type="curve" smooth="yes"/>
      <point x="435" y="805" type="line" smooth="yes"/>
      <point x="418" y="805"/>
      <point x="409" y="791"/>
      <point x="409" y="765" type="curve" smooth="yes"/>
      <point x="409" y="739"/>
      <point x="418" y="721"/>
    </contour>
    <component base="X.dec.ini"/>
  </outline>
</glyph>
<glyph name="Y.cur" format="2">
  <advance width="1413"/>
  <anchor x="1296" y="0" name="bottom"/>
  <anchor x="698" y="1424" name="top"/>
  <outline>
    <contour>
      <point x="853" y="-1020" type="curve" smooth="yes"/>
      <point x="1028" y="-1020"/>
      <point x="1116" y="-870"/>
      <point x="1116" y="-575" type="curve" smooth="yes"/>
      <point x="1116" y="1488" type="line" smooth="yes"/>
      <point x="1116" y="1506"/>
      <point x="1101" y="1515"/>
      <point x="1073" y="1515" type="curve" smooth="yes"/>
      <point x="1044" y="1515"/>
      <point x="1029" y="1506"/>
      <point x="1029" y="1488" type="curve" smooth="yes"/>
      <point x="1029" y="893" type="line"/>
      <point x="976" y="454"/>
      <point x="809" y="173"/>
      <point x="609" y="173" type="curve" smooth="yes"/>
      <point x="491" y="173"/>
      <point x="441" y="260"/>
      <point x="441" y="464" type="curve" smooth="yes"/>
      <point x="441" y="1306" type="line" smooth="yes"/>
      <point x="441" y="1446"/>
      <point x="398" y="1513"/>
      <point x="306" y="1513" type="curve" smooth="yes"/>
      <point x="199" y="1513"/>
      <point x="105" y="1410"/>
      <point x="34" y="1216" type="curve" smooth="yes"/>
      <point x="25" y="1191"/>
      <point x="30" y="1174"/>
      <point x="51" y="1166" type="curve" smooth="yes"/>
      <point x="79" y="1156"/>
      <point x="99" y="1163"/>
      <point x="106" y="1183" type="curve" smooth="yes"/>
      <point x="170" y="1350"/>
      <point x="230" y="1430"/>
      <point x="290" y="1430" type="curve" smooth="yes"/>
      <point x="338" y="1430"/>
      <point x="354" y="1393"/>
      <point x="354" y="1306" type="curve" smooth="yes"/>
      <point x="354" y="451" type="line" smooth="yes"/>
      <point x="354" y="204"/>
      <point x="434" y="88"/>
      <point x="606" y="88" type="curve" smooth="yes"/>
      <point x="793" y="88"/>
      <point x="956" y="284"/>
      <point x="1029" y="576" type="curve"/>
      <point x="1029" y="-575" type="line" smooth="yes"/>
      <point x="1029" y="-814"/>
      <point x="971" y="-935"/>
      <point x="860" y="-935" type="curve" smooth="yes"/>
      <point x="798" y="-935"/>
      <point x="751" y="-876"/>
      <point x="751" y="-796" type="curve" smooth="yes"/>
      <point x="751" y="-585"/>
      <point x="894" y="-390"/>
      <point x="1066" y="-226" type="curve" smooth="yes"/>
      <point x="1174" y="-124"/>
      <point x="1293" y="-32"/>
      <point x="1395" y="44" type="curve" smooth="yes"/>
      <point x="1415" y="59"/>
      <point x="1418" y="76"/>
      <point x="1404" y="96" type="curve" smooth="yes"/>
      <point x="1389" y="120"/>
      <point x="1373" y="126"/>
      <point x="1353" y="111" type="curve" smooth="yes"/>
      <point x="1265" y="48"/>
      <point x="1164" y="-30"/>
      <point x="1066" y="-117" type="curve" smooth="yes"/>
      <point x="854" y="-309"/>
      <point x="658" y="-547"/>
      <point x="658" y="-796" type="curve" smooth="yes"/>
      <point x="658" y="-926"/>
      <point x="740" y="-1020"/>
    </contour>
  </outline>
</glyph>
<glyph name="Y.cur.ini" format="2">
  <advance width="1264"/>
  <anchor x="1297" y="0" name="bottom"/>
  <anchor x="1264" y="0" name="cnct"/>
  <anchor x="698" y="1424" name="top"/>
  <outline>
    <contour>
      <point x="607" y="88" type="curve" smooth="yes"/>
      <point x="793" y="88"/>
      <point x="957" y="284"/>
      <point x="1029" y="576" type="curve"/>
      <point x="1029" y="-575" type="line" smooth="yes"/>
      <point x="1029" y="-814"/>
      <point x="972" y="-935"/>
      <point x="860" y="-935" type="curve" smooth="yes"/>
      <point x="798" y="-935"/>
      <point x="752" y="-876"/>
      <point x="752" y="-796" type="curve" smooth="yes"/>
      <point x="752" y="-746"/>
      <point x="658" y="-746"/>
      <point x="658" y="-796" type="curve" smooth="yes"/>
      <point x="658" y="-926"/>
      <point x="740" y="-1020"/>
      <point x="853" y="-1020" type="curve" smooth="yes"/>
      <point x="1028" y="-1020"/>
      <point x="1117" y="-870"/>
      <point x="1117" y="-575" type="curve" smooth="yes"/>
      <point x="1117" y="1488" type="line" smooth="yes"/>
      <point x="1117" y="1506"/>
      <point x="1102" y="1515"/>
      <point x="1073" y="1515" type="curve" smooth="yes"/>
      <point x="1044" y="1515"/>
      <point x="1029" y="1506"/>
      <point x="1029" y="1488" type="curve" smooth="yes"/>
      <point x="1029" y="893" type="line"/>
      <point x="977" y="454"/>
      <point x="809" y="173"/>
      <point x="609" y="173" type="curve" smooth="yes"/>
      <point x="492" y="173"/>
      <point x="442" y="260"/>
      <point x="442" y="464" type="curve" smooth="yes"/>
      <point x="442" y="1306" type="line" smooth="yes"/>
      <point x="442" y="1446"/>
      <point x="398" y="1513"/>
      <point x="307" y="1513" type="curve" smooth="yes"/>
      <point x="199" y="1513"/>
      <point x="105" y="1410"/>
      <point x="34" y="1216" type="curve" smooth="yes"/>
      <point x="25" y="1191"/>
      <point x="30" y="1174"/>
      <point x="52" y="1166" type="curve" smooth="yes"/>
      <point x="79" y="1156"/>
      <point x="99" y="1163"/>
      <point x="107" y="1183" type="curve" smooth="yes"/>
      <point x="170" y="1350"/>
      <point x="230" y="1430"/>
      <point x="290" y="1430" type="curve" smooth="yes"/>
      <point x="338" y="1430"/>
      <point x="354" y="1393"/>
      <point x="354" y="1306" type="curve" smooth="yes"/>
      <point x="354" y="451" type="line" smooth="yes"/>
      <point x="354" y="204"/>
      <point x="434" y="88"/>
    </contour>
  </outline>
</glyph>
<glyph name="Z.cur" format="2">
  <advance width="1148"/>
  <anchor x="610" y="0" name="bottom"/>
  <anchor x="610" y="786" name="center"/>
  <anchor x="610" y="1424" name="top"/>
  <outline>
    <contour>
      <point x="549" y="-1020" type="curve" smooth="yes"/>
      <point x="745" y="-1020"/>
      <point x="828" y="-800"/>
      <point x="828" y="-369" type="curve" smooth="yes"/>
      <point x="828" y="141"/>
      <point x="738" y="369"/>
      <point x="525" y="396" type="curve"/>
      <point x="525" y="398" type="line"/>
      <point x="870" y="605"/>
      <point x="1045" y="855"/>
      <point x="1045" y="1135" type="curve" smooth="yes"/>
      <point x="1045" y="1371"/>
      <point x="903" y="1515"/>
      <point x="670" y="1515" type="curve" smooth="yes"/>
      <point x="480" y="1515"/>
      <point x="311" y="1430"/>
      <point x="96" y="1228" type="curve" smooth="yes"/>
      <point x="79" y="1211"/>
      <point x="79" y="1190"/>
      <point x="101" y="1168" type="curve" smooth="yes"/>
      <point x="123" y="1146"/>
      <point x="139" y="1150"/>
      <point x="159" y="1170" type="curve" smooth="yes"/>
      <point x="344" y="1353"/>
      <point x="494" y="1430"/>
      <point x="666" y="1430" type="curve" smooth="yes"/>
      <point x="844" y="1430"/>
      <point x="951" y="1318"/>
      <point x="951" y="1133" type="curve" smooth="yes"/>
      <point x="951" y="871"/>
      <point x="775" y="634"/>
      <point x="429" y="429" type="curve" smooth="yes"/>
      <point x="383" y="401"/>
      <point x="403" y="330"/>
      <point x="445" y="330" type="curve" smooth="yes"/>
      <point x="660" y="328"/>
      <point x="734" y="148"/>
      <point x="734" y="-372" type="curve" smooth="yes"/>
      <point x="734" y="-745"/>
      <point x="676" y="-934"/>
      <point x="555" y="-934" type="curve" smooth="yes"/>
      <point x="500" y="-934"/>
      <point x="463" y="-881"/>
      <point x="463" y="-796" type="curve" smooth="yes"/>
      <point x="463" y="-565"/>
      <point x="581" y="-356"/>
      <point x="1118" y="41" type="curve" smooth="yes"/>
      <point x="1138" y="56"/>
      <point x="1140" y="75"/>
      <point x="1126" y="96" type="curve" smooth="yes"/>
      <point x="1111" y="120"/>
      <point x="1095" y="126"/>
      <point x="1075" y="111" type="curve" smooth="yes"/>
      <point x="530" y="-285"/>
      <point x="369" y="-541"/>
      <point x="369" y="-797" type="curve" smooth="yes"/>
      <point x="369" y="-936"/>
      <point x="439" y="-1020"/>
    </contour>
  </outline>
</glyph>
<glyph name="Z.cur.ini" format="2">
  <advance width="1000"/>
  <anchor x="610" y="0" name="bottom"/>
  <anchor x="610" y="786" name="center"/>
  <anchor x="1000" y="0" name="cnct"/>
  <anchor x="610" y="1424" name="top"/>
  <outline>
    <contour>
      <point x="578" y="-1020" type="curve" smooth="yes"/>
      <point x="773" y="-1020"/>
      <point x="854" y="-800"/>
      <point x="854" y="-369" type="curve" smooth="yes"/>
      <point x="854" y="141"/>
      <point x="774" y="369"/>
      <point x="525" y="396" type="curve"/>
      <point x="525" y="398" type="line"/>
      <point x="870" y="605"/>
      <point x="1045" y="855"/>
      <point x="1045" y="1135" type="curve" smooth="yes"/>
      <point x="1045" y="1371"/>
      <point x="903" y="1515"/>
      <point x="670" y="1515" type="curve" smooth="yes"/>
      <point x="480" y="1515"/>
      <point x="311" y="1430"/>
      <point x="96" y="1228" type="curve" smooth="yes"/>
      <point x="79" y="1211"/>
      <point x="79" y="1190"/>
      <point x="101" y="1168" type="curve" smooth="yes"/>
      <point x="123" y="1146"/>
      <point x="139" y="1150"/>
      <point x="159" y="1170" type="curve" smooth="yes"/>
      <point x="344" y="1353"/>
      <point x="494" y="1430"/>
      <point x="666" y="1430" type="curve" smooth="yes"/>
      <point x="844" y="1430"/>
      <point x="951" y="1318"/>
      <point x="951" y="1133" type="curve" smooth="yes"/>
      <point x="951" y="871"/>
      <point x="775" y="634"/>
      <point x="429" y="429" type="curve" smooth="yes"/>
      <point x="383" y="401"/>
      <point x="403" y="330"/>
      <point x="445" y="330" type="curve" smooth="yes"/>
      <point x="699" y="328"/>
      <point x="760" y="148"/>
      <point x="760" y="-369" type="curve" smooth="yes"/>
      <point x="760" y="-745"/>
      <point x="703" y="-934"/>
      <point x="584" y="-934" type="curve" smooth="yes"/>
      <point x="523" y="-934"/>
      <point x="488" y="-881"/>
      <point x="488" y="-796" type="curve" smooth="yes"/>
      <point x="488" y="-746"/>
      <point x="394" y="-746"/>
      <point x="394" y="-796" type="curve" smooth="yes"/>
      <point x="394" y="-936"/>
      <point x="461" y="-1020"/>
    </contour>
  </outline>
</glyph>
<glyph name=".notdef" format="2">
  <advance width="1300"/>
  <outline>
    <contour>
      <point x="204" y="1503" type="line"/>
      <point x="204" y="0" type="line"/>
      <point x="1096" y="0" type="line"/>
      <point x="1096" y="1503" type="line"/>
    </contour>
    <contour>
      <point x="290" y="1423" type="line"/>
      <point x="1010" y="1423" type="line"/>
      <point x="1010" y="80" type="line"/>
      <point x="290" y="80" type="line"/>
    </contour>
  </outline>
</glyph>
<glyph name="a.mod.ini" format="2">
  <advance width="635"/>
  <anchor x="296" y="0" name="bottom"/>
  <anchor x="635" y="0" name="cnct"/>
  <anchor x="545" y="0" name="ogonek"/>
  <anchor x="313" y="500" name="top"/>
  <outline>
    <contour>
      <point x="239" y="-17" type="curve" smooth="yes"/>
      <point x="355" y="-17"/>
      <point x="450" y="128"/>
      <point x="454" y="364" type="curve"/>
      <point x="433" y="441" type="line"/>
      <point x="413" y="215"/>
      <point x="336" y="63"/>
      <point x="254" y="63" type="curve" smooth="yes"/>
      <point x="186" y="63"/>
      <point x="164" y="131"/>
      <point x="164" y="224" type="curve" smooth="yes"/>
      <point x="164" y="364"/>
      <point x="218" y="441"/>
      <point x="315" y="441" type="curve" smooth="yes"/>
      <point x="354" y="441"/>
      <point x="406" y="429"/>
      <point x="461" y="386" type="curve"/>
      <point x="461" y="466" type="line"/>
      <point x="406" y="504"/>
      <point x="360" y="519"/>
      <point x="301" y="519" type="curve" smooth="yes"/>
      <point x="155" y="519"/>
      <point x="75" y="398"/>
      <point x="75" y="223" type="curve" smooth="yes"/>
      <point x="75" y="71"/>
      <point x="138" y="-17"/>
    </contour>
    <contour>
      <point x="526" y="-17" type="curve" smooth="yes"/>
      <point x="583" y="-17"/>
      <point x="583" y="58"/>
      <point x="545" y="58" type="curve" smooth="yes"/>
      <point x="519" y="58"/>
      <point x="510" y="76"/>
      <point x="510" y="131" type="curve" smooth="yes"/>
      <point x="510" y="489" type="line" smooth="yes"/>
      <point x="510" y="506"/>
      <point x="495" y="515"/>
      <point x="466" y="515" type="curve" smooth="yes"/>
      <point x="438" y="515"/>
      <point x="424" y="506"/>
      <point x="424" y="489" type="curve" smooth="yes"/>
      <point x="424" y="119" type="line" smooth="yes"/>
      <point x="424" y="8"/>
      <point x="476" y="-17"/>
    </contour>
  </outline>
</glyph>
<glyph name="b.jmc_dk.fin" format="2">
  <advance width="623"/>
  <anchor x="333" y="0" name="bottom"/>
  <anchor x="365" y="250" name="center"/>
  <anchor x="438" y="500" name="top"/>
  <outline>
    <contour>
      <point x="165" y="-15" type="curve" smooth="yes"/>
      <point x="194" y="-15"/>
      <point x="209" y="-6"/>
      <point x="209" y="11" type="curve" smooth="yes"/>
      <point x="209" y="1256" type="line" smooth="yes"/>
      <point x="209" y="1384"/>
      <point x="226" y="1439"/>
      <point x="273" y="1439" type="curve" smooth="yes"/>
      <point x="309" y="1439"/>
      <point x="325" y="1384"/>
      <point x="325" y="1256" type="curve" smooth="yes"/>
      <point x="325" y="1030"/>
      <point x="251" y="754"/>
      <point x="150" y="481" type="curve"/>
      <point x="158" y="350" type="line"/>
      <point x="305" y="665"/>
      <point x="411" y="1001"/>
      <point x="411" y="1256" type="curve" smooth="yes"/>
      <point x="411" y="1440"/>
      <point x="370" y="1519"/>
      <point x="273" y="1519" type="curve" smooth="yes"/>
      <point x="168" y="1519"/>
      <point x="123" y="1440"/>
      <point x="123" y="1256" type="curve" smooth="yes"/>
      <point x="123" y="11" type="line" smooth="yes"/>
      <point x="123" y="-6"/>
      <point x="136" y="-15"/>
    </contour>
    <contour>
      <point x="185" y="26" type="curve" smooth="yes"/>
      <point x="246" y="-9"/>
      <point x="288" y="-17"/>
      <point x="327" y="-17" type="curve" smooth="yes"/>
      <point x="478" y="-17"/>
      <point x="558" y="104"/>
      <point x="558" y="279" type="curve" smooth="yes"/>
      <point x="558" y="430"/>
      <point x="496" y="519"/>
      <point x="392" y="519" type="curve" smooth="yes"/>
      <point x="317" y="519"/>
      <point x="251" y="471"/>
      <point x="209" y="356" type="curve"/>
      <point x="209" y="150" type="line"/>
      <point x="237" y="365"/>
      <point x="307" y="439"/>
      <point x="378" y="439" type="curve" smooth="yes"/>
      <point x="447" y="439"/>
      <point x="469" y="363"/>
      <point x="469" y="278" type="curve" smooth="yes"/>
      <point x="469" y="138"/>
      <point x="414" y="58"/>
      <point x="319" y="58" type="curve" smooth="yes"/>
      <point x="289" y="58"/>
      <point x="251" y="66"/>
      <point x="209" y="90" type="curve" smooth="yes"/>
      <point x="174" y="110"/>
      <point x="149" y="46"/>
    </contour>
  </outline>
</glyph>
<glyph name="b.jmc_dk.ini" format="2">
  <advance width="664"/>
  <anchor x="664" y="0" name="cnct"/>
  <anchor x="313" y="0" name="bottom"/>
  <anchor x="385" y="250" name="center"/>
  <anchor x="438" y="500" name="top"/>
  <outline>
    <contour>
      <point x="555" y="-17" type="curve" smooth="yes"/>
      <point x="580" y="-17"/>
      <point x="599" y="58"/>
      <point x="574" y="58" type="curve" smooth="yes"/>
      <point x="515" y="58"/>
      <point x="489" y="70"/>
      <point x="363" y="39" type="curve"/>
      <point x="331" y="-2" type="line"/>
      <point x="400" y="25"/>
      <point x="495" y="-17"/>
    </contour>
    <component base="b.jmc_dk"/>
  </outline>
</glyph>
<glyph name="b.lop.fin" format="2">
  <advance width="614"/>
  <anchor x="335" y="0" name="bottom"/>
  <anchor x="335" y="250" name="center"/>
  <anchor x="335" y="500" name="top"/>
  <outline>
    <contour>
      <point x="283" y="-19" type="curve" smooth="yes"/>
      <point x="444" y="-19"/>
      <point x="535" y="173"/>
      <point x="535" y="321" type="curve" smooth="yes"/>
      <point x="535" y="376"/>
      <point x="523" y="420"/>
      <point x="491" y="475" type="curve" smooth="yes"/>
      <point x="478" y="499"/>
      <point x="464" y="520"/>
      <point x="443" y="520" type="curve" smooth="yes"/>
      <point x="405" y="520"/>
      <point x="380" y="493"/>
      <point x="404" y="456" type="curve" smooth="yes"/>
      <point x="435" y="409"/>
      <point x="446" y="363"/>
      <point x="446" y="309" type="curve" smooth="yes"/>
      <point x="446" y="200"/>
      <point x="376" y="61"/>
      <point x="294" y="61" type="curve" smooth="yes"/>
      <point x="235" y="61"/>
      <point x="209" y="101"/>
      <point x="209" y="189" type="curve" smooth="yes"/>
      <point x="209" y="1256" type="line" smooth="yes"/>
      <point x="209" y="1384"/>
      <point x="226" y="1439"/>
      <point x="269" y="1439" type="curve" smooth="yes"/>
      <point x="309" y="1439"/>
      <point x="325" y="1384"/>
      <point x="325" y="1256" type="curve" smooth="yes"/>
      <point x="325" y="1206"/>
      <point x="411" y="1206"/>
      <point x="411" y="1256" type="curve" smooth="yes"/>
      <point x="411" y="1440"/>
      <point x="370" y="1519"/>
      <point x="273" y="1519" type="curve" smooth="yes"/>
      <point x="168" y="1519"/>
      <point x="123" y="1440"/>
      <point x="123" y="1256" type="curve" smooth="yes"/>
      <point x="123" y="189" type="line" smooth="yes"/>
      <point x="123" y="46"/>
      <point x="183" y="-19"/>
    </contour>
  </outline>
</glyph>
<glyph name="b.lop.ini" format="2">
  <advance width="614"/>
  <anchor x="614" y="0" name="cnct"/>
  <anchor x="335" y="0" name="bottom"/>
  <anchor x="335" y="250" name="center"/>
  <anchor x="335" y="500" name="top"/>
  <outline>
    <contour>
      <point x="-102" y="-17" type="curve" smooth="yes"/>
      <point x="115" y="-17"/>
      <point x="411" y="690"/>
      <point x="411" y="1256" type="curve" smooth="yes"/>
      <point x="411" y="1306"/>
      <point x="325" y="1306"/>
      <point x="325" y="1256" type="curve" smooth="yes"/>
      <point x="325" y="675"/>
      <point x="65" y="58"/>
      <point x="-102" y="58" type="curve" smooth="yes"/>
      <point x="-152" y="58"/>
      <point x="-152" y="-17"/>
    </contour>
    <component base="b.lop.med"/>
  </outline>
</glyph>
<glyph name="brevecomb_tildecomb.case" format="2">
  <anchor x="0" y="1425" name="_top"/>
  <anchor x="0" y="1891" name="top"/>
  <outline>
    <contour>
      <point x="0" y="1568" type="curve" smooth="yes"/>
      <point x="111" y="1568"/>
      <point x="185" y="1633"/>
      <point x="194" y="1756" type="curve" smooth="yes"/>
      <point x="195" y="1773"/>
      <point x="180" y="1785"/>
      <point x="155" y="1785" type="curve" smooth="yes"/>
      <point x="134" y="1785"/>
      <point x="129" y="1775"/>
      <point x="124" y="1756" type="curve" smooth="yes"/>
      <point x="108" y="1686"/>
      <point x="74" y="1656"/>
      <point x="0" y="1656" type="curve" smooth="yes"/>
      <point x="-74" y="1656"/>
      <point x="-107" y="1686"/>
      <point x="-125" y="1756" type="curve" smooth="yes"/>
      <point x="-129" y="1774"/>
      <point x="-135" y="1785"/>
      <point x="-156" y="1785" type="curve" smooth="yes"/>
      <point x="-181" y="1785"/>
      <point x="-195" y="1773"/>
      <point x="-194" y="1756" type="curve" smooth="yes"/>
      <point x="-185" y="1626"/>
      <point x="-116" y="1568"/>
    </contour>
    <contour>
      <point x="-162" y="1812" type="curve" smooth="yes"/>
      <point x="-140" y="1812"/>
      <point x="-127" y="1821"/>
      <point x="-126" y="1839" type="curve" smooth="yes"/>
      <point x="-124" y="1872"/>
      <point x="-117" y="1890"/>
      <point x="-96" y="1890" type="curve" smooth="yes"/>
      <point x="-51" y="1890"/>
      <point x="6" y="1814"/>
      <point x="90" y="1814" type="curve" smooth="yes"/>
      <point x="158" y="1814"/>
      <point x="190" y="1856"/>
      <point x="191" y="1940" type="curve" smooth="yes"/>
      <point x="191" y="1959"/>
      <point x="180" y="1967"/>
      <point x="155" y="1967" type="curve" smooth="yes"/>
      <point x="133" y="1967"/>
      <point x="123" y="1961"/>
      <point x="121" y="1946" type="curve" smooth="yes"/>
      <point x="119" y="1915"/>
      <point x="111" y="1891"/>
      <point x="90" y="1891" type="curve" smooth="yes"/>
      <point x="41" y="1891"/>
      <point x="-10" y="1966"/>
      <point x="-96" y="1966" type="curve" smooth="yes"/>
      <point x="-163" y="1966"/>
      <point x="-195" y="1922"/>
      <point x="-196" y="1839" type="curve" smooth="yes"/>
      <point x="-196" y="1821"/>
      <point x="-185" y="1812"/>
    </contour>
  </outline>
</glyph>
<glyph name="cnct.cnt_C_z" format="2">
  <anchor x="0" y="0" name="_cnct"/>
  <outline>
    <contour>
      <point x="-446" y="-17" type="curve" smooth="yes"/>
      <point x="-264" y="-17"/>
      <point x="-107" y="46"/>
      <point x="62" y="252" type="curve" smooth="yes"/>
      <point x="166" y="378"/>
      <point x="228" y="440"/>
      <point x="298" y="440" type="curve" smooth="yes"/>
      <point x="335" y="440"/>
      <point x="338" y="519"/>
      <point x="299" y="519" type="curve" smooth="yes"/>
      <point x="204" y="519"/>
      <point x="131" y="447"/>
      <point x="10" y="302" type="curve" smooth="yes"/>
      <point x="-147" y="114"/>
      <point x="-290" y="58"/>
      <point x="-446" y="58" type="curve" smooth="yes"/>
      <point x="-486" y="58"/>
      <point x="-486" y="-17"/>
    </contour>
  </outline>
</glyph>
<glyph name="cnct.cnt_G_n" format="2">
  <anchor x="0" y="0" name="_cnct"/>
  <outline>
    <contour>
      <point x="-606" y="-796" type="curve" smooth="yes"/>
      <point x="-606" y="-846"/>
      <point x="-512" y="-846"/>
      <point x="-512" y="-796" type="curve" smooth="yes"/>
      <point x="-512" y="-574"/>
      <point x="-295" y="-405"/>
      <point x="-106" y="-181" type="curve" smooth="yes"/>
      <point x="204" y="185"/>
      <point x="191" y="444"/>
      <point x="275" y="444" type="curve" smooth="yes"/>
      <point x="321" y="444"/>
      <point x="318" y="519"/>
      <point x="276" y="519" type="curve" smooth="yes"/>
      <point x="115" y="519"/>
      <point x="149" y="203"/>
      <point x="-155" y="-125" type="curve" smooth="yes"/>
      <point x="-365" y="-351"/>
      <point x="-606" y="-557"/>
    </contour>
  </outline>
</glyph>
<glyph name="cnct.cnt_b_n" format="2">
  <anchor x="0" y="0" name="_cnct"/>
  <outline>
    <contour>
      <point x="-71" y="384" type="curve" smooth="yes"/>
      <point x="18" y="384"/>
      <point x="74" y="444"/>
      <point x="116" y="444" type="curve" smooth="yes"/>
      <point x="163" y="444"/>
      <point x="161" y="519"/>
      <point x="121" y="519" type="curve" smooth="yes"/>
      <point x="58" y="519"/>
      <point x="-4" y="451"/>
      <point x="-70" y="451" type="curve" smooth="yes"/>
      <point x="-109" y="451"/>
      <point x="-126" y="459"/>
      <point x="-141" y="469" type="curve"/>
      <point x="-141" y="400" type="line"/>
      <point x="-127" y="394"/>
      <point x="-105" y="384"/>
    </contour>
  </outline>
</glyph>
<glyph name="cnct.cnt_n_z" format="2">
  <anchor x="0" y="0" name="_cnct"/>
  <outline>
    <contour>
      <point x="-107" y="-17" type="curve" smooth="yes"/>
      <point x="-16" y="-17"/>
      <point x="50" y="21"/>
      <point x="128" y="271" type="curve" smooth="yes"/>
      <point x="175" y="424"/>
      <point x="238" y="440"/>
      <point x="298" y="440" type="curve" smooth="yes"/>
      <point x="335" y="440"/>
      <point x="338" y="519"/>
      <point x="299" y="519" type="curve" smooth="yes"/>
      <point x="213" y="519"/>
      <point x="116" y="481"/>
      <point x="55" y="280" type="curve" smooth="yes"/>
      <point x="1" y="105"/>
      <point x="-42" y="58"/>
      <point x="-90" y="58" type="curve" smooth="yes"/>
      <point x="-135" y="58"/>
      <point x="-132" y="-17"/>
    </contour>
  </outline>
</glyph>
<glyph name="cnct.cnt_r_s" format="2">
  <anchor x="0" y="0" name="_cnct"/>
  <outline>
    <contour>
      <point x="40" y="304" type="curve" smooth="yes"/>
      <point x="109" y="304"/>
      <point x="173" y="369"/>
      <point x="228" y="461" type="curve" smooth="yes"/>
      <point x="241" y="484"/>
      <point x="201" y="523"/>
      <point x="188" y="501" type="curve" smooth="yes"/>
      <point x="141" y="430"/>
      <point x="101" y="370"/>
      <point x="53" y="370" type="curve" smooth="yes"/>
      <point x="15" y="370"/>
      <point x="-2" y="403"/>
      <point x="-2" y="469" type="curve" smooth="yes"/>
      <point x="-2" y="513"/>
      <point x="-24" y="519"/>
      <point x="-47" y="519" type="curve"/>
      <point x="-75" y="434" type="line"/>
      <point x="-62" y="346"/>
      <point x="-26" y="304"/>
    </contour>
  </outline>
</glyph>
<glyph name="cnct.cnt_z_n" format="2">
  <anchor x="0" y="0" name="_cnct"/>
  <outline>
    <contour>
      <point x="-396" y="-791" type="curve" smooth="yes"/>
      <point x="-396" y="-841"/>
      <point x="-306" y="-839"/>
      <point x="-306" y="-789" type="curve" smooth="yes"/>
      <point x="-306" y="-545"/>
      <point x="-204" y="-256"/>
      <point x="-62" y="-104" type="curve" smooth="yes"/>
      <point x="25" y="-10"/>
      <point x="79" y="99"/>
      <point x="155" y="333" type="curve" smooth="yes"/>
      <point x="176" y="399"/>
      <point x="201" y="444"/>
      <point x="231" y="444" type="curve" smooth="yes"/>
      <point x="278" y="444"/>
      <point x="274" y="519"/>
      <point x="233" y="519" type="curve" smooth="yes"/>
      <point x="160" y="519"/>
      <point x="123" y="453"/>
      <point x="91" y="363" type="curve" smooth="yes"/>
      <point x="14" y="135"/>
      <point x="-12" y="63"/>
      <point x="-100" y="-34" type="curve" smooth="yes"/>
      <point x="-277" y="-230"/>
      <point x="-396" y="-547"/>
    </contour>
  </outline>
</glyph>
<glyph name="cnct.cnt_z_z" format="2">
  <anchor x="0" y="0" name="_cnct"/>
  <outline>
    <contour>
      <point x="-306" y="-789" type="curve" smooth="yes"/>
      <point x="-306" y="-545"/>
      <point x="-191" y="-244"/>
      <point x="-50" y="-91" type="curve" smooth="yes"/>
      <point x="59" y="26"/>
      <point x="78" y="149"/>
      <point x="135" y="293" type="curve" smooth="yes"/>
      <point x="178" y="399"/>
      <point x="225" y="440"/>
      <point x="279" y="440" type="curve" smooth="yes"/>
      <point x="315" y="440"/>
      <point x="311" y="519"/>
      <point x="280" y="519" type="curve" smooth="yes"/>
      <point x="184" y="519"/>
      <point x="118" y="456"/>
      <point x="63" y="305" type="curve" smooth="yes"/>
      <point x="20" y="188"/>
      <point x="4" y="79"/>
      <point x="-87" y="-21" type="curve" smooth="yes"/>
      <point x="-265" y="-217"/>
      <point x="-396" y="-546"/>
      <point x="-396" y="-791" type="curve" smooth="yes"/>
      <point x="-396" y="-841"/>
      <point x="-306" y="-839"/>
    </contour>
  </outline>
</glyph>
<glyph name="cnct.ful_C_e" format="2">
  <anchor x="0" y="0" name="_cnct"/>
  <outline>
    <contour>
      <point x="-446" y="-17" type="curve" smooth="yes"/>
      <point x="-302" y="-17"/>
      <point x="-108" y="-6"/>
      <point x="118" y="123" type="curve" smooth="yes"/>
      <point x="146" y="139"/>
      <point x="119" y="201"/>
      <point x="91" y="186" type="curve" smooth="yes"/>
      <point x="-132" y="66"/>
      <point x="-317" y="58"/>
      <point x="-446" y="58" type="curve" smooth="yes"/>
      <point x="-486" y="58"/>
      <point x="-486" y="-17"/>
    </contour>
  </outline>
</glyph>
<glyph name="cnct.ful_C_r" format="2">
  <anchor x="0" y="0" name="_cnct"/>
  <outline>
    <contour>
      <point x="-446" y="-17" type="curve" smooth="yes"/>
      <point x="-201" y="-17"/>
      <point x="32" y="157"/>
      <point x="183" y="440" type="curve" smooth="yes"/>
      <point x="200" y="472"/>
      <point x="129" y="490"/>
      <point x="111" y="459" type="curve" smooth="yes"/>
      <point x="-35" y="198"/>
      <point x="-245" y="58"/>
      <point x="-446" y="58" type="curve" smooth="yes"/>
      <point x="-496" y="58"/>
      <point x="-496" y="-17"/>
    </contour>
  </outline>
</glyph>
<glyph name="cnct.ful_C_x" format="2">
  <anchor x="0" y="0" name="_cnct"/>
  <outline>
    <contour>
      <point x="-446" y="-17" type="curve" smooth="yes"/>
      <point x="-168" y="-17"/>
      <point x="-45" y="153"/>
      <point x="46" y="298" type="curve" smooth="yes"/>
      <point x="122" y="419"/>
      <point x="144" y="444"/>
      <point x="175" y="444" type="curve" smooth="yes"/>
      <point x="225" y="444"/>
      <point x="244" y="519"/>
      <point x="194" y="519" type="curve" smooth="yes"/>
      <point x="116" y="519"/>
      <point x="79" y="486"/>
      <point x="-19" y="326" type="curve" smooth="yes"/>
      <point x="-115" y="169"/>
      <point x="-230" y="58"/>
      <point x="-446" y="58" type="curve" smooth="yes"/>
      <point x="-486" y="58"/>
      <point x="-486" y="-17"/>
    </contour>
  </outline>
</glyph>
<glyph name="cnct.ful_G_e" format="2">
  <anchor x="0" y="0" name="_cnct"/>
  <outline>
    <contour>
      <point x="-606" y="-796" type="curve" smooth="yes"/>
      <point x="-606" y="-846"/>
      <point x="-512" y="-846"/>
      <point x="-512" y="-796" type="curve" smooth="yes"/>
      <point x="-512" y="-637"/>
      <point x="-409" y="-479"/>
      <point x="-161" y="-261" type="curve" smooth="yes"/>
      <point x="71" y="-56"/>
      <point x="226" y="63"/>
      <point x="243" y="96" type="curve" smooth="yes"/>
      <point x="259" y="130"/>
      <point x="213" y="183"/>
      <point x="193" y="146" type="curve" smooth="yes"/>
      <point x="185" y="133"/>
      <point x="104" y="46"/>
      <point x="-196" y="-192" type="curve" smooth="yes"/>
      <point x="-494" y="-429"/>
      <point x="-606" y="-624"/>
    </contour>
  </outline>
</glyph>
<glyph name="cnct.ful_G_z" format="2">
  <anchor x="0" y="0" name="_cnct"/>
  <outline>
    <contour>
      <point x="-606" y="-796" type="curve" smooth="yes"/>
      <point x="-606" y="-846"/>
      <point x="-512" y="-846"/>
      <point x="-512" y="-796" type="curve" smooth="yes"/>
      <point x="-512" y="-574"/>
      <point x="-295" y="-405"/>
      <point x="-102" y="-177" type="curve" smooth="yes"/>
      <point x="130" y="96"/>
      <point x="174" y="179"/>
      <point x="235" y="460" type="curve" smooth="yes"/>
      <point x="241" y="489"/>
      <point x="179" y="510"/>
      <point x="173" y="483" type="curve" smooth="yes"/>
      <point x="104" y="186"/>
      <point x="61" y="106"/>
      <point x="-155" y="-125" type="curve" smooth="yes"/>
      <point x="-365" y="-351"/>
      <point x="-606" y="-557"/>
    </contour>
  </outline>
</glyph>
<glyph name="cnct.ful_X_x" format="2">
  <anchor x="25" y="0" name="_cnct"/>
  <outline>
    <contour>
      <point x="-195" y="-17" type="curve" smooth="yes"/>
      <point x="-91" y="-17"/>
      <point x="-11" y="53"/>
      <point x="95" y="270" type="curve" smooth="yes"/>
      <point x="151" y="388"/>
      <point x="181" y="444"/>
      <point x="221" y="444" type="curve" smooth="yes"/>
      <point x="265" y="444"/>
      <point x="265" y="519"/>
      <point x="240" y="519" type="curve" smooth="yes"/>
      <point x="134" y="519"/>
      <point x="86" y="414"/>
      <point x="31" y="295" type="curve" smooth="yes"/>
      <point x="-54" y="115"/>
      <point x="-119" y="58"/>
      <point x="-195" y="58" type="curve" smooth="yes"/>
      <point x="-245" y="58"/>
      <point x="-245" y="-17"/>
    </contour>
  </outline>
</glyph>
<glyph name="cnct.ful_b_n" format="2">
  <anchor x="0" y="0" name="_cnct"/>
  <outline>
    <contour>
      <point x="-34" y="391" type="curve" smooth="yes"/>
      <point x="39" y="391"/>
      <point x="121" y="416"/>
      <point x="166" y="458" type="curve" smooth="yes"/>
      <point x="193" y="481"/>
      <point x="159" y="530"/>
      <point x="138" y="504" type="curve" smooth="yes"/>
      <point x="116" y="478"/>
      <point x="44" y="459"/>
      <point x="-24" y="459" type="curve" smooth="yes"/>
      <point x="-62" y="459"/>
      <point x="-101" y="466"/>
      <point x="-129" y="481" type="curve" smooth="yes"/>
      <point x="-155" y="496"/>
      <point x="-184" y="446"/>
      <point x="-154" y="429" type="curve" smooth="yes"/>
      <point x="-110" y="404"/>
      <point x="-81" y="391"/>
    </contour>
  </outline>
</glyph>
<glyph name="cnct.ful_b_s" format="2">
  <anchor x="0" y="0" name="_cnct"/>
  <outline>
    <contour>
      <point x="45" y="266" type="curve" smooth="yes"/>
      <point x="119" y="266"/>
      <point x="181" y="328"/>
      <point x="230" y="490" type="curve" smooth="yes"/>
      <point x="241" y="529"/>
      <point x="193" y="543"/>
      <point x="180" y="506" type="curve" smooth="yes"/>
      <point x="141" y="393"/>
      <point x="101" y="334"/>
      <point x="48" y="334" type="curve" smooth="yes"/>
      <point x="-7" y="334"/>
      <point x="-60" y="381"/>
      <point x="-119" y="468" type="curve" smooth="yes"/>
      <point x="-142" y="503"/>
      <point x="-185" y="469"/>
      <point x="-166" y="439" type="curve" smooth="yes"/>
      <point x="-92" y="319"/>
      <point x="-35" y="266"/>
    </contour>
  </outline>
</glyph>
<glyph name="cnct.ful_b_z" format="2">
  <anchor x="0" y="0" name="_cnct"/>
  <outline>
    <contour>
      <point x="-50" y="391" type="curve" smooth="yes"/>
      <point x="1" y="391"/>
      <point x="48" y="406"/>
      <point x="88" y="441" type="curve" smooth="yes"/>
      <point x="110" y="463"/>
      <point x="76" y="513"/>
      <point x="55" y="494" type="curve" smooth="yes"/>
      <point x="24" y="468"/>
      <point x="-19" y="459"/>
      <point x="-59" y="459" type="curve" smooth="yes"/>
      <point x="-92" y="459"/>
      <point x="-125" y="465"/>
      <point x="-146" y="474" type="curve" smooth="yes"/>
      <point x="-182" y="489"/>
      <point x="-196" y="425"/>
      <point x="-164" y="414" type="curve"/>
      <point x="-125" y="399"/>
      <point x="-86" y="391"/>
    </contour>
  </outline>
</glyph>
<glyph name="cnct.ful_b_z.mod" format="2">
  <anchor x="0" y="0" name="_cnct"/>
  <outline>
    <contour>
      <point x="-39" y="391" type="curve" smooth="yes"/>
      <point x="11" y="391"/>
      <point x="63" y="404"/>
      <point x="105" y="441" type="curve" smooth="yes"/>
      <point x="128" y="463"/>
      <point x="94" y="513"/>
      <point x="73" y="494" type="curve" smooth="yes"/>
      <point x="41" y="468"/>
      <point x="-6" y="458"/>
      <point x="-52" y="458" type="curve" smooth="yes"/>
      <point x="-89" y="458"/>
      <point x="-124" y="464"/>
      <point x="-146" y="474" type="curve" smooth="yes"/>
      <point x="-182" y="489"/>
      <point x="-196" y="425"/>
      <point x="-164" y="414" type="curve"/>
      <point x="-126" y="401"/>
      <point x="-84" y="391"/>
    </contour>
  </outline>
</glyph>
<glyph name="cnct.ful_e_r" format="2">
  <anchor x="0" y="0" name="_cnct"/>
  <outline>
    <contour>
      <point x="-134" y="-17" type="curve" smooth="yes"/>
      <point x="46" y="-17"/>
      <point x="135" y="159"/>
      <point x="199" y="444" type="curve" smooth="yes"/>
      <point x="205" y="474"/>
      <point x="139" y="489"/>
      <point x="131" y="461" type="curve" smooth="yes"/>
      <point x="71" y="228"/>
      <point x="1" y="61"/>
      <point x="-122" y="61" type="curve" smooth="yes"/>
      <point x="-254" y="61"/>
      <point x="-306" y="186"/>
      <point x="-306" y="285" type="curve" smooth="yes"/>
      <point x="-306" y="391"/>
      <point x="-272" y="440"/>
      <point x="-216" y="440" type="curve" smooth="yes"/>
      <point x="-191" y="440"/>
      <point x="-187" y="519"/>
      <point x="-212" y="519" type="curve" smooth="yes"/>
      <point x="-330" y="519"/>
      <point x="-395" y="411"/>
      <point x="-395" y="289" type="curve" smooth="yes"/>
      <point x="-395" y="180"/>
      <point x="-339" y="-17"/>
    </contour>
  </outline>
</glyph>
<glyph name="cnct.ful_e_x.mod" format="2">
  <anchor x="0" y="0" name="_cnct"/>
  <outline>
    <contour>
      <point x="-146" y="-17" type="curve" smooth="yes"/>
      <point x="25" y="-17"/>
      <point x="99" y="171"/>
      <point x="194" y="474" type="curve" smooth="yes"/>
      <point x="204" y="504"/>
      <point x="135" y="519"/>
      <point x="126" y="491" type="curve" smooth="yes"/>
      <point x="45" y="240"/>
      <point x="-24" y="61"/>
      <point x="-135" y="61" type="curve" smooth="yes"/>
      <point x="-234" y="61"/>
      <point x="-306" y="150"/>
      <point x="-306" y="273" type="curve" smooth="yes"/>
      <point x="-306" y="388"/>
      <point x="-272" y="440"/>
      <point x="-216" y="440" type="curve" smooth="yes"/>
      <point x="-191" y="440"/>
      <point x="-187" y="519"/>
      <point x="-212" y="519" type="curve" smooth="yes"/>
      <point x="-330" y="519"/>
      <point x="-395" y="405"/>
      <point x="-395" y="276" type="curve" smooth="yes"/>
      <point x="-395" y="106"/>
      <point x="-290" y="-17"/>
    </contour>
  </outline>
</glyph>
<glyph name="cnct.ful_e_z" format="2">
  <guideline y="171"/>
  <guideline y="113"/>
  <anchor x="0" y="0" name="_cnct"/>
  <outline>
    <contour>
      <point x="-142" y="-17" type="curve" smooth="yes"/>
      <point x="25" y="-17"/>
      <point x="115" y="164"/>
      <point x="181" y="461" type="curve" smooth="yes"/>
      <point x="188" y="491"/>
      <point x="129" y="506"/>
      <point x="121" y="479" type="curve" smooth="yes"/>
      <point x="59" y="233"/>
      <point x="-1" y="61"/>
      <point x="-131" y="61" type="curve" smooth="yes"/>
      <point x="-256" y="61"/>
      <point x="-306" y="186"/>
      <point x="-306" y="285" type="curve" smooth="yes"/>
      <point x="-306" y="391"/>
      <point x="-272" y="440"/>
      <point x="-216" y="440" type="curve" smooth="yes"/>
      <point x="-191" y="440"/>
      <point x="-187" y="519"/>
      <point x="-212" y="519" type="curve" smooth="yes"/>
      <point x="-330" y="519"/>
      <point x="-395" y="411"/>
      <point x="-395" y="289" type="curve" smooth="yes"/>
      <point x="-395" y="180"/>
      <point x="-341" y="-17"/>
    </contour>
  </outline>
</glyph>
<glyph name="cnct.ful_e_z.mod" format="2">
  <guideline y="171"/>
  <guideline y="113"/>
  <anchor x="0" y="0" name="_cnct"/>
  <outline>
    <contour>
      <point x="-142" y="-17" type="curve" smooth="yes"/>
      <point x="20" y="-17"/>
      <point x="123" y="163"/>
      <point x="215" y="461" type="curve" smooth="yes"/>
      <point x="224" y="491"/>
      <point x="161" y="506"/>
      <point x="153" y="479" type="curve" smooth="yes"/>
      <point x="75" y="230"/>
      <point x="-6" y="61"/>
      <point x="-131" y="61" type="curve" smooth="yes"/>
      <point x="-256" y="61"/>
      <point x="-306" y="174"/>
      <point x="-306" y="285" type="curve" smooth="yes"/>
      <point x="-306" y="391"/>
      <point x="-272" y="440"/>
      <point x="-216" y="440" type="curve" smooth="yes"/>
      <point x="-191" y="440"/>
      <point x="-187" y="519"/>
      <point x="-212" y="519" type="curve" smooth="yes"/>
      <point x="-330" y="519"/>
      <point x="-395" y="411"/>
      <point x="-395" y="289" type="curve" smooth="yes"/>
      <point x="-395" y="180"/>
      <point x="-341" y="-17"/>
    </contour>
  </outline>
</glyph>
